<svg width="20" height="20" viewBox="0 0 20 20" fill="none" xmlns="http://www.w3.org/2000/svg">
<path fill-rule="evenodd" clip-rule="evenodd" d="M10.0003 2.07495C11.5944 2.07495 12.8866 3.36719 12.8866 4.96125C12.8866 5.06715 12.8808 5.17298 12.8692 5.27825L12.6829 6.964C12.5318 8.33152 11.3762 9.36647 10.0003 9.36647C8.62448 9.36647 7.46886 8.33152 7.31776 6.964L7.13148 5.27825C6.95641 3.69383 8.0989 2.26749 9.68332 2.09241C9.78858 2.08078 9.89441 2.07495 10.0003 2.07495Z" fill="#475569"/>
<path fill-rule="evenodd" clip-rule="evenodd" d="M4.1665 17.3624V14.1736C4.1665 12.9182 4.96984 11.8036 6.16084 11.4066L8.5415 10.613H11.4582L13.5292 11.3034L12.8511 11.7961L13.3617 12.4989C13.1989 12.6705 13.0583 12.8631 12.9444 13.0725L12.1187 12.8042L11.8117 13.749L12.6376 14.0173C12.6225 14.1334 12.6147 14.2518 12.6147 14.372C12.6147 14.4922 12.6225 14.6105 12.6376 14.7266L11.8117 14.995L12.1187 15.9398L12.9444 15.6715C13.0583 15.8808 13.1989 16.0735 13.3617 16.245L12.8511 16.9478L13.6547 17.5317L14.165 16.8294C14.3763 16.9303 14.6026 17.0048 14.8398 17.0485V17.539C13.3481 17.7747 11.7136 17.9047 9.99984 17.9047C7.89684 17.9047 5.91324 17.7089 4.1665 17.3624ZM14.165 11.9145L13.7823 11.3877L13.8388 11.4066C14.0987 11.4932 14.3401 11.614 14.5587 11.7629C14.4227 11.8034 14.2912 11.8542 14.165 11.9145Z" fill="#475569"/>
<path fill-rule="evenodd" clip-rule="evenodd" d="M14.8401 11.6954V10.8271H15.8335V11.6954C16.0706 11.7391 16.297 11.8136 16.5083 11.9145L17.0185 11.2122L17.8222 11.7961L17.3116 12.4989C17.4743 12.6704 17.6149 12.8631 17.7289 13.0724L18.5546 12.8041L18.8616 13.7489L18.0357 14.0173C18.0508 14.1334 18.0586 14.2517 18.0586 14.3719C18.0586 14.4921 18.0508 14.6105 18.0357 14.7266L18.8616 14.9949L18.5546 15.9397L17.7289 15.6714C17.6149 15.8807 17.4743 16.0734 17.3116 16.2449L17.8222 16.9478L17.0185 17.5317L16.5083 16.8294C16.297 16.9303 16.0706 17.0047 15.8335 17.0485V17.9167H14.8401V17.0485C14.603 17.0047 14.3766 16.9303 14.1653 16.8294L13.6551 17.5317L12.8514 16.9478L13.362 16.2449C13.1993 16.0734 13.0586 15.8807 12.9447 15.6714L12.119 15.9397L11.812 14.9949L12.6379 14.7266C12.6228 14.6105 12.615 14.4921 12.615 14.3719C12.615 14.2517 12.6228 14.1334 12.6379 14.0173L11.812 13.7489L12.119 12.8041L12.9447 13.0724C13.0586 12.8631 13.1993 12.6704 13.362 12.4989L12.8514 11.7961L13.6551 11.2122L14.1653 11.9145C14.3766 11.8136 14.603 11.7391 14.8401 11.6954ZM15.3368 15.938C16.2017 15.938 16.9029 15.2369 16.9029 14.3719C16.9029 13.507 16.2017 12.8058 15.3368 12.8058C14.4719 12.8058 13.7707 13.507 13.7707 14.3719C13.7707 15.2369 14.4719 15.938 15.3368 15.938Z" fill="#475569"/>
</svg>
