<svg width="66" height="66" fill="none" xmlns="http://www.w3.org/2000/svg"><g clip-path="url(#clip0)"><path d="M21.362 25.075L19.89 22.71l-.092 2.785-2.438.654 2.37.886-.101 2.647 1.582-2.043 2.394.977-1.411-2.24 1.606-1.953-2.438.653z" fill="#375FF3"/></g><g clip-path="url(#clip1)"><path d="M31.022 22.487l-1.473-2.366-.092 2.785-2.438.653 2.37.887-.101 2.646 1.582-2.042 2.394.977-1.411-2.241 1.606-1.952-2.437.653z" fill="#375FF3"/></g><g clip-path="url(#clip2)"><path d="M40.68 19.899l-1.472-2.366-.092 2.785-2.437.653 2.37.887-.102 2.647 1.582-2.043 2.395.977-1.412-2.24 1.606-1.953-2.437.653z" fill="#375FF3"/></g><path d="M26.888 40.605l-1.304-4.868-8.775 2.35.283 1.055 7.65-2.05.74 2.76-6.063 1.624-.425-1.588-1.113.298 1.615 6.027c.273 1.02.896 1.4 1.882 1.136l6.398-1.715c.47-.15.803-.389 1.013-.718.172-.332.136-1.254-.117-2.752l-1.17-.059c.256 1.236.326 1.963.187 2.186a.89.89 0 01-.512.36l-5.784 1.55c-.44.119-.72-.043-.837-.483l-.854-3.188 7.186-1.925zm12.63 2.206c.788-.21 1.076-.71.871-1.476l-2.416-9.017-5.471 1.465.273 1.02 4.393-1.177 2.06 7.685c.086.325.014.518-.206.577l-.563.126c.106-.252.086-.744-.04-1.492l-1.02-.05c.114.516.137.833.072.962-.044.111-.136.186-.275.223l-.279.075c-.162.043-.268-.028-.314-.202l-.392-1.46 1.17-.314-.878-3.28-1.078.288c.15-.55.275-1.154.371-1.813l-1.14-.08c-.045.757-.149 1.481-.286 2.176l-1.38.37.732-.656c-.415-.435-.843-.83-1.257-1.166l-.797.686c.418.31.844.693 1.265 1.151l-1.298.348.879 3.28 1.1-.295c.105.991-.387 1.844-1.458 2.578l.81.752c1.27-1.011 1.797-2.196 1.6-3.584l.683-.184.447 1.67c.184.683.567.953 1.17.792l.764-.205c.313-.084.55-.222.704-.387l.465.807.718-.193zm-3.372-3.68l-2.875.77-.4-1.495 2.874-.77.4 1.495zm-7.44-2.777l2.357 8.797 1.078-.289-2.357-8.797-1.078.289zm1.445-2.537l-.88.708c.602.435 1.187.95 1.759 1.554l.837-.771a10.804 10.804 0 00-1.716-1.49zm16.673 6.962c.812-.218 1.123-.723.912-1.512l-1.292-4.822 4.382-1.173-.292-1.09-9.945 2.665.291 1.09 4.44-1.19 1.217 4.544c.081.3-.04.495-.365.582a18.83 18.83 0 01-1.36.302l.517 1.005 1.495-.401zm-3.973-4.166c-.01 1.444-.298 2.876-.862 4.294l1.12.333c.547-1.389.85-2.948.897-4.675l-1.155.048zm6.373-1.856l-.907.603c1.047.987 2.086 2.174 3.113 3.551l.887-.722a26.023 26.023 0 00-3.093-3.432zm-8.352-3.117l.286 1.066 7.847-2.102-.286-1.067-7.847 2.103z" fill="#375FF3"/><circle cx="33" cy="33" r="27.5" transform="rotate(-15 33 33)" stroke="#375FF3" stroke-dasharray="3 3"/><circle cx="33" cy="33" r="31.25" transform="rotate(-15 33 33)" stroke="#375FF3" stroke-width="1.5"/><defs><clipPath id="clip0"><path fill="#fff" transform="rotate(-15 95.66 -48.66)" d="M0 0h8v8H0z"/></clipPath><clipPath id="clip1"><path fill="#fff" transform="rotate(-15 90.66 -86.638)" d="M0 0h8v8H0z"/></clipPath><clipPath id="clip2"><path fill="#fff" transform="rotate(-15 85.66 -124.617)" d="M0 0h8v8H0z"/></clipPath></defs></svg>
