<svg width="66" height="66" fill="none" xmlns="http://www.w3.org/2000/svg"><g clip-path="url(#clip0)"><path d="M21.362 25.075L19.89 22.71l-.092 2.785-2.438.654 2.37.886-.101 2.647 1.582-2.043 2.394.977-1.411-2.24 1.606-1.953-2.438.653z" fill="#D97706"/></g><g clip-path="url(#clip1)"><path d="M31.022 22.487l-1.473-2.366-.092 2.785-2.438.653 2.37.887-.101 2.646 1.582-2.042 2.394.977-1.411-2.241 1.606-1.952-2.437.653z" fill="#D97706"/></g><g clip-path="url(#clip2)"><path d="M40.68 19.899l-1.472-2.366-.092 2.785-2.437.653 2.37.887-.102 2.647 1.582-2.043 2.395.977-1.412-2.24 1.606-1.953-2.437.653z" fill="#D97706"/></g><path d="M16.002 42.54c-.445.38-.896.738-1.353 1.071l-.553-2.063 1.414-.379-.282-1.055-1.414.38-.535-1.994-1.112.298.534 1.993-1.727.463.282 1.055 1.727-.463.659 2.458a21.84 21.84 0 01-1.779 1.01l.546.972c.516-.3 1.017-.608 1.516-.928l.69 2.574c.07.266-.043.446-.321.52-.336.09-.702.163-1.082.228l.54.998 1.195-.32c.765-.205 1.056-.693.858-1.435l-.873-3.257c.457-.334.911-.679 1.362-1.036l-.292-1.09zm-.814-3.732l.286 1.066 2.99-.8 1.936 7.22c.08.302-.015.501-.27.57a33.83 33.83 0 01-1.813.423l.53 1.001 1.935-.518c.742-.2 1.016-.707.805-1.495l-2.01-7.5 1.785-.478-.285-1.067-5.889 1.578zm10.605-.295l1.15 4.289 4.636-1.242-1.15-4.29-4.636 1.243zm4.497 2.41l-2.573.69-.655-2.446 2.573-.69.655 2.447zm1.882-6.84l-9.504 2.547 2.633 9.83 1.067-.286-.11-.406 7.373-1.975.108.405 1.067-.285-2.634-9.83zm-6.174 10.711l-2.003-7.476 7.372-1.975 2.003 7.476-7.372 1.975zm9.628-8.717l1.068 3.988 3.547-.95.165.614-4.01 1.074.232.87 4.01-1.075.178.66-4.59 1.23.251.94 10.316-2.765-.251-.939-4.625 1.24-.177-.661 4.045-1.084-.233-.87-4.045 1.085-.165-.615 3.559-.953-1.069-3.987-3.558.953-.152-.568 4.45-1.193-.248-.927-4.45 1.193-.187-.696c1.242-.42 2.4-.829 3.475-1.217l-.575-.802c-2.268.856-4.89 1.733-7.879 2.633l.422.831c1.216-.376 2.374-.736 3.471-1.092l.171.638-4.428 1.186.249.928 4.428-1.187.152.568-3.547.95zm7.976 1.205l-2.493.668-.192-.719 2.492-.667.193.718zm-3.594.963l-2.492.668-.192-.719 2.492-.668.192.719zM37.1 37.36l-.186-.696 2.492-.668.186.696-2.492.668zm3.407-1.659l2.492-.668.186.696-2.492.668-.186-.696zm8.526-6.011l.255.95 2.759-.74c.026.193.041.387.062.605l-2.051.55 1.422 5.309-.95.254-.255-.95c-.31.232-.62.465-.946.688l-.876-3.268 1.101-.296-.28-1.043-1.1.295-.724-2.7-1.055.282.724 2.701-1.206.323.28 1.043 1.205-.323.963 3.594c-.398.23-.813.441-1.243.643l.563.992a23.641 23.641 0 002.82-1.811l.22.823 2.284-.612c-.498.692-1.162 1.367-1.995 2.013l.87.649c.872-.73 1.552-1.485 2.063-2.267l-.857-.417 2.689-.72-.5.78c.91.24 1.795.575 2.652.991l.455-.942a13.829 13.829 0 00-2.538-.848l2.284-.612-.261-.974-1.008.27-1.423-5.308-2.283.612-.051-.608 2.782-.745-.255-.95-2.666.714-.11-.691-1.107.135.15.841-2.863.768zm3.479 6.397l-.155-.58 3.315-.887.155.58-3.315.887zm-.357-1.333l-.146-.544 3.315-.889.146.545-3.315.888zm-.348-1.298l-.143-.533 3.315-.888.143.533-3.315.888zm-.345-1.287l-.146-.544 3.315-.889.146.545-3.315.889z" fill="#D97706"/><circle cx="33" cy="33" r="27.5" transform="rotate(-15 33 33)" stroke="#D97706" stroke-dasharray="3 3"/><circle cx="33" cy="33" r="31.25" transform="rotate(-15 33 33)" stroke="#D97706" stroke-width="1.5"/><defs><clipPath id="clip0"><path fill="#fff" transform="rotate(-15 95.66 -48.66)" d="M0 0h8v8H0z"/></clipPath><clipPath id="clip1"><path fill="#fff" transform="rotate(-15 90.66 -86.638)" d="M0 0h8v8H0z"/></clipPath><clipPath id="clip2"><path fill="#fff" transform="rotate(-15 85.66 -124.617)" d="M0 0h8v8H0z"/></clipPath></defs></svg>
