<svg width="66" height="66" fill="none" xmlns="http://www.w3.org/2000/svg"><g clip-path="url(#clip0)"><path d="M21.362 25.075L19.89 22.71l-.092 2.785-2.438.654 2.37.886-.101 2.647 1.582-2.043 2.394.977-1.411-2.24 1.606-1.953-2.438.653z" fill="#D97706"/></g><g clip-path="url(#clip1)"><path d="M31.022 22.487l-1.473-2.366-.092 2.785-2.438.653 2.37.887-.101 2.646 1.582-2.042 2.394.977-1.411-2.241 1.606-1.952-2.437.653z" fill="#D97706"/></g><g clip-path="url(#clip2)"><path d="M40.68 19.899l-1.472-2.366-.092 2.785-2.437.653 2.37.887-.102 2.647 1.582-2.043 2.395.977-1.412-2.24 1.606-1.953-2.437.653z" fill="#D97706"/></g><path d="M26.888 40.605l-1.304-4.868-8.775 2.35.283 1.055 7.65-2.05.74 2.76-6.063 1.624-.425-1.588-1.113.298 1.615 6.027c.273 1.02.896 1.4 1.882 1.136l6.398-1.715c.47-.15.803-.389 1.013-.718.172-.332.136-1.254-.117-2.752l-1.17-.059c.256 1.236.326 1.963.187 2.186a.89.89 0 01-.512.36l-5.784 1.55c-.44.119-.72-.043-.837-.483l-.854-3.188 7.186-1.925zm4.7-3.645l1.15 4.289 4.636-1.243-1.149-4.288-4.636 1.242zm4.498 2.41l-2.573.69-.656-2.446 2.574-.69.655 2.446zm1.882-6.84l-9.505 2.547 2.634 9.83 1.066-.287-.109-.405 7.372-1.976.11.406 1.065-.286-2.633-9.829zm-6.175 10.711l-2.003-7.476 7.372-1.976 2.004 7.477-7.372 1.975zm8.651-11.946l-.569.935c1.015.449 1.82.904 2.427 1.363l.589-1.003c-.695-.46-1.517-.886-2.447-1.295zm9.367 8.622l2.712-.727-.013-1.164c-.319.11-.776.257-1.364.427-.6.173-1.176.34-1.756.495-.904.243-1.672.436-2.324.599-.679.156-1.217.189-1.608.12a3.06 3.06 0 01-1.01-.475c-.076-.054-.146-.085-.205-.12l-1.177-4.392-2.585.693.273 1.02 1.553-.417.88 3.28c-.402.357-.765 1.088-1.093 2.182l1.013.536c.312-1.202.59-1.835.833-1.9.127-.035.291.02.506.174.453.301.922.474 1.423.489.506-.012 1.14-.107 1.884-.294.745-.187 1.432-.359 2.058-.526zm-2.556-5.043l-.413.918c1.82.482 3.367 1.111 4.666 1.88l.455-.99a14.671 14.671 0 00-1.793-.85c.244-.388.478-.811.7-1.28l-.95-.392c-.184.422-.427.86-.705 1.307a21.622 21.622 0 00-1.96-.593zM45.253 33.2l3.559-.953.22.823-3.558.953-.22-.823zm3.316-1.857l-3.558.953-.22-.823 3.558-.953.22.823zm-2.835 3.654l4.637-1.242-1.205-4.498-5.703 1.528 1.904 7.106c.05.185-.037.37-.268.531l.48.865c1.353-.61 2.447-1.165 3.309-1.656l-.508-.92c-.62.377-1.26.722-1.91 1.033l-.736-2.747z" fill="#D97706"/><circle cx="33" cy="33" r="27.5" transform="rotate(-15 33 33)" stroke="#D97706" stroke-dasharray="3 3"/><circle cx="33" cy="33" r="31.25" transform="rotate(-15 33 33)" stroke="#D97706" stroke-width="1.5"/><defs><clipPath id="clip0"><path fill="#fff" transform="rotate(-15 95.66 -48.66)" d="M0 0h8v8H0z"/></clipPath><clipPath id="clip1"><path fill="#fff" transform="rotate(-15 90.66 -86.638)" d="M0 0h8v8H0z"/></clipPath><clipPath id="clip2"><path fill="#fff" transform="rotate(-15 85.66 -124.617)" d="M0 0h8v8H0z"/></clipPath></defs></svg>
