<svg width="66" height="66" fill="none" xmlns="http://www.w3.org/2000/svg"><g clip-path="url(#clip0)"><path d="M21.362 25.075L19.89 22.71l-.092 2.785-2.438.654 2.37.886-.101 2.647 1.582-2.043 2.394.977-1.411-2.24 1.606-1.953-2.438.653z" fill="#16A34A"/></g><g clip-path="url(#clip1)"><path d="M31.022 22.487l-1.473-2.366-.092 2.785-2.438.653 2.37.887-.101 2.646 1.582-2.042 2.394.977-1.411-2.241 1.606-1.952-2.437.653z" fill="#16A34A"/></g><g clip-path="url(#clip2)"><path d="M40.68 19.899l-1.472-2.366-.092 2.785-2.437.653 2.37.887-.102 2.647 1.582-2.043 2.394.977-1.41-2.24 1.605-1.953-2.437.653z" fill="#16A34A"/></g><path d="M14.517 44.926l2.33-.624.288 1.078-2.33.624-.288-1.078zm2.889 1.462l.615 2.296 1.09-.292-.616-2.296 2.365-.633.158.591 1.078-.289-1.54-5.749-3.443.922-.27-1.008-1.09.292.27 1.008-3.407.914 1.55 5.784 1.078-.29-.168-.625 2.33-.624zm.82-1.3l-.29-1.078 2.365-.633.289 1.078-2.365.633zm1.817-2.674l-2.364.634-.292-1.09 2.364-.633.292 1.09zm-3.746-.164l.292 1.09-2.33.624-.292-1.09 2.33-.624zm4.483-4.965l-4.404 1.18c-.18-.3-.365-.573-.529-.815l-1.121.5c.175.189.341.392.514.62l-4.335 1.161.602 2.249 1.067-.286-.332-1.24 7.742-2.075.317 1.182 1.067-.286-.587-2.19zm5.944 2.892c-.288.226-.587.455-.892.661l-.605-2.26 1.055-.283-.283-1.054-1.055.282-.55-2.051-1.066.285.55 2.052-1.217.326.282 1.055 1.217-.326.696 2.596c-.418.249-.842.474-1.27.688l.539.987a23.58 23.58 0 001.017-.608l.652 2.434c.075.278-.027.454-.294.526a5.5 5.5 0 01-.865.157l.521 1.016.997-.267c.719-.193.987-.675.782-1.44l-.823-3.071c.29-.215.592-.432.891-.662l-.28-1.043zm1.395-.958l1.484-.397-.286-1.067-1.483.398-.883-3.292-1.09.292 2.37 8.844c.088.325-.016.588-.3.776l.55.946c.999-.54 1.872-1.085 2.605-1.642l-.468-.956a9.216 9.216 0 01-1.222.862l-1.277-4.764zm5.712 5.042c.452-.121.742-.336.889-.623.163-.318.111-1.16-.153-2.519l-1.084-.057c.232 1.006.321 1.616.255 1.832a.496.496 0 01-.38.388l-.476.127c-.255.069-.42-.036-.494-.314L31.13 38.4c.697-.46 1.423-1.04 2.168-1.736l-.876-.722c-.48.526-1.017.98-1.584 1.369l-.882-3.292-1.09.292 2.497 9.319c.215.8.694 1.106 1.448.904l1.02-.273zm.806-11.41l-.56.92c1.026.446 1.843.898 2.461 1.354l.572-.973c-.695-.46-1.52-.898-2.473-1.3zm9.448 8.6l2.643-.708-.026-1.161c-.306.107-.752.251-1.329.418-.576.167-1.153.334-1.72.486-.905.242-1.684.439-2.348.604-.69.16-1.228.193-1.62.124-.33-.073-.67-.23-1.02-.472a1.27 1.27 0 00-.22-.127l-1.175-4.382-2.585.693.274 1.02 1.553-.416.879 3.28c-.402.356-.765 1.087-1.093 2.181l1.013.536c.312-1.202.59-1.835.833-1.9.14-.038.303.018.518.171.453.301.934.47 1.434.486.518-.015 1.151-.11 1.908-.3.745-.187 1.443-.362 2.08-.533zm-4.48-8.7l-.482.8c.544.127 1.044.279 1.495.431l-2.666.714 1.677 6.26 1.043-.28-.515-1.924 1.634-.438.51 1.901 1.008-.27-.51-1.901 1.67-.447.158.59c.068.256-.037.42-.292.489l-.835.174.477.853.893-.239c.753-.201 1.042-.652.859-1.336l-1.379-5.146-2.33.624c-.03-.017-.056-.022-.085-.04a12.724 12.724 0 001.758-2.06l-.208-.777-6.363 1.705.245.916 2.237-.6zm1.518.474c-.457-.175-.946-.33-1.46-.49l2.596-.696c-.337.413-.714.813-1.136 1.186zM39.7 37.048l1.634-.438.218.812-1.635.437-.217-.811zm2.643-.708l1.669-.447.217.811-1.669.447-.217-.811zm1.427-1.351l-1.67.447-.217-.812 1.67-.447.217.812zm-2.678.717l-1.634.438-.218-.811 1.635-.438.217.811zm5.09-5.948l-.56.92c1.014.45 1.822.916 2.441 1.371l.586-1.014a15.887 15.887 0 00-2.467-1.277zm9.737 8.522l2.458-.658-.032-1.184c-.283.1-.694.235-1.245.408-.544.146-1.074.3-1.596.44-.95.254-1.765.46-2.452.632-.725.17-1.283.22-1.686.153a3.24 3.24 0 01-1.064-.447.903.903 0 00-.232-.125l-1.177-4.393-2.631.705.28 1.044 1.576-.423.876 3.269c-.399.368-.77 1.113-1.104 2.234l1.013.536c.314-1.24.6-1.888.844-1.953.139-.037.326.012.541.165.465.298.968.462 1.492.47.518-.014 1.186-.119 1.977-.318.78-.197 1.502-.378 2.163-.555zm-.755-1.475c.788-.21 1.088-.714.877-1.502l-1.304-4.868 1.646-.441-.29-1.078-1.645.44-.479-1.784-1.1.295.478 1.785-4.359 1.168.29 1.078 4.358-1.168 1.232 4.602c.081.301-.038.507-.35.59-.476.128-.98.238-1.514.332l.526.99 1.634-.439zm-4.2-4.452l-.714.763c.91.663 1.66 1.282 2.237 1.86l.717-.85c-.55-.524-1.294-1.12-2.24-1.773z" fill="#16A34A"/><circle cx="33" cy="33" r="27.5" transform="rotate(-15 33 33)" stroke="#16A34A" stroke-dasharray="3 3"/><circle cx="33" cy="33" r="31.25" transform="rotate(-15 33 33)" stroke="#16A34A" stroke-width="1.5"/><defs><clipPath id="clip0"><path fill="#fff" transform="rotate(-15 95.66 -48.66)" d="M0 0h8v8H0z"/></clipPath><clipPath id="clip1"><path fill="#fff" transform="rotate(-15 90.66 -86.638)" d="M0 0h8v8H0z"/></clipPath><clipPath id="clip2"><path fill="#fff" transform="rotate(-15 85.66 -124.617)" d="M0 0h8v8H0z"/></clipPath></defs></svg>
