<svg width="66" height="66" fill="none" xmlns="http://www.w3.org/2000/svg"><g clip-path="url(#clip0)"><path d="M21.362 25.075L19.89 22.71l-.092 2.785-2.438.654 2.37.886-.101 2.647 1.582-2.043 2.394.977-1.411-2.24 1.606-1.953-2.438.653z" fill="#375FF3"/></g><g clip-path="url(#clip1)"><path d="M31.022 22.487l-1.473-2.366-.092 2.785-2.438.653 2.37.887-.101 2.646 1.582-2.042 2.394.977-1.411-2.241 1.606-1.952-2.437.653z" fill="#375FF3"/></g><g clip-path="url(#clip2)"><path d="M40.68 19.899l-1.472-2.366-.092 2.785-2.437.653 2.37.887-.102 2.647 1.582-2.043 2.395.977-1.412-2.24 1.606-1.953-2.437.653z" fill="#375FF3"/></g><path d="M24.991 38.765l.438 1.635-.973.26a23.15 23.15 0 00.177-2.581l2.365-.634-.286-1.066-2.086.559c-.016-.43-.038-.885-.064-1.35l-1.083.129c.04.523.064 1.026.08 1.506l-1.298.348.286 1.067 1.02-.274c-.009 1.034-.087 1.9-.221 2.606l.493.912 1.854-.497.407 1.518c-.676.306-1.401.612-2.165.916l.428 1.04a49.524 49.524 0 002.023-.89l.605 2.261 1.055-.283-.661-2.469c.479-.252.946-.502 1.39-.745l-.28-1.043c-.432.24-.9.49-1.393.734l-.354-1.322 1.205-.323-.264-.985-1.205.323-.438-1.634-1.055.282zm2.185-2.51l.286 1.066 1.541-.413c.012.37.027.75.046 1.143l-1.635.438.283 1.055 1.368-.367c-.004.821-.014 1.619-.056 2.388l3.848-1.031c-.21.652-.551 1.328-1.011 2.022a15.128 15.128 0 00-1.81-.36l-.359 1.029c1.395.197 2.807.601 4.25 1.209l.36-1.115a18.587 18.587 0 00-1.412-.492c.566-.947.927-1.826 1.1-2.667l-.243-.904-3.616.969c.013-.414.029-.865.038-1.34l3.71-.994-.283-1.054-3.443.922c-.012-.37-.027-.75-.045-1.143l2.91-.78-.287-1.066-2.689.72c-.045-.447-.082-.91-.125-1.395l-1.106.185c.05.508.095 1.005.13 1.505l-1.75.47zm6.848-1.985l.282 1.055 10.328-2.767-.283-1.055-4.509 1.208a12.107 12.107 0 00-.992-1.2l-1.173.538c.325.286.64.624.948.988l-4.601 1.233zm7.39-.7l-.558.932c1.663.734 3.003 1.469 4.011 2.217l.594-1.028c-1.148-.761-2.493-1.47-4.047-2.121zm.494 2.215a9.082 9.082 0 01-1.162 2.896 8.572 8.572 0 01-2.505-1.838l-.804.799c.773.8 1.657 1.457 2.64 1.976-.963 1.177-2.261 2.22-3.885 3.116l.946.84c1.68-.96 3.023-2.115 4.031-3.454 1.504.604 3.226.913 5.171.938l.407-1.215c-1.853.037-3.493-.194-4.922-.706.56-.97.962-2.022 1.224-3.173l-1.14-.179zm-4.397-1.157c-.572 1.296-1.387 2.52-2.439 3.648l.967.734c1.069-1.205 1.89-2.494 2.461-3.89l-.989-.492z" fill="#375FF3"/><circle cx="33" cy="33" r="27.5" transform="rotate(-15 33 33)" stroke="#375FF3" stroke-dasharray="3 3"/><circle cx="33" cy="33" r="31.25" transform="rotate(-15 33 33)" stroke="#375FF3" stroke-width="1.5"/><defs><clipPath id="clip0"><path fill="#fff" transform="rotate(-15 95.66 -48.66)" d="M0 0h8v8H0z"/></clipPath><clipPath id="clip1"><path fill="#fff" transform="rotate(-15 90.66 -86.638)" d="M0 0h8v8H0z"/></clipPath><clipPath id="clip2"><path fill="#fff" transform="rotate(-15 85.66 -124.617)" d="M0 0h8v8H0z"/></clipPath></defs></svg>
