<svg width="66" height="66" fill="none" xmlns="http://www.w3.org/2000/svg"><g clip-path="url(#clip0)"><path d="M21.362 25.075L19.89 22.71l-.092 2.785-2.438.654 2.37.886-.101 2.647 1.582-2.043 2.394.977-1.411-2.24 1.606-1.953-2.438.653z" fill="#DC2626"/></g><g clip-path="url(#clip1)"><path d="M31.022 22.487l-1.473-2.366-.092 2.785-2.438.653 2.37.887-.101 2.646 1.582-2.042 2.394.977-1.411-2.241 1.606-1.952-2.437.653z" fill="#DC2626"/></g><g clip-path="url(#clip2)"><path d="M40.68 19.899l-1.472-2.366-.092 2.785-2.437.653 2.37.887-.102 2.647 1.582-2.043 2.394.977-1.41-2.24 1.605-1.953-2.437.653z" fill="#DC2626"/></g><path d="M14.517 44.926l2.33-.624.288 1.078-2.33.624-.288-1.078zm2.889 1.462l.615 2.296 1.09-.292-.616-2.296 2.365-.633.158.591 1.078-.289-1.54-5.749-3.443.922-.27-1.008-1.09.292.27 1.008-3.407.914 1.55 5.784 1.078-.29-.168-.625 2.33-.624zm.82-1.3l-.29-1.078 2.365-.633.289 1.078-2.365.633zm1.817-2.674l-2.364.634-.292-1.09 2.364-.633.292 1.09zm-3.746-.164l.292 1.09-2.33.624-.292-1.09 2.33-.624zm4.483-4.965l-4.404 1.18c-.18-.3-.365-.573-.529-.815l-1.121.5c.175.189.341.392.514.62l-4.335 1.161.602 2.249 1.067-.286-.332-1.24 7.742-2.075.317 1.182 1.067-.286-.587-2.19zm5.944 2.892c-.288.226-.587.455-.892.661l-.605-2.26 1.055-.283-.283-1.054-1.055.282-.55-2.051-1.066.285.55 2.052-1.217.326.282 1.055 1.217-.326.696 2.596c-.418.249-.842.474-1.27.688l.539.987a23.58 23.58 0 001.017-.608l.652 2.434c.075.278-.027.454-.294.526a5.5 5.5 0 01-.865.157l.521 1.016.997-.267c.719-.193.987-.675.782-1.44l-.823-3.071c.29-.215.592-.432.891-.662l-.28-1.043zm1.395-.958l1.484-.397-.286-1.067-1.483.398-.883-3.292-1.09.292 2.37 8.844c.088.325-.016.588-.3.776l.55.946c.999-.54 1.872-1.085 2.605-1.642l-.468-.956a9.216 9.216 0 01-1.222.862l-1.277-4.764zm5.712 5.042c.452-.121.742-.336.889-.623.163-.318.111-1.16-.153-2.519l-1.084-.057c.232 1.006.321 1.616.255 1.832a.496.496 0 01-.38.388l-.476.127c-.255.069-.42-.036-.494-.314L31.13 38.4c.697-.46 1.423-1.04 2.168-1.736l-.876-.722c-.48.526-1.017.98-1.584 1.369l-.882-3.292-1.09.292 2.497 9.319c.215.8.694 1.106 1.448.904l1.02-.273zm8.704-13.6a9.292 9.292 0 01-.756 1.954 27.041 27.041 0 00-2.884-.656l-.35 1.013a22.64 22.64 0 012.619.59 9.212 9.212 0 01-2.28 2.065l.834.745a9.062 9.062 0 002.528-2.478c.817.265 1.649.589 2.482.962l.346-1.074a26.4 26.4 0 00-2.265-.847c.316-.631.57-1.308.758-2.042l-1.032-.233zm1.017 4.535c-.01 1.17-.172 2.233-.511 3.193a9.141 9.141 0 01-2.098-2.22l-.776.766c.718 1.013 1.512 1.844 2.408 2.498a7.02 7.02 0 01-1.93 2.207l.955.738a7.934 7.934 0 001.934-2.332c.902.491 1.895.81 2.968.969l.409-1.166a8.164 8.164 0 01-2.902-.862c.386-1.06.608-2.275.651-3.64l-1.108-.151zm-6.535-1.529l.525 3.86-1.194.32-.382-3.19-1.082.228.579 4.292 3.21-.86c.426 1.588.614 2.569.577 2.939-.03.356-.334.611-.936.773-.186.05-.508.098-.984.176l.557.92c.33-.064.638-.122.94-.203.857-.23 1.358-.587 1.513-1.076.143-.486-.14-2.1-.874-4.835l-.857.23-.735-4.922-4.092 1.097.28 1.043 2.956-.792zm1.354 5.563c-.83.471-1.82.948-2.965 1.404l.425 1.029a21.069 21.069 0 002.814-1.413l-.274-1.02zm10.604-6.928l1.15 4.288 4.636-1.242-1.149-4.289-4.637 1.243zm4.498 2.41l-2.574.69-.655-2.446 2.573-.69.656 2.446zm1.881-6.84l-9.504 2.547 2.633 9.829 1.067-.286-.109-.406 7.372-1.975.109.406 1.066-.286-2.634-9.83zm-6.174 10.71l-2.003-7.476 7.372-1.975 2.003 7.476-7.372 1.976z" fill="#DC2626"/><circle cx="33" cy="33" r="27.5" transform="rotate(-15 33 33)" stroke="#DC2626" stroke-dasharray="3 3"/><circle cx="33" cy="33" r="31.25" transform="rotate(-15 33 33)" stroke="#DC2626" stroke-width="1.5"/><defs><clipPath id="clip0"><path fill="#fff" transform="rotate(-15 95.66 -48.66)" d="M0 0h8v8H0z"/></clipPath><clipPath id="clip1"><path fill="#fff" transform="rotate(-15 90.66 -86.638)" d="M0 0h8v8H0z"/></clipPath><clipPath id="clip2"><path fill="#fff" transform="rotate(-15 85.66 -124.617)" d="M0 0h8v8H0z"/></clipPath></defs></svg>
