<svg width="66" height="66" fill="none" xmlns="http://www.w3.org/2000/svg"><g clip-path="url(#clip0)"><path d="M21.362 25.075L19.89 22.71l-.092 2.785-2.438.654 2.37.886-.101 2.647 1.582-2.043 2.394.977-1.411-2.24 1.606-1.953-2.438.653z" fill="#375FF3"/></g><g clip-path="url(#clip1)"><path d="M31.022 22.487l-1.473-2.366-.092 2.785-2.438.653 2.37.887-.101 2.646 1.582-2.042 2.394.977-1.411-2.241 1.606-1.952-2.437.653z" fill="#375FF3"/></g><g clip-path="url(#clip2)"><path d="M40.68 19.899l-1.472-2.366-.092 2.785-2.437.653 2.37.887-.102 2.647 1.582-2.043 2.394.977-1.41-2.24 1.605-1.953-2.437.653z" fill="#375FF3"/></g><path d="M20.946 37.626l-4.416 1.183a12.38 12.38 0 00-.701-1.042l-1.185.54c.214.242.437.517.646.834l-4.335 1.162.733 2.735 1.124-.301-.447-1.67 7.743-2.074.447 1.67 1.124-.302-.733-2.735zm-7.703 4.4l.282 1.054 6.56-1.758-.282-1.055-6.56 1.758zm-1.196 2.63l.282 1.055 3.072-.823.01.035c.174.835.11 1.573-.179 2.21-.333.61-1.07 1.243-2.227 1.888l.89.818c1.194-.693 1.987-1.44 2.387-2.218.397-.839.476-1.842.218-2.99l-.01-.035 1.74-.466.71 2.655c.24.892.755 1.239 1.555 1.024l2.005-.537c.394-.105.653-.3.782-.557.138-.273.091-1.006-.13-2.202l-1.13-.045c.183.82.267 1.32.24 1.501-.029.17-.1.275-.239.313l-1.46.391c-.301.08-.49-.067-.583-.415l-.65-2.423 3.165-.848-.283-1.054-10.165 2.723zM30.18 33.834l-.515.86c.586.24 1.08.505 1.485.769l-1.785.478a39.913 39.913 0 01-.503-1.691l-1.112.298c.158.591.31 1.159.48 1.697l-4.776 1.28 1.034 3.86c.471 1.899.483 3.473.047 4.72l1.034.519c.533-1.535.548-3.377.02-5.534l-.018-.07 1.75-.469c.3 1.212.47 1.986.481 2.306-.001.274-.095.436-.3.503-.325.087-.713.166-1.183.267l.603.907c.369-.061.7-.125.978-.2.6-.173.928-.522.983-1.058.037-.606-.213-1.956-.752-4.06l-2.84.761-.453-1.692 3.732-1c.46 1.392.936 2.52 1.442 3.39.258.453.519.867.793 1.241a7.754 7.754 0 01-2.236 2.922l.874.76a8.154 8.154 0 002.17-2.706c.225.238.456.45.703.632.74.535 1.366.74 1.876.603.557-.15.768-1.076.63-2.753l-1.14-.266c.153 1.176.155 1.785.004 1.825-.185.05-.535-.142-1.02-.56-.18-.162-.37-.36-.571-.604.439-1.236.677-2.666.743-4.274l-1.123-.158c-.03 1.188-.175 2.27-.432 3.258a8.713 8.713 0 01-.317-.536c-.4-.7-.824-1.73-1.272-3.075l3.454-.926-.282-1.055-1.391.373.39-.676a9.83 9.83 0 00-1.685-.866zm7.262-1.039l.255.95 2.759-.738c.026.191.041.386.062.604l-2.051.55 1.422 5.309-.95.254-.255-.95c-.31.232-.621.464-.946.688l-.876-3.269 1.101-.295-.28-1.043-1.1.295-.724-2.7-1.055.282.724 2.7-1.206.324.28 1.043 1.205-.323.963 3.593c-.398.231-.813.442-1.244.644l.564.992a23.63 23.63 0 002.82-1.811l.22.823 2.283-.612c-.497.692-1.161 1.367-1.995 2.013l.87.649c.873-.731 1.553-1.485 2.064-2.268l-.857-.416 2.689-.72-.5.78c.91.24 1.794.575 2.652.99l.455-.941a13.825 13.825 0 00-2.538-.848l2.284-.612-.261-.974-1.009.27-1.422-5.308-2.283.612-.051-.608 2.781-.745-.254-.95-2.666.714-.11-.691-1.108.135.151.841-2.863.767zm3.479 6.398l-.156-.58 3.316-.888.155.58-3.315.888zm-.357-1.333l-.146-.545 3.315-.888.146.545-3.315.888zm-.348-1.298l-.143-.533 3.315-.889.143.534-3.315.888zm-.345-1.287l-.146-.544 3.315-.889.146.545-3.315.888zm9.911-2.42l4.846-1.298-.28-1.043-4.602 1.233a34.91 34.91 0 00-.052-1.03l-1.117.188c.098 1.34.121 2.912.059 4.718l6.456-1.73c.462 1.864.637 2.935.514 3.216-.133.247-.464.448-1.02.597-.418.112-.861.218-1.343.322l.578.951.985-.264c1.029-.288 1.651-.654 1.871-1.085.225-.458-.016-2.145-.746-5.055l-6.178 1.655c.01-.425.023-.888.03-1.374zm-2.375 4.302l.282 1.055 6.978-1.87-.282-1.055-6.978 1.87zm7.874-9.514l-9.482 2.54.708 2.643 1.09-.292-.432-1.61 7.303-1.957.434 1.622 1.09-.292-.711-2.654z" fill="#375FF3"/><circle cx="33" cy="33" r="27.5" transform="rotate(-15 33 33)" stroke="#375FF3" stroke-dasharray="3 3"/><circle cx="33" cy="33" r="31.25" transform="rotate(-15 33 33)" stroke="#375FF3" stroke-width="1.5"/><defs><clipPath id="clip0"><path fill="#fff" transform="rotate(-15 95.66 -48.66)" d="M0 0h8v8H0z"/></clipPath><clipPath id="clip1"><path fill="#fff" transform="rotate(-15 90.66 -86.638)" d="M0 0h8v8H0z"/></clipPath><clipPath id="clip2"><path fill="#fff" transform="rotate(-15 85.66 -124.617)" d="M0 0h8v8H0z"/></clipPath></defs></svg>
