<svg width="30" height="30" viewBox="0 0 30 30" fill="none" xmlns="http://www.w3.org/2000/svg">
<path d="M20.5001 15C22.1867 15 23.5434 13.6311 23.5434 11.9444C23.5434 10.2577 22.1867 8.88884 20.5001 8.88884C18.8134 8.88884 17.4445 10.2577 17.4445 11.9444C17.4445 13.6311 18.8134 15 20.5001 15ZM11.3334 13.7777C13.3623 13.7777 14.9878 12.14 14.9878 10.1111C14.9878 8.08217 13.3623 6.4444 11.3334 6.4444C9.3045 6.4444 7.66672 8.08217 7.66672 10.1111C7.66672 12.14 9.3045 13.7777 11.3334 13.7777ZM20.5001 17.4444C18.2634 17.4444 13.7778 18.5688 13.7778 20.8055V23.5555H27.2223V20.8055C27.2223 18.5688 22.7367 17.4444 20.5001 17.4444ZM11.3334 16.2222C8.48561 16.2222 2.77783 17.6522 2.77783 20.5V23.5555H11.3334V20.8055C11.3334 19.7666 11.7367 17.9455 14.2301 16.5644C13.1667 16.3444 12.1401 16.2222 11.3334 16.2222Z" fill="white"/>
</svg>
