<svg width="32" height="32" viewBox="0 0 32 32" fill="none" xmlns="http://www.w3.org/2000/svg">
<path fill-rule="evenodd" clip-rule="evenodd" d="M16.0001 3.31976C18.5506 3.31976 20.6181 5.38734 20.6181 7.93784C20.6181 8.10729 20.6088 8.27661 20.5902 8.44504L20.2922 11.1422C20.0504 13.3303 18.2014 14.9862 16.0001 14.9862C13.7987 14.9862 11.9497 13.3303 11.708 11.1422L11.4099 8.44504C11.1298 5.90997 12.9578 3.62782 15.4929 3.3477C15.6613 3.32909 15.8306 3.31976 16.0001 3.31976Z" fill="white"/>
<path opacity="0.65" fill-rule="evenodd" clip-rule="evenodd" d="M6.66675 27.7797V22.6776C6.66675 20.6689 7.95209 18.8856 9.85769 18.2504L13.6667 16.9807H18.3334L21.6471 18.0853L20.562 18.8737L21.379 19.9982C21.1187 20.2726 20.8937 20.5809 20.7113 20.9158L19.3902 20.4865L18.899 21.9982L20.2205 22.4276C20.1963 22.6133 20.1839 22.8027 20.1839 22.995C20.1839 23.1873 20.1963 23.3767 20.2205 23.5624L18.899 23.9918L19.3902 25.5035L20.7113 25.0742C20.8937 25.4091 21.1187 25.7174 21.379 25.9918L20.562 27.1163L21.8479 28.0506L22.6643 26.9269C23.0024 27.0884 23.3646 27.2075 23.744 27.2775V28.0623C21.3573 28.4394 18.7421 28.6474 16.0001 28.6474C12.6353 28.6474 9.46152 28.3342 6.66675 27.7797ZM22.6643 19.0631L22.052 18.2202L22.1425 18.2504C22.5583 18.389 22.9445 18.5822 23.2943 18.8206C23.0767 18.8853 22.8662 18.9667 22.6643 19.0631Z" fill="white"/>
<path fill-rule="evenodd" clip-rule="evenodd" d="M23.7438 18.7125V17.3234H25.3333V18.7125C25.7127 18.7825 26.0749 18.9016 26.4129 19.0631L27.2293 17.9394L28.5152 18.8737L27.6982 19.9982C27.9586 20.2726 28.1836 20.5809 28.3659 20.9158L29.687 20.4865L30.1782 21.9982L28.8568 22.4276C28.8809 22.6133 28.8934 22.8027 28.8934 22.995C28.8934 23.1873 28.8809 23.3767 28.8568 23.5624L30.1782 23.9918L29.687 25.5035L28.3659 25.0742C28.1836 25.4091 27.9586 25.7174 27.6982 25.9918L28.5152 27.1163L27.2293 28.0506L26.4129 26.9269C26.0749 27.0884 25.7127 27.2075 25.3333 27.2775V28.6667H23.7438V27.2775C23.3644 27.2075 23.0023 27.0884 22.6642 26.9269L21.8478 28.0506L20.5619 27.1163L21.3789 25.9918C21.1185 25.7174 20.8935 25.4091 20.7112 25.0742L19.3901 25.5035L18.8989 23.9918L20.2204 23.5624C20.1962 23.3767 20.1837 23.1873 20.1837 22.995C20.1837 22.8027 20.1962 22.6133 20.2204 22.4276L18.8989 21.9982L19.3901 20.4865L20.7112 20.9158C20.8935 20.5809 21.1185 20.2726 21.3789 19.9982L20.5619 18.8737L21.8478 17.9394L22.6642 19.0631C23.0023 18.9016 23.3644 18.7825 23.7438 18.7125ZM24.5386 25.5008C25.9225 25.5008 27.0443 24.3789 27.0443 22.995C27.0443 21.6111 25.9225 20.4893 24.5386 20.4893C23.1547 20.4893 22.0328 21.6111 22.0328 22.995C22.0328 24.3789 23.1547 25.5008 24.5386 25.5008Z" fill="white"/>
</svg>
