<svg width="20" height="20" viewBox="0 0 20 20" fill="none" xmlns="http://www.w3.org/2000/svg">
<path fill-rule="evenodd" clip-rule="evenodd" d="M10.0001 2.07495C11.5941 2.07495 12.8864 3.36719 12.8864 4.96125C12.8864 5.06715 12.8805 5.17298 12.8689 5.27825L12.6826 6.964C12.5315 8.33152 11.3759 9.36647 10.0001 9.36647C8.62423 9.36647 7.46862 8.33152 7.31751 6.964L7.13124 5.27825C6.95616 3.69383 8.09866 2.26749 9.68307 2.09241C9.78834 2.08078 9.89417 2.07495 10.0001 2.07495Z" fill="#475569"/>
<path fill-rule="evenodd" clip-rule="evenodd" d="M4.16675 17.3624V14.1736C4.16675 12.9182 4.97009 11.8036 6.16108 11.4066L8.54175 10.613H11.4584L13.5295 11.3034L12.8513 11.7961L13.3619 12.4989C13.1992 12.6705 13.0586 12.8631 12.9446 13.0725L12.1189 12.8042L11.8119 13.749L12.6378 14.0173C12.6227 14.1334 12.6149 14.2518 12.6149 14.372C12.6149 14.4922 12.6227 14.6105 12.6378 14.7266L11.8119 14.995L12.1189 15.9398L12.9446 15.6715C13.0586 15.8808 13.1992 16.0735 13.3619 16.245L12.8513 16.9478L13.655 17.5317L14.1652 16.8294C14.3765 16.9303 14.6029 17.0048 14.84 17.0485V17.539C13.3484 17.7747 11.7139 17.9047 10.0001 17.9047C7.89709 17.9047 5.91348 17.7089 4.16675 17.3624ZM14.1652 11.9145L13.7825 11.3877L13.8391 11.4066C14.0989 11.4932 14.3403 11.614 14.559 11.7629C14.423 11.8034 14.2914 11.8542 14.1652 11.9145Z" fill="#475569"/>
<path fill-rule="evenodd" clip-rule="evenodd" d="M14.8398 11.6954V10.8271H15.8333V11.6954C16.0704 11.7391 16.2967 11.8136 16.508 11.9145L17.0183 11.2122L17.822 11.7961L17.3113 12.4989C17.4741 12.6704 17.6147 12.8631 17.7286 13.0724L18.5543 12.8041L18.8613 13.7489L18.0354 14.0173C18.0505 14.1334 18.0583 14.2517 18.0583 14.3719C18.0583 14.4921 18.0505 14.6105 18.0354 14.7266L18.8613 14.9949L18.5543 15.9397L17.7286 15.6714C17.6147 15.8807 17.4741 16.0734 17.3113 16.2449L17.822 16.9478L17.0183 17.5317L16.508 16.8294C16.2967 16.9303 16.0704 17.0047 15.8333 17.0485V17.9167H14.8398V17.0485C14.6027 17.0047 14.3764 16.9303 14.1651 16.8294L13.6548 17.5317L12.8511 16.9478L13.3617 16.2449C13.199 16.0734 13.0584 15.8807 12.9445 15.6714L12.1187 15.9397L11.8118 14.9949L12.6377 14.7266C12.6226 14.6105 12.6148 14.4921 12.6148 14.3719C12.6148 14.2517 12.6226 14.1334 12.6377 14.0173L11.8118 13.7489L12.1187 12.8041L12.9445 13.0724C13.0584 12.8631 13.199 12.6704 13.3617 12.4989L12.8511 11.7961L13.6548 11.2122L14.1651 11.9145C14.3764 11.8136 14.6027 11.7391 14.8398 11.6954ZM15.3365 15.938C16.2015 15.938 16.9026 15.2369 16.9026 14.3719C16.9026 13.507 16.2015 12.8058 15.3365 12.8058C14.4716 12.8058 13.7704 13.507 13.7704 14.3719C13.7704 15.2369 14.4716 15.938 15.3365 15.938Z" fill="#475569"/>
</svg>
