<svg width="18" height="17" viewBox="0 0 18 17" fill="none" xmlns="http://www.w3.org/2000/svg">
<path d="M8.99998 16.3333C9.91665 16.3333 10.6667 15.5833 10.6667 14.6666H7.33332C7.33332 15.5833 8.08332 16.3333 8.99998 16.3333ZM14 11.3333V7.16665C14 4.60831 12.6417 2.46665 10.25 1.89998V1.33331C10.25 0.641646 9.69165 0.083313 8.99998 0.083313C8.30832 0.083313 7.74998 0.641646 7.74998 1.33331V1.89998C5.36665 2.46665 3.99998 4.59998 3.99998 7.16665V11.3333L2.33332 13V13.8333H15.6667V13L14 11.3333ZM12.3333 12.1666H5.66665V7.16665C5.66665 5.09998 6.92498 3.41665 8.99998 3.41665C11.075 3.41665 12.3333 5.09998 12.3333 7.16665V12.1666ZM5.31665 1.39998L4.12498 0.208313C2.12498 1.73331 0.808317 4.08331 0.69165 6.74998H2.35832C2.48332 4.54165 3.61665 2.60831 5.31665 1.39998ZM15.6417 6.74998H17.3083C17.1833 4.08331 15.8667 1.73331 13.875 0.208313L12.6917 1.39998C14.375 2.60831 15.5167 4.54165 15.6417 6.74998Z" fill="#475569"/>
</svg>
