<svg width="40" height="39" viewBox="0 0 40 39" fill="none" xmlns="http://www.w3.org/2000/svg">
<path opacity="0.45" d="M20.0001 39C22.2001 39 24.0001 37.2 24.0001 35H16.0001C16.0001 37.2 17.8001 39 20.0001 39ZM32.0001 17C32.0001 10.86 28.7401 5.72 23.0001 4.36V3C23.0001 1.34 21.6601 0 20.0001 0C18.3401 0 17.0001 1.34 17.0001 3V4.36C11.2801 5.72 8.00006 10.84 8.00006 17V27L4.00006 31V33H36.0001V31L32.0001 27V17ZM28.0001 29H12.0001V17C12.0001 12.04 15.0201 8 20.0001 8C24.9801 8 28.0001 12.04 28.0001 17V29ZM11.1601 3.16L8.30006 0.3C3.50006 3.96 0.340059 9.6 0.0600586 16H4.06006C4.36006 10.7 7.08006 6.06 11.1601 3.16ZM35.9401 16H39.9401C39.6401 9.6 36.4801 3.96 31.7001 0.3L28.8601 3.16C32.9001 6.06 35.6401 10.7 35.9401 16Z" fill="#8CADFF"/>
</svg>
