<svg width="49" height="48" viewBox="0 0 49 48" fill="none" xmlns="http://www.w3.org/2000/svg">
<path d="M0.864598 12.8631C0.939608 5.73722 6.73756 0 13.8639 0H47C48.1046 0 49 0.895431 49 2V35.8757C49 42.5514 43.5517 47.9438 36.8763 47.875L13.5021 47.634C6.32171 47.56 0.561281 41.6783 0.636864 34.4979L0.864598 12.8631Z" fill="#F59E0B"/>
<path d="M0.864598 12.8631C0.939608 5.73722 6.73756 0 13.8639 0H47C48.1046 0 49 0.895431 49 2V35.8757C49 42.5514 43.5517 47.9438 36.8763 47.875L13.5021 47.634C6.32171 47.56 0.561281 41.6783 0.636864 34.4979L0.864598 12.8631Z" fill="url(#paint0_linear)"/>
<mask id="mask0" mask-type="alpha" maskUnits="userSpaceOnUse" x="1" y="0" width="48" height="48">
<path d="M1 12C1 5.37258 6.37258 0 13 0H47C48.1046 0 49 0.895431 49 2V36C49 42.6274 43.6274 48 37 48H13C6.37258 48 1 42.6274 1 36V12Z" fill="white"/>
</mask>
<g mask="url(#mask0)">
<g style="mix-blend-mode:multiply" opacity="0.15">
<path d="M-21.1538 24C-21.1538 10.7452 -10.4086 0 2.84619 0C16.101 0 26.8462 10.7452 26.8462 24C26.8462 37.2548 16.101 48 2.84619 48C-10.4086 48 -21.1538 37.2548 -21.1538 24Z" fill="#F59E0B"/>
</g>
<g style="mix-blend-mode:multiply" opacity="0.15">
<path d="M1 48C1 34.7452 11.7452 24 25 24C38.2548 24 49 34.7452 49 48C49 61.2548 38.2548 72 25 72C11.7452 72 1 61.2548 1 48Z" fill="#F59E0B"/>
</g>
</g>
<path opacity="0.65" fill-rule="evenodd" clip-rule="evenodd" d="M32.6667 29.6667V26.6667H30.6667V29.6667H27.6667V31.6667H30.6667V34.6667H32.6667V31.6667H35.6667V29.6667H32.6667Z" fill="white"/>
<path fill-rule="evenodd" clip-rule="evenodd" d="M13 26.3976C13 25.7364 13.5352 25.2 14.1976 25.2H22.6024C23.2636 25.2 23.8 25.7352 23.8 26.3976V34.8024C23.8 35.4638 23.2638 36 22.6024 36H14.1976C13.8799 36.0003 13.5751 35.8743 13.3504 35.6496C13.1258 35.4249 12.9997 35.1201 13 34.8024V26.3976Z" fill="white"/>
<path fill-rule="evenodd" clip-rule="evenodd" d="M26.2 13.1976C26.2 12.5364 26.7352 12 27.3976 12H35.8024C36.4636 12 37 12.5352 37 13.1976V21.6024C37 22.2638 36.4638 22.8 35.8024 22.8H27.3976C27.0798 22.8003 26.775 22.6742 26.5504 22.4496C26.3257 22.2249 26.1996 21.9201 26.2 21.6024V13.1976Z" fill="white"/>
<path fill-rule="evenodd" clip-rule="evenodd" d="M13 13.1976C13 12.5364 13.5352 12 14.1976 12H22.6024C23.2636 12 23.8 12.5352 23.8 13.1976V21.6024C23.8 22.2638 23.2638 22.8 22.6024 22.8H14.1976C13.8799 22.8003 13.5751 22.6742 13.3504 22.4496C13.1258 22.2249 12.9997 21.9201 13 21.6024V13.1976Z" fill="white"/>
<defs>
<linearGradient id="paint0_linear" x1="24.75" y1="0" x2="24.75" y2="48" gradientUnits="userSpaceOnUse">
<stop stop-color="#FCD34D"/>
<stop offset="1" stop-color="#FBBF24"/>
</linearGradient>
</defs>
</svg>
