<svg width="24" height="24" viewBox="0 0 24 24" fill="none" xmlns="http://www.w3.org/2000/svg">
<g id="03.App/001.Application">
<path id="Shape" opacity="0.65" fill-rule="evenodd" clip-rule="evenodd" d="M17.75 16.25V14H16.25V16.25H14V17.75H16.25V20H17.75V17.75H20V16.25H17.75Z" fill="white"/>
<path id="Path" fill-rule="evenodd" clip-rule="evenodd" d="M3 13.7981C3 13.3022 3.4014 12.8999 3.8982 12.8999H10.2018C10.6977 12.8999 11.1 13.3013 11.1 13.7981V20.1017C11.1 20.5978 10.6979 20.9999 10.2018 20.9999H3.8982C3.65991 21.0001 3.43131 20.9056 3.26281 20.7371C3.09432 20.5686 2.99976 20.34 3 20.1017V13.7981Z" fill="white"/>
<path id="Path_2" fill-rule="evenodd" clip-rule="evenodd" d="M12.8999 3.8982C12.8999 3.4023 13.3013 3 13.7981 3H20.1017C20.5976 3 20.9999 3.4014 20.9999 3.8982V10.2018C20.9999 10.6979 20.5978 11.1 20.1017 11.1H13.7981C13.5598 11.1002 13.3312 11.0057 13.1627 10.8372C12.9942 10.6687 12.8997 10.4401 12.8999 10.2018V3.8982Z" fill="white"/>
<path id="Path_3" fill-rule="evenodd" clip-rule="evenodd" d="M3 3.8982C3 3.4023 3.4014 3 3.8982 3H10.2018C10.6977 3 11.1 3.4014 11.1 3.8982V10.2018C11.1 10.6979 10.6979 11.1 10.2018 11.1H3.8982C3.65991 11.1002 3.43131 11.0057 3.26281 10.8372C3.09432 10.6687 2.99976 10.4401 3 10.2018V3.8982Z" fill="white"/>
</g>
</svg>
