<svg width="28" height="28" viewBox="0 0 28 28" fill="none" xmlns="http://www.w3.org/2000/svg">
<g opacity="0.95">
<path d="M19.285 12.9034L18.0483 11.6667L12.355 17.36L9.88167 14.8867L8.645 16.1234L12.355 19.8334L19.285 12.9034ZM22.1667 3.50002H21V1.16669H18.6667V3.50002H9.33333V1.16669H7V3.50002H5.83333C4.53833 3.50002 3.51167 4.55002 3.51167 5.83335L3.5 22.1667C3.5 23.45 4.53833 24.5 5.83333 24.5H22.1667C23.45 24.5 24.5 23.45 24.5 22.1667V5.83335C24.5 4.55002 23.45 3.50002 22.1667 3.50002ZM22.1667 22.1667H5.83333V9.33335H22.1667V22.1667Z" fill="white"/>
</g>
</svg>
