<svg width="120" height="120" viewBox="0 0 120 120" fill="none" xmlns="http://www.w3.org/2000/svg">
<rect x="20.75" y="28.75" width="70.5" height="78.5" rx="3.25" fill="white" stroke="#CBD5E1" stroke-width="1.5"/>
<rect x="44" y="52" width="44" height="8" rx="2" fill="#E6ECF9"/>
<path d="M41.53 54.8633L40 56.39L38.47 54.8633L38 55.3333L40 57.3333L42 55.3333L41.53 54.8633Z" fill="#CBD5E1"/>
<rect x="44" y="88" width="44" height="8" rx="2" fill="#E6ECF9"/>
<path d="M41.53 90.8633L40 92.39L38.47 90.8633L38 91.3333L40 93.3333L42 91.3333L41.53 90.8633Z" fill="#CBD5E1"/>
<path d="M29.53 42.8633L28 44.39L26.47 42.8633L26 43.3333L28 45.3333L30 43.3333L29.53 42.8633Z" fill="#B5CCFF"/>
<rect x="33" y="41" width="54" height="6" rx="1" fill="#E6ECF9" stroke="#B5CCFF" stroke-width="2"/>
<rect x="52" y="64" width="36" height="8" rx="2" fill="#E6ECF9"/>
<rect x="52" y="76" width="36" height="8" rx="2" fill="#E6ECF9"/>
<rect x="72" y="92" width="22" height="18" fill="white"/>
<path d="M93.6667 92H83.0001L80.3334 89.3333H72.3334C70.8534 89.3333 69.6801 90.52 69.6801 92L69.6667 108C69.6667 109.48 70.8534 110.667 72.3334 110.667H93.6667C95.1467 110.667 96.3334 109.48 96.3334 108V94.6666C96.3334 93.1866 95.1467 92 93.6667 92ZM93.6667 108H72.3334V92H79.2267L81.8934 94.6666H93.6667V108ZM83.0001 102.667H85.6667V105.333H88.3334V102.667H91.0001V100H88.3334V97.3333H85.6667V100H83.0001V102.667Z" fill="#B5CCFF"/>
</svg>
