<svg width="120" height="120" viewBox="0 0 120 120" fill="none" xmlns="http://www.w3.org/2000/svg">
<rect x="26" width="72" height="16" fill="#6280F0"/>
<rect x="16" y="6" width="72" height="96" fill="#F1F3FD"/>
<rect x="28" y="28" width="48" height="12" fill="#E5E9FC"/>
<rect x="28" y="14" width="30" height="8" fill="#FCD34D"/>
<rect x="64" y="14" width="12" height="8" fill="#FCD34D"/>
<rect x="28" y="46" width="48" height="12" fill="#E5E9FC"/>
<rect x="28" y="64" width="48" height="12" fill="#E5E9FC"/>
<rect x="28" y="82" width="48" height="12" fill="#E5E9FC"/>
<rect y="89" width="32" height="1" fill="#ADBBF2"/>
<rect y="95" width="32" height="1" fill="#ADBBF2"/>
<circle opacity="0.2" cx="92" cy="92" r="28" fill="#9FB0F0"/>
<circle opacity="0.4" cx="92" cy="92" r="19.4783" fill="#9FB0F0"/>
<circle cx="92" cy="92" r="9" fill="#9FB0F0"/>
<path d="M92 93L110 100.53V101.51L103.16 104.16L100.52 111H99.54L92 93Z" fill="#FCD34D" stroke="white" stroke-width="2"/>
</svg>
