<svg width="120" height="120" fill="none" xmlns="http://www.w3.org/2000/svg"><path d="M91.445 13.616l-1.212 1.212 1.212 1.213-.404.404-1.213-1.213-1.212 1.213-.404-.404 1.212-1.213-1.212-1.212.404-.404 1.212 1.212 1.213-1.212.404.404z" fill="url(#paint0_linear)"/><path d="M60 6a2 2 0 012-2h40v40a2 2 0 01-2 2H60V6z" fill="#638AFF"/><path fill="#fff" d="M24 10h72v96H24z"/><path fill="#E5E9FC" d="M36 32h48v12H36z"/><path fill="#FCD34D" d="M36 18h30v8H36zM72 18h12v8H72z"/><path fill="#E5E9FC" d="M36 50h48v12H36zM36 68h48v12H36zM36 86h48v12H36z"/><path fill="#ADBBF2" d="M8 81h32v1H8zM8 88h32v1H8zM8 95h32v1H8z"/><path d="M76 87.727A8.727 8.727 0 0184.727 79h21.818c.804 0 1.455.651 1.455 1.454v21.819A8.727 8.727 0 0199.273 111H84.727A8.727 8.727 0 0176 102.273V87.727z" fill="#F59E0B"/><path d="M76 87.727A8.727 8.727 0 0184.727 79h21.818c.804 0 1.455.651 1.455 1.454v21.819A8.727 8.727 0 0199.273 111H84.727A8.727 8.727 0 0176 102.273V87.727z" fill="url(#paint1_linear)"/><mask id="a" maskUnits="userSpaceOnUse" x="76" y="79" width="32" height="32"><path d="M76 87.727A8.727 8.727 0 0184.727 79h21.818c.804 0 1.455.651 1.455 1.454v21.819A8.727 8.727 0 0199.273 111H84.727A8.727 8.727 0 0176 102.273V87.727z" fill="#fff"/></mask><path d="M80.333 91.727a8.394 8.394 0 018.394-8.394h21.818c.62 0 1.122.502 1.122 1.121v21.819a8.394 8.394 0 01-8.394 8.394H88.727a8.394 8.394 0 01-8.394-8.394V91.727z" stroke="url(#paint2_linear)" stroke-width=".667"/><rect x="83.273" y="92.091" width="17.454" height="2.909" rx="1.455" fill="#fff"/><rect x="90.545" y="102.273" width="17.454" height="2.909" rx="1.455" transform="rotate(-90 90.545 102.273)" fill="#fff"/><defs><linearGradient id="paint0_linear" x1="88.414" y1="13.414" x2="91.243" y2="16.243" gradientUnits="userSpaceOnUse"><stop stop-color="#A5B4FC"/><stop offset="1" stop-color="#818CF8"/></linearGradient><linearGradient id="paint1_linear" x1="92" y1="79" x2="92" y2="111" gradientUnits="userSpaceOnUse"><stop stop-color="#FCD34D"/><stop offset="1" stop-color="#FBBF24"/></linearGradient><linearGradient id="paint2_linear" x1="96" y1="83" x2="96" y2="115" gradientUnits="userSpaceOnUse"><stop stop-color="#FCD34D"/><stop offset="1" stop-color="#FBBF24"/></linearGradient></defs></svg>
