<?xml version="1.0" standalone="no"?>
<!DOCTYPE svg PUBLIC "-//W3C//DTD SVG 20010904//EN"
 "http://www.w3.org/TR/2001/REC-SVG-20010904/DTD/svg10.dtd">
<svg version="1.0" xmlns="http://www.w3.org/2000/svg"
 width="2768.000000pt" height="693.000000pt" viewBox="0 0 2768.000000 693.000000"
 preserveAspectRatio="xMidYMid meet">

<g transform="translate(0.000000,693.000000) scale(0.100000,-0.100000)"
fill="#fff" stroke="none">
<path d="M2100 4555 c-248 -51 -473 -228 -580 -456 -17 -37 -139 -463 -293
-1024 l-264 -960 1285 -3 c707 -1 1286 -1 1288 1 1 1 32 110 69 242 36 132 68
248 71 258 5 16 -36 17 -770 17 -427 0 -776 2 -776 5 0 5 100 366 116 417 5
17 53 18 782 20 l777 3 62 225 c34 124 65 237 68 253 l7 27 -777 0 c-745 0
-776 1 -771 18 4 10 24 84 46 165 51 191 69 224 143 264 30 17 87 18 759 21
l727 3 12 42 c19 73 120 441 125 460 5 16 -48 17 -1018 16 -808 -1 -1037 -4
-1088 -14z"/>
<path d="M4311 3353 c-184 -670 -337 -1224 -339 -1231 -3 -10 100 -12 509 -10
l513 3 192 699 c106 384 194 700 196 701 2 2 79 -229 172 -513 94 -284 187
-554 207 -598 67 -143 145 -221 267 -267 55 -20 72 -21 451 -22 l395 0 337
1225 c186 674 338 1226 339 1228 0 1 -231 2 -512 2 l-513 0 -189 -690 c-104
-380 -192 -690 -195 -690 -3 0 -82 228 -175 508 -92 279 -185 543 -207 588
-41 87 -110 172 -170 210 -21 13 -66 33 -101 46 -61 22 -78 23 -453 26 l-390
3 -334 -1218z"/>
<path d="M8478 4560 c-232 -39 -472 -215 -581 -428 -41 -79 -74 -192 -307
-1038 -143 -522 -263 -957 -266 -967 -5 -16 22 -17 507 -15 l513 3 130 477
131 478 761 0 762 0 21 78 c11 42 43 157 69 255 l49 177 -759 0 c-417 0 -758
3 -758 7 0 23 85 314 101 345 18 35 62 75 104 94 11 5 346 11 745 14 l725 5
43 155 c23 85 55 203 71 263 l29 107 -1021 -1 c-562 -1 -1043 -5 -1069 -9z"/>
<path d="M10661 3352 c-184 -669 -336 -1223 -339 -1229 -3 -10 108 -13 535
-13 l539 0 337 1223 c185 672 337 1226 337 1230 0 4 -242 7 -537 7 l-538 0
-334 -1218z"/>
</g>
<g transform="translate(0.000000,693.000000) scale(0.100000,-0.100000)"
fill="#cecfd1" stroke="none">
<path d="M14218 4418 l-3 -153 -588 -3 -587 -2 2 -763 3 -762 588 -3 587 -2 0
-310 0 -310 240 0 240 0 0 309 0 309 483 4 c461 4 484 5 539 25 77 29 122 65
150 121 l23 47 3 667 3 668 -598 2 -598 3 -3 153 -3 152 -239 0 -239 0 -3
-152z m0 -915 l-3 -398 -352 -3 -353 -2 0 400 0 400 355 0 355 0 -2 -397z
m1222 43 c0 -220 -4 -364 -10 -383 -20 -56 -31 -58 -394 -58 l-331 0 -3 398
-2 397 370 0 370 0 0 -354z"/>
<path d="M24910 4510 l0 -60 -555 0 -555 0 0 55 0 55 -250 0 -250 0 0 -55 0
-55 -215 0 -215 0 2 -162 3 -163 213 -3 212 -2 0 -30 0 -30 250 0 250 0 0 30
0 30 555 0 555 0 0 -30 0 -30 250 0 250 0 0 30 0 30 195 0 195 0 0 165 0 165
-195 0 -195 0 0 60 0 60 -250 0 -250 0 0 -60z"/>
<path d="M16360 3345 l0 -1206 1288 3 c1209 3 1290 4 1332 21 72 29 118 64
142 110 l23 42 3 1118 2 1117 -1395 0 -1395 0 0 -1205z m2320 22 l0 -854 -21
-19 c-20 -18 -52 -19 -935 -22 l-914 -2 0 875 0 875 935 0 935 0 0 -853z"/>
<path d="M16930 3945 l0 -155 300 0 301 0 -3 -137 -3 -138 -262 -3 -263 -2 0
-150 0 -150 265 0 265 0 0 -150 0 -150 -300 0 -300 0 0 -155 0 -155 816 0 817
0 -7 61 c-3 34 -6 133 -6 220 l0 159 -165 0 -165 0 0 -65 0 -65 -125 0 -125 0
0 150 0 150 260 0 260 0 0 150 0 150 -260 0 -260 0 0 140 0 140 293 2 292 3 3
153 3 152 -816 0 -815 0 0 -155z"/>
<path d="M19700 3765 l0 -775 1227 0 c1386 0 1309 -4 1388 74 23 23 46 59 53
82 9 31 12 211 12 718 l0 676 -1340 0 -1340 0 0 -775z m2248 65 c2 -228 0
-434 -3 -458 -4 -24 -15 -52 -26 -63 -18 -18 -43 -19 -899 -19 l-880 0 0 480
0 480 903 -2 902 -3 3 -415z"/>
<path d="M20808 4108 l-3 -53 -277 -3 -278 -2 0 -120 0 -120 231 0 c133 0 228
-4 225 -9 -3 -5 -126 -94 -273 -197 l-267 -189 44 -3 c25 -2 140 -2 255 0 169
3 217 7 248 20 20 10 102 66 180 126 l143 110 134 -109 c77 -63 153 -115 179
-125 37 -14 93 -18 291 -21 237 -4 244 -3 223 14 -13 10 -126 97 -252 193
-127 96 -230 178 -230 183 -1 4 98 7 219 7 l220 0 0 120 0 120 -270 0 -270 0
0 55 0 55 -234 0 -235 0 -3 -52z"/>
<path d="M23690 3925 l0 -95 -410 0 -410 0 0 -165 0 -165 410 0 410 0 0 -110
0 -110 -410 0 -410 0 0 -165 0 -165 410 0 410 0 0 -95 0 -95 -410 0 -410 0 0
-160 0 -160 410 0 410 0 0 -155 0 -155 235 0 235 0 -2 943 -3 942 -232 3 -233
2 0 -95z"/>
<path d="M24510 3075 l0 -945 230 0 230 0 0 155 0 155 415 0 415 0 0 160 0
160 -415 0 -415 0 0 100 0 100 415 0 415 0 0 160 0 160 -415 0 -415 0 0 115 0
115 415 0 415 0 0 160 0 160 -415 0 -415 0 0 95 0 95 -230 0 -230 0 0 -945z"/>
<path d="M19746 2903 c-3 -10 -42 -178 -86 -373 -44 -195 -83 -363 -86 -372
-5 -17 8 -18 171 -18 221 0 261 13 306 102 15 30 129 613 129 663 0 13 -30 15
-214 15 -196 0 -215 -2 -220 -17z"/>
<path d="M20302 2633 c3 -274 4 -290 25 -329 39 -73 103 -119 208 -150 54 -16
121 -18 678 -21 l617 -4 0 151 0 150 -500 0 c-344 0 -507 3 -523 11 -42 19
-47 47 -47 269 l0 210 -231 0 -230 0 3 -287z"/>
<path d="M21040 2803 c0 -100 3 -123 20 -151 40 -66 160 -120 315 -141 42 -6
81 -11 86 -11 5 0 9 88 9 210 l0 210 -215 0 -215 0 0 -117z"/>
<path d="M21800 2913 c0 -5 45 -144 101 -311 116 -348 133 -381 223 -427 58
-29 65 -30 217 -33 l158 -4 -34 109 c-19 59 -74 235 -122 390 l-88 283 -227 0
c-126 0 -228 -3 -228 -7z"/>
</g>
</svg>
