<svg width="238" height="178" viewBox="0 0 238 178" fill="none" xmlns="http://www.w3.org/2000/svg">
<path d="M0 8C0 3.58172 3.58172 0 8 0H230C234.418 0 238 3.58172 238 8V178H0V8Z" fill="#F8FAFC"/>
<g filter="url(#filter0_d_2610_8702)">
<path d="M181.215 42H44.7846C41.5899 42 39 44.5899 39 47.7846V132.215C39 135.41 41.5899 138 44.7846 138H181.215C184.41 138 187 135.41 187 132.215V47.7846C187 44.5899 184.41 42 181.215 42Z" fill="#E2E8F0"/>
</g>
<path d="M184.831 42H40.4462C39.6475 42 39 42.6475 39 43.4462V48.6462H187V44.1692C187 42.9712 186.029 42 184.831 42Z" fill="url(#paint0_linear_2610_8702)"/>
<path d="M43.6014 46.4302C44.2024 46.4302 44.6897 45.9343 44.6897 45.3225C44.6897 44.7108 44.2024 44.2148 43.6014 44.2148C43.0004 44.2148 42.5132 44.7108 42.5132 45.3225C42.5132 45.9343 43.0004 46.4302 43.6014 46.4302Z" fill="#E2E8F0"/>
<path d="M48.0331 46.4302C48.6341 46.4302 49.1213 45.9343 49.1213 45.3225C49.1213 44.7108 48.6341 44.2148 48.0331 44.2148C47.432 44.2148 46.9448 44.7108 46.9448 45.3225C46.9448 45.9343 47.432 46.4302 48.0331 46.4302Z" fill="#E2E8F0"/>
<path d="M52.4642 46.4302C53.0652 46.4302 53.5524 45.9343 53.5524 45.3225C53.5524 44.7108 53.0652 44.2148 52.4642 44.2148C51.8632 44.2148 51.376 44.7108 51.376 45.3225C51.376 45.9343 51.8632 46.4302 52.4642 46.4302Z" fill="#E2E8F0"/>
<path d="M179.75 51.6016H46.2501C45.4514 51.6016 44.804 52.249 44.804 53.0477V132.125C44.804 132.923 45.4514 133.571 46.2501 133.571H179.75C180.549 133.571 181.196 132.923 181.196 132.125V53.0477C181.196 52.249 180.549 51.6016 179.75 51.6016Z" fill="white"/>
<path d="M67.2942 51.6016H46.2501C45.4514 51.6016 44.804 52.249 44.804 53.0477V132.121C44.804 132.922 45.4531 133.571 46.254 133.571H67.2942V51.6016Z" fill="#F1F5F9"/>
<rect x="47.7058" y="63.416" width="15.9608" height="2.95385" rx="1.47692" fill="#CBD5E1"/>
<rect x="47.7058" y="69.3242" width="15.9608" height="2.95385" rx="1.47692" fill="#CBD5E1"/>
<rect x="47.7058" y="75.2324" width="15.9608" height="2.95385" rx="1.47692" fill="#CBD5E1"/>
<rect x="47.7058" y="81.1387" width="15.9608" height="2.95385" rx="1.47692" fill="#CBD5E1"/>
<rect x="71.15" y="61.15" width="106.7" height="23.7" rx="1.85" stroke="#CBD5E1" stroke-width="0.3" stroke-dasharray="0.6 0.6"/>
<path d="M123.059 71H111.446C110.647 71 110 71.6475 110 72.4462V73.9846C110 74.7833 110.647 75.4308 111.446 75.4308H121.613C122.411 75.4308 123.059 74.7833 123.059 73.9846V71Z" fill="#94A3B8"/>
<path d="M139.569 71H127.956C127.157 71 126.51 71.6475 126.51 72.4462V73.9846C126.51 74.7833 127.157 75.4308 127.956 75.4308H138.122C138.921 75.4308 139.569 74.7833 139.569 73.9846V71Z" fill="#CBD5E1"/>
<path d="M111 90H72C71.4477 90 71 90.4477 71 91V111C71 111.552 71.4477 112 72 112H111C111.552 112 112 111.552 112 111V91C112 90.4477 111.552 90 111 90Z" fill="#F1F5F9"/>
<path d="M177 90H115C114.448 90 114 90.4477 114 91V111C114 111.552 114.448 112 115 112H177C177.552 112 178 111.552 178 111V91C178 90.4477 177.552 90 177 90Z" fill="#F1F5F9"/>
<path d="M177 114H115C114.448 114 114 114.448 114 115V127C114 127.552 114.448 128 115 128H177C177.552 128 178 127.552 178 127V115C178 114.448 177.552 114 177 114Z" fill="#F1F5F9"/>
<g filter="url(#filter1_d_2610_8702)">
<path d="M167 125.073C167 120.614 170.614 117 175.073 117H190.93C195.387 117 199 120.613 199 125.07V140.927C199 145.386 195.386 149 190.927 149H175.073C170.614 149 167 145.386 167 140.927V125.073Z" fill="white"/>
<path d="M167 125.073C167 120.614 170.614 117 175.073 117H190.93C195.387 117 199 120.613 199 125.07V140.927C199 145.386 195.386 149 190.927 149H175.073C170.614 149 167 145.386 167 140.927V125.073Z" fill="white"/>
<mask id="mask0_2610_8702" style="mask-type:alpha" maskUnits="userSpaceOnUse" x="167" y="117" width="32" height="32">
<path d="M167 125.073C167 120.614 170.614 117 175.073 117H197.655C198.398 117 199 117.602 199 118.345V140.927C199 145.386 195.386 149 190.927 149H175.073C170.614 149 167 145.386 167 140.927V125.073Z" fill="white"/>
</mask>
<g mask="url(#mask0_2610_8702)">
<g style="mix-blend-mode:multiply" opacity="0.15">
<path d="M152.231 133C152.231 124.163 159.394 117 168.231 117C177.067 117 184.231 124.163 184.231 133C184.231 141.837 177.067 149 168.231 149C159.394 149 152.231 141.837 152.231 133Z" fill="white"/>
</g>
<g style="mix-blend-mode:multiply" opacity="0.15">
<path d="M167 149C167 140.163 174.163 133 183 133C191.837 133 199 140.163 199 149C199 157.836 191.837 165 183 165C174.163 165 167 157.836 167 149Z" fill="white"/>
</g>
</g>
</g>
<path d="M177.272 138.728C176.063 137.519 176.063 135.553 177.272 134.344L180.101 131.515L178.757 130.172L175.929 133C173.977 134.952 173.977 138.12 175.929 140.071C177.88 142.023 181.048 142.023 183 140.071L185.828 137.243L184.485 135.899L181.656 138.728C180.447 139.937 178.481 139.937 177.272 138.728ZM180.879 136.536L186.535 130.879L185.121 129.465L179.464 135.121L180.879 136.536ZM183 125.929L180.171 128.757L181.515 130.101L184.343 127.273C185.553 126.063 187.518 126.063 188.727 127.273C189.937 128.482 189.937 130.447 188.727 131.657L185.899 134.485L187.243 135.829L190.071 133C192.023 131.048 192.023 127.881 190.071 125.929C188.119 123.977 184.952 123.977 183 125.929Z" fill="#64748B"/>
<path d="M110.905 115.222H72.0954C71.8049 115.222 71.5263 115.105 71.3208 114.896C71.1154 114.688 71 114.406 71 114.111C71 113.816 71.1154 113.534 71.3208 113.325C71.5263 113.117 71.8049 113 72.0954 113H110.905C111.195 113 111.474 113.117 111.679 113.325C111.885 113.534 112 113.816 112 114.111C112 114.406 111.885 114.688 111.679 114.896C111.474 115.105 111.195 115.222 110.905 115.222Z" fill="#F1F5F9"/>
<path d="M110.905 119.222H72.0954C71.8049 119.222 71.5263 119.105 71.3208 118.896C71.1154 118.688 71 118.406 71 118.111C71 117.816 71.1154 117.534 71.3208 117.325C71.5263 117.117 71.8049 117 72.0954 117H110.905C111.195 117 111.474 117.117 111.679 117.325C111.885 117.534 112 117.816 112 118.111C112 118.406 111.885 118.688 111.679 118.896C111.474 119.105 111.195 119.222 110.905 119.222Z" fill="#F1F5F9"/>
<path d="M110.905 123.222H72.0954C71.8049 123.222 71.5263 123.105 71.3208 122.896C71.1154 122.688 71 122.406 71 122.111C71 121.816 71.1154 121.534 71.3208 121.325C71.5263 121.117 71.8049 121 72.0954 121H110.905C111.195 121 111.474 121.117 111.679 121.325C111.885 121.534 112 121.816 112 122.111C112 122.406 111.885 122.688 111.679 122.896C111.474 123.105 111.195 123.222 110.905 123.222Z" fill="#F1F5F9"/>
<path d="M110.905 127.222H72.0954C71.8049 127.222 71.5263 127.105 71.3208 126.896C71.1154 126.688 71 126.406 71 126.111C71 125.816 71.1154 125.534 71.3208 125.325C71.5263 125.117 71.8049 125 72.0954 125H110.905C111.195 125 111.474 125.117 111.679 125.325C111.885 125.534 112 125.816 112 126.111C112 126.406 111.885 126.688 111.679 126.896C111.474 127.105 111.195 127.222 110.905 127.222Z" fill="#F1F5F9"/>
<path d="M187.525 30.839C188.295 30.848 188.766 31.687 188.374 32.349L180.148 46.2159C179.756 46.878 178.794 46.8667 178.416 46.1955L170.52 32.1388C170.143 31.4677 170.634 30.64 171.404 30.6491L187.525 30.839Z" fill="#E2E8F0"/>
<path d="M48.839 145.719L53.3692 136.029L47.0401 127.207L36.142 127.975L31.6119 137.665L37.9797 146.588L48.839 145.719Z" fill="#CBD5E1"/>
<rect x="75.5" y="58.5" width="108" height="17" rx="1.5" fill="white" stroke="#E2E8F0"/>
<path d="M85.3994 63.3H87.1133V67.9436C87.1133 68.497 86.9977 68.9657 86.7666 69.3499C86.5355 69.7307 86.2116 70.0188 85.7949 70.2141C85.3783 70.4094 84.8883 70.5071 84.3252 70.5071C83.7686 70.5071 83.2786 70.4094 82.8555 70.2141C82.4355 70.0188 82.1068 69.7307 81.8691 69.3499C81.6348 68.9657 81.5176 68.497 81.5176 67.9436V63.3H83.2363V67.9436C83.2363 68.2366 83.2786 68.4758 83.3633 68.6614C83.4479 68.8437 83.5716 68.9771 83.7344 69.0618C83.8971 69.1464 84.0941 69.1887 84.3252 69.1887C84.5596 69.1887 84.7565 69.1464 84.916 69.0618C85.0755 68.9771 85.196 68.8437 85.2773 68.6614C85.3587 68.4758 85.3994 68.2366 85.3994 67.9436V63.3Z" fill="#94A3B8"/>
<path d="M88.1924 63.3H90.9902C91.5371 63.3 92.0124 63.3814 92.416 63.5442C92.8197 63.7069 93.1305 63.9478 93.3486 64.2668C93.57 64.5859 93.6807 64.9797 93.6807 65.4485C93.6807 65.8554 93.6172 66.1956 93.4902 66.469C93.3633 66.7424 93.1859 66.9687 92.958 67.1477C92.7334 67.3235 92.4714 67.4683 92.1719 67.5823L91.6104 67.8997H89.2617L89.252 66.5764H90.9902C91.2083 66.5764 91.389 66.5374 91.5322 66.4592C91.6755 66.3811 91.7829 66.2704 91.8545 66.1272C91.9294 65.9807 91.9668 65.8066 91.9668 65.6047C91.9668 65.3997 91.9294 65.2239 91.8545 65.0774C91.7796 64.9309 91.6689 64.8186 91.5225 64.7405C91.3792 64.6624 91.2018 64.6233 90.9902 64.6233H89.9062V70.4094H88.1924V63.3ZM92.084 70.4094L90.5117 67.2649L92.3281 67.2551L93.9199 70.3362V70.4094H92.084Z" fill="#94A3B8"/>
<path d="M99.4131 69.0911V70.4094H95.8193V69.0911H99.4131ZM96.4297 63.3V70.4094H94.7158V63.3H96.4297Z" fill="#94A3B8"/>
<path d="M173 57.8452H170.25V56.25H178.75V57.8452H176H175.75V58.0952V75.9048V76.1548H176H178.75V77.75H170.25V76.1548H173H173.25V75.9048V58.0952V57.8452H173Z" fill="#94A3B8" stroke="white" stroke-width="0.5"/>
<defs>
<filter id="filter0_d_2610_8702" x="18.7538" y="27.5385" width="188.492" height="136.492" filterUnits="userSpaceOnUse" color-interpolation-filters="sRGB">
<feFlood flood-opacity="0" result="BackgroundImageFix"/>
<feColorMatrix in="SourceAlpha" type="matrix" values="0 0 0 0 0 0 0 0 0 0 0 0 0 0 0 0 0 0 127 0" result="hardAlpha"/>
<feMorphology radius="2.89231" operator="dilate" in="SourceAlpha" result="effect1_dropShadow_2610_8702"/>
<feOffset dy="5.78462"/>
<feGaussianBlur stdDeviation="8.67692"/>
<feColorMatrix type="matrix" values="0 0 0 0 0.580392 0 0 0 0 0.639216 0 0 0 0 0.721569 0 0 0 0.25 0"/>
<feBlend mode="normal" in2="BackgroundImageFix" result="effect1_dropShadow_2610_8702"/>
<feBlend mode="normal" in="SourceGraphic" in2="effect1_dropShadow_2610_8702" result="shape"/>
</filter>
<filter id="filter1_d_2610_8702" x="148.164" y="103.545" width="69.6727" height="69.6727" filterUnits="userSpaceOnUse" color-interpolation-filters="sRGB">
<feFlood flood-opacity="0" result="BackgroundImageFix"/>
<feColorMatrix in="SourceAlpha" type="matrix" values="0 0 0 0 0 0 0 0 0 0 0 0 0 0 0 0 0 0 127 0" result="hardAlpha"/>
<feMorphology radius="2.69091" operator="dilate" in="SourceAlpha" result="effect1_dropShadow_2610_8702"/>
<feOffset dy="5.38182"/>
<feGaussianBlur stdDeviation="8.07273"/>
<feColorMatrix type="matrix" values="0 0 0 0 0.580392 0 0 0 0 0.639216 0 0 0 0 0.721569 0 0 0 0.25 0"/>
<feBlend mode="normal" in2="BackgroundImageFix" result="effect1_dropShadow_2610_8702"/>
<feBlend mode="normal" in="SourceGraphic" in2="effect1_dropShadow_2610_8702" result="shape"/>
</filter>
<linearGradient id="paint0_linear_2610_8702" x1="39" y1="45.323" x2="187" y2="45.323" gradientUnits="userSpaceOnUse">
<stop stop-color="#638AFF"/>
<stop offset="1" stop-color="#375FF3"/>
</linearGradient>
</defs>
</svg>
