<svg width="238" height="178" viewBox="0 0 238 178" fill="none" xmlns="http://www.w3.org/2000/svg">
<g clip-path="url(#clip0)">
<path d="M0 8C0 3.58172 3.58172 0 8 0H230C234.418 0 238 3.58172 238 8V178H0V8Z" fill="#F8FAFC"/>
<circle cx="183.6" cy="26.5996" r="3.59961" fill="url(#paint0_linear)"/>
<g filter="url(#filter0_f)">
<circle cx="183.6" cy="26.5996" r="3.59961" fill="url(#paint1_linear)"/>
</g>
<circle cx="32" cy="148" r="4" fill="url(#paint2_linear)"/>
<g filter="url(#filter1_f)">
<circle cx="32" cy="148" r="4" fill="url(#paint3_linear)"/>
</g>
<path d="M58.1269 143.517L38.535 123.926C38.4138 123.804 38.3457 123.64 38.3457 123.468C38.3457 123.297 38.4138 123.133 38.535 123.011C38.6563 122.89 38.8207 122.822 38.9922 122.822C39.1637 122.822 39.3281 122.89 39.4493 123.011L59.0411 142.603C59.1624 142.724 59.2305 142.889 59.2305 143.06C59.2305 143.232 59.1624 143.396 59.0411 143.517C58.9199 143.639 58.7555 143.707 58.584 143.707C58.4125 143.707 58.2481 143.639 58.1269 143.517Z" fill="#E6E6E6"/>
<path d="M60.7382 140.905L41.1464 121.314C41.0251 121.192 40.957 121.028 40.957 120.856C40.957 120.685 41.0251 120.521 41.1464 120.399C41.2676 120.278 41.4321 120.21 41.6035 120.21C41.775 120.21 41.9394 120.278 42.0607 120.399L61.6525 139.991C61.7737 140.112 61.8418 140.277 61.8418 140.448C61.8418 140.62 61.7737 140.784 61.6525 140.905C61.5312 141.027 61.3668 141.095 61.1953 141.095C61.0239 141.095 60.8594 141.027 60.7382 140.905Z" fill="#E6E6E6"/>
<path d="M55.5136 146.13L35.9218 126.538C35.8005 126.417 35.7324 126.253 35.7324 126.081C35.7324 125.91 35.8005 125.745 35.9218 125.624C36.043 125.503 36.2074 125.435 36.3789 125.435C36.5504 125.435 36.7148 125.503 36.836 125.624L56.4279 145.216C56.5491 145.337 56.6172 145.502 56.6172 145.673C56.6172 145.845 56.5491 146.009 56.4279 146.13C56.3066 146.251 56.1422 146.32 55.9707 146.32C55.7993 146.32 55.6348 146.251 55.5136 146.13Z" fill="#E6E6E6"/>
<path d="M52.9003 148.742L33.3085 129.15C33.1872 129.029 33.1191 128.865 33.1191 128.693C33.1191 128.522 33.1872 128.357 33.3085 128.236C33.4297 128.115 33.5942 128.047 33.7656 128.047C33.9371 128.047 34.1015 128.115 34.2228 128.236L53.8146 147.828C53.9358 147.949 54.0039 148.114 54.0039 148.285C54.0039 148.457 53.9358 148.621 53.8146 148.742C53.6933 148.864 53.5289 148.932 53.3574 148.932C53.186 148.932 53.0215 148.864 52.9003 148.742Z" fill="#E6E6E6"/>
<path d="M50.289 151.354L30.6972 131.763C30.5759 131.641 30.5078 131.477 30.5078 131.305C30.5078 131.134 30.5759 130.969 30.6972 130.848C30.8184 130.727 30.9828 130.659 31.1543 130.659C31.3258 130.659 31.4902 130.727 31.6114 130.848L51.2033 150.44C51.3245 150.561 51.3926 150.726 51.3926 150.897C51.3926 151.069 51.3245 151.233 51.2033 151.354C51.082 151.476 50.9176 151.544 50.7461 151.544C50.5746 151.544 50.4102 151.476 50.289 151.354Z" fill="#E6E6E6"/>
<path d="M47.6776 153.966L28.0858 134.375C27.9646 134.253 27.8965 134.089 27.8965 133.917C27.8965 133.746 27.9646 133.582 28.0858 133.46C28.2071 133.339 28.3715 133.271 28.543 133.271C28.7144 133.271 28.8789 133.339 29.0001 133.46L48.5919 153.052C48.7132 153.173 48.7813 153.338 48.7813 153.509C48.7813 153.681 48.7132 153.845 48.5919 153.966C48.4707 154.088 48.3062 154.156 48.1348 154.156C47.9633 154.156 47.7989 154.088 47.6776 153.966Z" fill="#E6E6E6"/>
<circle cx="45.1857" cy="42.1857" r="10.1857" fill="url(#paint4_linear)"/>
<g opacity="0.45" filter="url(#filter2_f)">
<circle cx="45.1857" cy="42.1857" r="10.1857" fill="#F59E0B"/>
</g>
<g filter="url(#filter3_d)">
<path d="M187.215 42.1992H50.7846C47.5899 42.1992 45 44.7891 45 47.9838V132.415C45 135.609 47.5899 138.199 50.7846 138.199H187.215C190.41 138.199 193 135.609 193 132.415V47.9838C193 44.7891 190.41 42.1992 187.215 42.1992Z" fill="#E2E8F0"/>
</g>
<g filter="url(#filter4_d)">
<path d="M190.831 42.1992H46.4462C45.6475 42.1992 45 42.8467 45 43.6454V48.8454H193V44.3684C193 43.1704 192.029 42.1992 190.831 42.1992Z" fill="url(#paint5_linear)"/>
</g>
<path d="M49.6019 46.6292C50.2029 46.6292 50.6901 46.1333 50.6901 45.5215C50.6901 44.9098 50.2029 44.4138 49.6019 44.4138C49.0009 44.4138 48.5137 44.9098 48.5137 45.5215C48.5137 46.1333 49.0009 46.6292 49.6019 46.6292Z" fill="#E2E8F0"/>
<path d="M54.0335 46.6292C54.6346 46.6292 55.1218 46.1333 55.1218 45.5215C55.1218 44.9098 54.6346 44.4138 54.0335 44.4138C53.4325 44.4138 52.9453 44.9098 52.9453 45.5215C52.9453 46.1333 53.4325 46.6292 54.0335 46.6292Z" fill="#E2E8F0"/>
<path d="M58.4632 46.6292C59.0643 46.6292 59.5515 46.1333 59.5515 45.5215C59.5515 44.9098 59.0643 44.4138 58.4632 44.4138C57.8622 44.4138 57.375 44.9098 57.375 45.5215C57.375 46.1333 57.8622 46.6292 58.4632 46.6292Z" fill="#E2E8F0"/>
<path d="M185.946 51.8015H52.4462C51.6475 51.8015 51 52.449 51 53.2477V132.325C51 133.123 51.6475 133.771 52.4462 133.771H185.946C186.745 133.771 187.392 133.123 187.392 132.325V53.2477C187.392 52.449 186.745 51.8015 185.946 51.8015Z" fill="white"/>
<path d="M89.2541 56.9685H77.6415C76.8428 56.9685 76.1953 57.616 76.1953 58.4147V59.9531C76.1953 60.7518 76.8428 61.3993 77.6415 61.3993H87.808C88.6067 61.3993 89.2541 60.7518 89.2541 59.9531V56.9685Z" fill="#94A3B8"/>
<path d="M103.764 56.9685H92.1512C91.3525 56.9685 90.7051 57.616 90.7051 58.4147V59.9531C90.7051 60.7518 91.3525 61.3993 92.1512 61.3993H102.318C103.116 61.3993 103.764 60.7518 103.764 59.9531V56.9685Z" fill="#CBD5E1"/>
<path d="M73.2949 51.8015H52.2508C51.4522 51.8015 50.8047 52.449 50.8047 53.2477V132.321C50.8047 133.122 51.4539 133.771 52.2547 133.771H73.2949V51.8015Z" fill="#F1F5F9"/>
<g filter="url(#filter5_d)">
<rect x="53.7051" y="63.6145" width="15.9608" height="2.95385" rx="1.47692" fill="#375FF3"/>
</g>
<rect x="53.7051" y="69.5229" width="15.9608" height="2.95385" rx="1.47692" fill="#CBD5E1"/>
<rect x="53.7051" y="75.4314" width="15.9608" height="2.95385" rx="1.47692" fill="#CBD5E1"/>
<rect x="53.7051" y="81.3379" width="15.9608" height="2.95385" rx="1.47692" fill="#CBD5E1"/>
<g filter="url(#filter6_i)">
<rect x="76.1953" y="65.0896" width="107.373" height="4.43077" fill="white"/>
</g>
<rect x="77.6465" y="66.5703" width="7.2549" height="1.47692" rx="0.723077" fill="#E2E8F0"/>
<rect x="101.588" y="66.5703" width="7.2549" height="1.47692" rx="0.723077" fill="#E2E8F0"/>
<rect x="121.176" y="66.5703" width="20.3137" height="1.47692" rx="0.723077" fill="#E2E8F0"/>
<rect x="158.176" y="66.5703" width="17.4118" height="1.47692" rx="0.723077" fill="#E2E8F0"/>
<g filter="url(#filter7_i)">
<rect x="76.1953" y="69.5229" width="107.373" height="5.90769" fill="white"/>
</g>
<rect x="77.6465" y="71.7371" width="7.2549" height="1.47692" rx="0.723077" fill="#638AFF"/>
<rect x="101.588" y="71.7371" width="7.2549" height="1.47692" rx="0.723077" fill="#CBD5E1"/>
<rect x="121.176" y="71.7371" width="20.3137" height="1.47692" rx="0.723077" fill="#CBD5E1"/>
<rect x="158.176" y="71.7371" width="17.4118" height="1.47692" rx="0.723077" fill="#CBD5E1"/>
<g filter="url(#filter8_i)">
<rect x="76.1953" y="81.3379" width="107.373" height="5.90769" fill="white"/>
</g>
<rect x="77.6465" y="83.5544" width="7.2549" height="1.47692" rx="0.723077" fill="#638AFF"/>
<rect x="101.588" y="83.5544" width="7.2549" height="1.47692" rx="0.723077" fill="#CBD5E1"/>
<rect x="121.176" y="83.5544" width="20.3137" height="1.47692" rx="0.723077" fill="#CBD5E1"/>
<rect x="158.176" y="83.5544" width="17.4118" height="1.47692" rx="0.723077" fill="#CBD5E1"/>
<g filter="url(#filter9_i)">
<rect x="76.1953" y="75.4314" width="107.373" height="5.90769" fill="white"/>
</g>
<rect x="77.6465" y="77.6438" width="7.2549" height="1.47692" rx="0.723077" fill="#638AFF"/>
<rect x="101.588" y="77.6438" width="7.2549" height="1.47692" rx="0.723077" fill="#CBD5E1"/>
<rect x="121.176" y="77.6438" width="20.3137" height="1.47692" rx="0.723077" fill="#CBD5E1"/>
<rect x="158.176" y="77.6438" width="17.4118" height="1.47692" rx="0.723077" fill="#CBD5E1"/>
<g filter="url(#filter10_i)">
<rect x="76.1953" y="87.2463" width="107.373" height="5.90769" fill="white"/>
</g>
<rect x="77.6465" y="89.4612" width="7.2549" height="1.47692" rx="0.723077" fill="#638AFF"/>
<rect x="101.588" y="89.4612" width="7.2549" height="1.47692" rx="0.723077" fill="#CBD5E1"/>
<rect x="121.176" y="89.4612" width="20.3137" height="1.47692" rx="0.723077" fill="#CBD5E1"/>
<rect x="158.176" y="89.4612" width="17.4118" height="1.47692" rx="0.723077" fill="#CBD5E1"/>
<g filter="url(#filter11_i)">
<rect x="76.1953" y="93.1509" width="107.373" height="5.90769" fill="white"/>
</g>
<rect x="77.6465" y="95.3699" width="7.2549" height="1.47692" rx="0.723077" fill="#638AFF"/>
<rect x="101.588" y="95.3699" width="7.2549" height="1.47692" rx="0.723077" fill="#CBD5E1"/>
<rect x="121.176" y="95.3699" width="20.3137" height="1.47692" rx="0.723077" fill="#CBD5E1"/>
<rect x="158.176" y="95.3699" width="17.4118" height="1.47692" rx="0.723077" fill="#CBD5E1"/>
<g filter="url(#filter12_i)">
<rect x="76.1953" y="104.968" width="107.373" height="5.90769" fill="white"/>
</g>
<rect x="77.6465" y="107.184" width="7.2549" height="1.47692" rx="0.723077" fill="#638AFF"/>
<rect x="101.588" y="107.184" width="7.2549" height="1.47692" rx="0.723077" fill="#CBD5E1"/>
<rect x="121.176" y="107.184" width="20.3137" height="1.47692" rx="0.723077" fill="#CBD5E1"/>
<rect x="158.176" y="107.184" width="17.4118" height="1.47692" rx="0.723077" fill="#CBD5E1"/>
<g filter="url(#filter13_i)">
<rect x="76.1953" y="99.0593" width="107.373" height="5.90769" fill="white"/>
</g>
<rect x="77.6465" y="101.275" width="7.2549" height="1.47692" rx="0.723077" fill="#638AFF"/>
<rect x="101.588" y="101.275" width="7.2549" height="1.47692" rx="0.723077" fill="#CBD5E1"/>
<rect x="121.176" y="101.275" width="20.3137" height="1.47692" rx="0.723077" fill="#CBD5E1"/>
<rect x="158.176" y="101.275" width="17.4118" height="1.47692" rx="0.723077" fill="#CBD5E1"/>
<g filter="url(#filter14_i)">
<rect x="76.1953" y="110.876" width="107.373" height="5.90769" fill="white"/>
</g>
<rect x="77.6465" y="113.09" width="7.2549" height="1.47692" rx="0.723077" fill="#638AFF"/>
<rect x="101.588" y="113.09" width="7.2549" height="1.47692" rx="0.723077" fill="#CBD5E1"/>
<rect x="121.176" y="113.09" width="20.3137" height="1.47692" rx="0.723077" fill="#CBD5E1"/>
<rect x="158.176" y="113.09" width="17.4118" height="1.47692" rx="0.723077" fill="#CBD5E1"/>
<g filter="url(#filter15_i)">
<rect x="76.1953" y="116.785" width="107.373" height="5.90769" fill="white"/>
</g>
<rect x="77.6465" y="119.001" width="7.2549" height="1.47692" rx="0.723077" fill="#638AFF"/>
<rect x="101.588" y="119.001" width="7.2549" height="1.47692" rx="0.723077" fill="#CBD5E1"/>
<rect x="121.176" y="119.001" width="20.3137" height="1.47692" rx="0.723077" fill="#CBD5E1"/>
<rect x="158.176" y="119.001" width="17.4118" height="1.47692" rx="0.723077" fill="#CBD5E1"/>
<g filter="url(#filter16_i)">
<rect x="76.1953" y="122.691" width="107.373" height="5.90769" fill="white"/>
</g>
<rect x="77.6465" y="124.908" width="7.2549" height="1.47692" rx="0.723077" fill="#638AFF"/>
<rect x="101.588" y="124.908" width="7.2549" height="1.47692" rx="0.723077" fill="#CBD5E1"/>
<rect x="121.176" y="124.908" width="20.3137" height="1.47692" rx="0.723077" fill="#CBD5E1"/>
<rect x="158.176" y="124.908" width="17.4118" height="1.47692" rx="0.723077" fill="#CBD5E1"/>
<g filter="url(#filter17_d)">
<g opacity="0.15" filter="url(#filter18_f)">
<path d="M170 125.272C170 120.814 173.614 117.199 178.073 117.199H193.93C198.387 117.199 202 120.812 202 125.269V141.126C202 145.585 198.386 149.199 193.927 149.199H178.073C173.614 149.199 170 145.585 170 141.126V125.272Z" fill="#F59E0B"/>
</g>
<path d="M170 125.272C170 120.814 173.614 117.199 178.073 117.199H193.93C198.387 117.199 202 120.812 202 125.269V141.126C202 145.585 198.386 149.199 193.927 149.199H178.073C173.614 149.199 170 145.585 170 141.126V125.272Z" fill="url(#paint6_linear)"/>
<mask id="mask0" style="mask-type:alpha" maskUnits="userSpaceOnUse" x="170" y="117" width="32" height="33">
<path d="M170 125.272C170 120.814 173.614 117.199 178.073 117.199H193.93C198.387 117.199 202 120.812 202 125.269V141.126C202 145.585 198.386 149.199 193.927 149.199H178.073C173.614 149.199 170 145.585 170 141.126V125.272Z" fill="white"/>
</mask>
<g mask="url(#mask0)">
<g style="mix-blend-mode:multiply" opacity="0.15">
<path d="M155.23 133.199C155.23 124.363 162.394 117.199 171.23 117.199C180.067 117.199 187.23 124.363 187.23 133.199C187.23 142.036 180.067 149.199 171.23 149.199C162.394 149.199 155.23 142.036 155.23 133.199Z" fill="#F59E0B"/>
</g>
<g style="mix-blend-mode:multiply" opacity="0.15">
<path d="M170 149.199C170 140.362 177.163 133.199 186 133.199C194.837 133.199 202 140.362 202 149.199C202 158.035 194.837 165.199 186 165.199C177.163 165.199 170 158.035 170 149.199Z" fill="#F59E0B"/>
</g>
</g>
</g>
<g clip-path="url(#clip1)">
<path d="M189.597 132.783L190.929 131.45L187.748 128.269L186.415 129.601L182.903 126.096C182.241 125.435 181.163 125.435 180.501 126.096L178.889 127.709C178.228 128.37 178.228 129.448 178.889 130.11L182.394 133.614L178.363 137.653V140.835H181.545L185.584 136.796L189.088 140.3C189.894 141.106 190.98 140.809 191.489 140.3L193.101 138.688C193.763 138.026 193.763 136.949 193.101 136.287L189.597 132.783ZM183.607 132.409L180.094 128.905L181.698 127.293L182.775 128.37L181.774 129.38L182.971 130.576L183.98 129.567L185.211 130.797L183.607 132.409ZM190.293 139.104L186.789 135.599L188.401 133.987L189.631 135.218L188.621 136.227L189.818 137.424L190.828 136.414L191.905 137.492L190.293 139.104Z" fill="white"/>
<path d="M193.391 128.99C193.722 128.659 193.722 128.124 193.391 127.793L191.405 125.808C191.007 125.409 190.455 125.562 190.209 125.808L188.656 127.361L191.838 130.542L193.391 128.99Z" fill="white"/>
</g>
</g>
<defs>
<filter id="filter0_f" x="140" y="-17" width="87.1992" height="87.1992" filterUnits="userSpaceOnUse" color-interpolation-filters="sRGB">
<feFlood flood-opacity="0" result="BackgroundImageFix"/>
<feBlend mode="normal" in="SourceGraphic" in2="BackgroundImageFix" result="shape"/>
<feGaussianBlur stdDeviation="20" result="effect1_foregroundBlur"/>
</filter>
<filter id="filter1_f" x="-12" y="104" width="88" height="88" filterUnits="userSpaceOnUse" color-interpolation-filters="sRGB">
<feFlood flood-opacity="0" result="BackgroundImageFix"/>
<feBlend mode="normal" in="SourceGraphic" in2="BackgroundImageFix" result="shape"/>
<feGaussianBlur stdDeviation="20" result="effect1_foregroundBlur"/>
</filter>
<filter id="filter2_f" x="-29" y="-32" width="148.371" height="148.371" filterUnits="userSpaceOnUse" color-interpolation-filters="sRGB">
<feFlood flood-opacity="0" result="BackgroundImageFix"/>
<feBlend mode="normal" in="SourceGraphic" in2="BackgroundImageFix" result="shape"/>
<feGaussianBlur stdDeviation="32" result="effect1_foregroundBlur"/>
</filter>
<filter id="filter3_d" x="24.7538" y="27.7377" width="188.492" height="136.492" filterUnits="userSpaceOnUse" color-interpolation-filters="sRGB">
<feFlood flood-opacity="0" result="BackgroundImageFix"/>
<feColorMatrix in="SourceAlpha" type="matrix" values="0 0 0 0 0 0 0 0 0 0 0 0 0 0 0 0 0 0 127 0" result="hardAlpha"/>
<feMorphology radius="2.89231" operator="dilate" in="SourceAlpha" result="effect1_dropShadow"/>
<feOffset dy="5.78462"/>
<feGaussianBlur stdDeviation="8.67692"/>
<feColorMatrix type="matrix" values="0 0 0 0 0.580392 0 0 0 0 0.639216 0 0 0 0 0.721569 0 0 0 0.25 0"/>
<feBlend mode="normal" in2="BackgroundImageFix" result="effect1_dropShadow"/>
<feBlend mode="normal" in="SourceGraphic" in2="effect1_dropShadow" result="shape"/>
</filter>
<filter id="filter4_d" x="21" y="26.1992" width="196" height="54.6462" filterUnits="userSpaceOnUse" color-interpolation-filters="sRGB">
<feFlood flood-opacity="0" result="BackgroundImageFix"/>
<feColorMatrix in="SourceAlpha" type="matrix" values="0 0 0 0 0 0 0 0 0 0 0 0 0 0 0 0 0 0 127 0" result="hardAlpha"/>
<feOffset dy="8"/>
<feGaussianBlur stdDeviation="12"/>
<feComposite in2="hardAlpha" operator="out"/>
<feColorMatrix type="matrix" values="0 0 0 0 0.215686 0 0 0 0 0.372549 0 0 0 0 0.952941 0 0 0 0.25 0"/>
<feBlend mode="normal" in2="BackgroundImageFix" result="effect1_dropShadow"/>
<feBlend mode="normal" in="SourceGraphic" in2="effect1_dropShadow" result="shape"/>
</filter>
<filter id="filter5_d" x="41.7051" y="53.6145" width="39.9609" height="26.9539" filterUnits="userSpaceOnUse" color-interpolation-filters="sRGB">
<feFlood flood-opacity="0" result="BackgroundImageFix"/>
<feColorMatrix in="SourceAlpha" type="matrix" values="0 0 0 0 0 0 0 0 0 0 0 0 0 0 0 0 0 0 127 0" result="hardAlpha"/>
<feOffset dy="2"/>
<feGaussianBlur stdDeviation="6"/>
<feComposite in2="hardAlpha" operator="out"/>
<feColorMatrix type="matrix" values="0 0 0 0 0.215686 0 0 0 0 0.372549 0 0 0 0 0.952941 0 0 0 0.25 0"/>
<feBlend mode="normal" in2="BackgroundImageFix" result="effect1_dropShadow"/>
<feBlend mode="normal" in="SourceGraphic" in2="effect1_dropShadow" result="shape"/>
</filter>
<filter id="filter6_i" x="76.1953" y="65.0896" width="107.373" height="4.43066" filterUnits="userSpaceOnUse" color-interpolation-filters="sRGB">
<feFlood flood-opacity="0" result="BackgroundImageFix"/>
<feBlend mode="normal" in="SourceGraphic" in2="BackgroundImageFix" result="shape"/>
<feColorMatrix in="SourceAlpha" type="matrix" values="0 0 0 0 0 0 0 0 0 0 0 0 0 0 0 0 0 0 127 0" result="hardAlpha"/>
<feOffset dy="-0.144615"/>
<feComposite in2="hardAlpha" operator="arithmetic" k2="-1" k3="1"/>
<feColorMatrix type="matrix" values="0 0 0 0 0.886275 0 0 0 0 0.909804 0 0 0 0 0.941176 0 0 0 1 0"/>
<feBlend mode="normal" in2="shape" result="effect1_innerShadow"/>
</filter>
<filter id="filter7_i" x="76.1953" y="69.5229" width="107.373" height="5.90771" filterUnits="userSpaceOnUse" color-interpolation-filters="sRGB">
<feFlood flood-opacity="0" result="BackgroundImageFix"/>
<feBlend mode="normal" in="SourceGraphic" in2="BackgroundImageFix" result="shape"/>
<feColorMatrix in="SourceAlpha" type="matrix" values="0 0 0 0 0 0 0 0 0 0 0 0 0 0 0 0 0 0 127 0" result="hardAlpha"/>
<feOffset dy="-0.144615"/>
<feComposite in2="hardAlpha" operator="arithmetic" k2="-1" k3="1"/>
<feColorMatrix type="matrix" values="0 0 0 0 0.886275 0 0 0 0 0.909804 0 0 0 0 0.941176 0 0 0 1 0"/>
<feBlend mode="normal" in2="shape" result="effect1_innerShadow"/>
</filter>
<filter id="filter8_i" x="76.1953" y="81.3379" width="107.373" height="5.90771" filterUnits="userSpaceOnUse" color-interpolation-filters="sRGB">
<feFlood flood-opacity="0" result="BackgroundImageFix"/>
<feBlend mode="normal" in="SourceGraphic" in2="BackgroundImageFix" result="shape"/>
<feColorMatrix in="SourceAlpha" type="matrix" values="0 0 0 0 0 0 0 0 0 0 0 0 0 0 0 0 0 0 127 0" result="hardAlpha"/>
<feOffset dy="-0.144615"/>
<feComposite in2="hardAlpha" operator="arithmetic" k2="-1" k3="1"/>
<feColorMatrix type="matrix" values="0 0 0 0 0.886275 0 0 0 0 0.909804 0 0 0 0 0.941176 0 0 0 1 0"/>
<feBlend mode="normal" in2="shape" result="effect1_innerShadow"/>
</filter>
<filter id="filter9_i" x="76.1953" y="75.4314" width="107.373" height="5.90771" filterUnits="userSpaceOnUse" color-interpolation-filters="sRGB">
<feFlood flood-opacity="0" result="BackgroundImageFix"/>
<feBlend mode="normal" in="SourceGraphic" in2="BackgroundImageFix" result="shape"/>
<feColorMatrix in="SourceAlpha" type="matrix" values="0 0 0 0 0 0 0 0 0 0 0 0 0 0 0 0 0 0 127 0" result="hardAlpha"/>
<feOffset dy="-0.144615"/>
<feComposite in2="hardAlpha" operator="arithmetic" k2="-1" k3="1"/>
<feColorMatrix type="matrix" values="0 0 0 0 0.886275 0 0 0 0 0.909804 0 0 0 0 0.941176 0 0 0 1 0"/>
<feBlend mode="normal" in2="shape" result="effect1_innerShadow"/>
</filter>
<filter id="filter10_i" x="76.1953" y="87.2463" width="107.373" height="5.90771" filterUnits="userSpaceOnUse" color-interpolation-filters="sRGB">
<feFlood flood-opacity="0" result="BackgroundImageFix"/>
<feBlend mode="normal" in="SourceGraphic" in2="BackgroundImageFix" result="shape"/>
<feColorMatrix in="SourceAlpha" type="matrix" values="0 0 0 0 0 0 0 0 0 0 0 0 0 0 0 0 0 0 127 0" result="hardAlpha"/>
<feOffset dy="-0.144615"/>
<feComposite in2="hardAlpha" operator="arithmetic" k2="-1" k3="1"/>
<feColorMatrix type="matrix" values="0 0 0 0 0.886275 0 0 0 0 0.909804 0 0 0 0 0.941176 0 0 0 1 0"/>
<feBlend mode="normal" in2="shape" result="effect1_innerShadow"/>
</filter>
<filter id="filter11_i" x="76.1953" y="93.1509" width="107.373" height="5.90771" filterUnits="userSpaceOnUse" color-interpolation-filters="sRGB">
<feFlood flood-opacity="0" result="BackgroundImageFix"/>
<feBlend mode="normal" in="SourceGraphic" in2="BackgroundImageFix" result="shape"/>
<feColorMatrix in="SourceAlpha" type="matrix" values="0 0 0 0 0 0 0 0 0 0 0 0 0 0 0 0 0 0 127 0" result="hardAlpha"/>
<feOffset dy="-0.144615"/>
<feComposite in2="hardAlpha" operator="arithmetic" k2="-1" k3="1"/>
<feColorMatrix type="matrix" values="0 0 0 0 0.886275 0 0 0 0 0.909804 0 0 0 0 0.941176 0 0 0 1 0"/>
<feBlend mode="normal" in2="shape" result="effect1_innerShadow"/>
</filter>
<filter id="filter12_i" x="76.1953" y="104.968" width="107.373" height="5.90771" filterUnits="userSpaceOnUse" color-interpolation-filters="sRGB">
<feFlood flood-opacity="0" result="BackgroundImageFix"/>
<feBlend mode="normal" in="SourceGraphic" in2="BackgroundImageFix" result="shape"/>
<feColorMatrix in="SourceAlpha" type="matrix" values="0 0 0 0 0 0 0 0 0 0 0 0 0 0 0 0 0 0 127 0" result="hardAlpha"/>
<feOffset dy="-0.144615"/>
<feComposite in2="hardAlpha" operator="arithmetic" k2="-1" k3="1"/>
<feColorMatrix type="matrix" values="0 0 0 0 0.886275 0 0 0 0 0.909804 0 0 0 0 0.941176 0 0 0 1 0"/>
<feBlend mode="normal" in2="shape" result="effect1_innerShadow"/>
</filter>
<filter id="filter13_i" x="76.1953" y="99.0593" width="107.373" height="5.90771" filterUnits="userSpaceOnUse" color-interpolation-filters="sRGB">
<feFlood flood-opacity="0" result="BackgroundImageFix"/>
<feBlend mode="normal" in="SourceGraphic" in2="BackgroundImageFix" result="shape"/>
<feColorMatrix in="SourceAlpha" type="matrix" values="0 0 0 0 0 0 0 0 0 0 0 0 0 0 0 0 0 0 127 0" result="hardAlpha"/>
<feOffset dy="-0.144615"/>
<feComposite in2="hardAlpha" operator="arithmetic" k2="-1" k3="1"/>
<feColorMatrix type="matrix" values="0 0 0 0 0.886275 0 0 0 0 0.909804 0 0 0 0 0.941176 0 0 0 1 0"/>
<feBlend mode="normal" in2="shape" result="effect1_innerShadow"/>
</filter>
<filter id="filter14_i" x="76.1953" y="110.876" width="107.373" height="5.90771" filterUnits="userSpaceOnUse" color-interpolation-filters="sRGB">
<feFlood flood-opacity="0" result="BackgroundImageFix"/>
<feBlend mode="normal" in="SourceGraphic" in2="BackgroundImageFix" result="shape"/>
<feColorMatrix in="SourceAlpha" type="matrix" values="0 0 0 0 0 0 0 0 0 0 0 0 0 0 0 0 0 0 127 0" result="hardAlpha"/>
<feOffset dy="-0.144615"/>
<feComposite in2="hardAlpha" operator="arithmetic" k2="-1" k3="1"/>
<feColorMatrix type="matrix" values="0 0 0 0 0.886275 0 0 0 0 0.909804 0 0 0 0 0.941176 0 0 0 1 0"/>
<feBlend mode="normal" in2="shape" result="effect1_innerShadow"/>
</filter>
<filter id="filter15_i" x="76.1953" y="116.785" width="107.373" height="5.90771" filterUnits="userSpaceOnUse" color-interpolation-filters="sRGB">
<feFlood flood-opacity="0" result="BackgroundImageFix"/>
<feBlend mode="normal" in="SourceGraphic" in2="BackgroundImageFix" result="shape"/>
<feColorMatrix in="SourceAlpha" type="matrix" values="0 0 0 0 0 0 0 0 0 0 0 0 0 0 0 0 0 0 127 0" result="hardAlpha"/>
<feOffset dy="-0.144615"/>
<feComposite in2="hardAlpha" operator="arithmetic" k2="-1" k3="1"/>
<feColorMatrix type="matrix" values="0 0 0 0 0.886275 0 0 0 0 0.909804 0 0 0 0 0.941176 0 0 0 1 0"/>
<feBlend mode="normal" in2="shape" result="effect1_innerShadow"/>
</filter>
<filter id="filter16_i" x="76.1953" y="122.691" width="107.373" height="5.90771" filterUnits="userSpaceOnUse" color-interpolation-filters="sRGB">
<feFlood flood-opacity="0" result="BackgroundImageFix"/>
<feBlend mode="normal" in="SourceGraphic" in2="BackgroundImageFix" result="shape"/>
<feColorMatrix in="SourceAlpha" type="matrix" values="0 0 0 0 0 0 0 0 0 0 0 0 0 0 0 0 0 0 127 0" result="hardAlpha"/>
<feOffset dy="-0.144615"/>
<feComposite in2="hardAlpha" operator="arithmetic" k2="-1" k3="1"/>
<feColorMatrix type="matrix" values="0 0 0 0 0.886275 0 0 0 0 0.909804 0 0 0 0 0.941176 0 0 0 1 0"/>
<feBlend mode="normal" in2="shape" result="effect1_innerShadow"/>
</filter>
<filter id="filter17_d" x="151.164" y="103.745" width="69.6727" height="69.6727" filterUnits="userSpaceOnUse" color-interpolation-filters="sRGB">
<feFlood flood-opacity="0" result="BackgroundImageFix"/>
<feColorMatrix in="SourceAlpha" type="matrix" values="0 0 0 0 0 0 0 0 0 0 0 0 0 0 0 0 0 0 127 0" result="hardAlpha"/>
<feMorphology radius="2.69091" operator="dilate" in="SourceAlpha" result="effect1_dropShadow"/>
<feOffset dy="5.38182"/>
<feGaussianBlur stdDeviation="8.07273"/>
<feColorMatrix type="matrix" values="0 0 0 0 0.580392 0 0 0 0 0.639216 0 0 0 0 0.721569 0 0 0 0.25 0"/>
<feBlend mode="normal" in2="BackgroundImageFix" result="effect1_dropShadow"/>
<feBlend mode="normal" in="SourceGraphic" in2="effect1_dropShadow" result="shape"/>
</filter>
<filter id="filter18_f" x="106" y="53.1992" width="160" height="160" filterUnits="userSpaceOnUse" color-interpolation-filters="sRGB">
<feFlood flood-opacity="0" result="BackgroundImageFix"/>
<feBlend mode="normal" in="SourceGraphic" in2="BackgroundImageFix" result="shape"/>
<feGaussianBlur stdDeviation="32" result="effect1_foregroundBlur"/>
</filter>
<linearGradient id="paint0_linear" x1="183.6" y1="23" x2="183.6" y2="30.1992" gradientUnits="userSpaceOnUse">
<stop stop-color="#F0ABFC"/>
<stop offset="1" stop-color="#E879F9"/>
</linearGradient>
<linearGradient id="paint1_linear" x1="183.6" y1="23" x2="183.6" y2="30.1992" gradientUnits="userSpaceOnUse">
<stop stop-color="#F0ABFC"/>
<stop offset="1" stop-color="#E879F9"/>
</linearGradient>
<linearGradient id="paint2_linear" x1="32" y1="144" x2="32" y2="152" gradientUnits="userSpaceOnUse">
<stop stop-color="#6EE7B7"/>
<stop offset="1" stop-color="#34D399"/>
</linearGradient>
<linearGradient id="paint3_linear" x1="32" y1="144" x2="32" y2="152" gradientUnits="userSpaceOnUse">
<stop stop-color="#6EE7B7"/>
<stop offset="1" stop-color="#34D399"/>
</linearGradient>
<linearGradient id="paint4_linear" x1="45.1857" y1="32" x2="45.1857" y2="52.3714" gradientUnits="userSpaceOnUse">
<stop stop-color="#FDBA74"/>
<stop offset="1" stop-color="#FB923C"/>
</linearGradient>
<linearGradient id="paint5_linear" x1="45" y1="45.5223" x2="193" y2="45.5223" gradientUnits="userSpaceOnUse">
<stop stop-color="#638AFF"/>
<stop offset="1" stop-color="#375FF3"/>
</linearGradient>
<linearGradient id="paint6_linear" x1="186" y1="117.199" x2="186" y2="149.199" gradientUnits="userSpaceOnUse">
<stop stop-color="#FCD34D"/>
<stop offset="1" stop-color="#FBBF24"/>
</linearGradient>
<clipPath id="clip0">
<rect width="238" height="178" fill="white"/>
</clipPath>
<clipPath id="clip1">
<rect width="20.3636" height="20.3636" fill="white" transform="translate(175.818 123.017)"/>
</clipPath>
</defs>
</svg>
