<svg width="150" height="52" viewBox="0 0 150 52" fill="none" xmlns="http://www.w3.org/2000/svg">
<path fill-rule="evenodd" clip-rule="evenodd" d="M39 11C47.2843 11 54 17.7157 54 26C54 34.2843 47.2843 41 39 41C37.6034 41 36.2515 40.8091 34.9687 40.4521L36.2017 37.0182C36.309 36.7207 36.5995 36.5307 36.9129 36.5526L36.9491 36.5561C37.0103 36.5634 37.0703 36.5688 37.1292 36.5739L37.2712 36.588C38.2102 36.6851 39.0337 36.3757 39.5922 35.7119C40.167 35.0281 40.3718 34.0672 40.1266 33.2041L40.1056 33.1332C39.9105 32.5067 39.4645 32.0137 38.8479 31.7421C38.2015 31.4572 37.4661 31.4648 36.8303 31.7633C36.0799 32.1159 35.4964 32.575 35.0963 33.1281C34.9854 33.2814 34.8176 33.3836 34.6309 33.4121C34.4449 33.4401 34.2532 33.3933 34.1021 33.2794C31.2481 31.1433 31.3898 28.4987 31.8823 27.3328L31.9038 27.2833C32.2927 27.5626 32.7056 27.8083 33.1373 28.0178C34.2803 28.5726 35.5552 28.8739 36.8674 28.8739C37.7275 28.8739 38.6035 28.7445 39.4692 28.472C41.6762 27.7779 43.4805 26.2655 44.55 24.2138C45.6195 22.162 45.8263 19.8163 45.1321 17.6091C44.5146 15.6449 43.2145 13.9618 41.4722 12.8697C41.1418 12.6627 40.7069 12.7628 40.4991 13.0932C40.2924 13.4232 40.3926 13.8588 40.7226 14.0658C42.1807 14.9797 43.2686 16.3885 43.7861 18.0328C44.367 19.8805 44.1939 21.8439 43.2985 23.5613C42.4035 25.2787 40.8929 26.5444 39.0456 27.1258C35.7808 28.1509 31.4612 26.6165 30.2283 22.6959C30.1114 22.3243 29.7155 22.1163 29.3433 22.2343C29.1994 22.2796 29.0802 22.3668 28.995 22.4781C28.9438 22.524 28.8985 22.5783 28.8612 22.6404C27.4356 25.0111 27.13 27.9992 28.0232 30.8385C28.0762 31.0071 28.1316 31.1728 28.1895 31.3354L28.2481 31.4972L25.8686 33.2559C24.6779 31.1057 24 28.632 24 26C24 17.7157 30.7157 11 39 11ZM31.8027 36.2442C32.0694 36.4172 32.3465 36.5727 32.6335 36.7105L32.7778 36.7779L31.5728 39.035C31.1207 38.7768 30.6833 38.4958 30.2622 38.1936L31.8027 36.2442ZM29.9853 34.6077C30.2193 34.8924 30.4669 35.157 30.7276 35.4013L30.8401 35.5047L29.3054 37.4468C28.904 37.1065 28.5207 36.7454 28.1572 36.3653L29.9853 34.6077ZM28.7373 32.6443C28.8753 32.9267 29.0221 33.1976 29.1774 33.4568L29.2716 33.611L27.3539 35.4545C27.0519 35.083 26.7674 34.6968 26.5015 34.297L28.7373 32.6443ZM36.6065 13.9234C35.8542 14.1601 35.4362 14.9621 35.6729 15.7144C35.9096 16.4667 36.7113 16.885 37.4637 16.648C38.2163 16.4113 38.6343 15.6096 38.3976 14.8573C38.1609 14.105 37.3592 13.6867 36.6065 13.9234Z" fill="white"/>
<path fill-rule="evenodd" clip-rule="evenodd" d="M49.0036 40.0329C47.7917 40.0329 46.6551 39.4295 45.884 38.3299C45.711 38.0826 45.771 37.7411 46.0183 37.5677C46.266 37.3947 46.6069 37.4542 46.7804 37.7019C47.5095 38.7426 48.6279 39.1622 49.772 38.8252C49.9936 38.7601 50.2052 38.6676 50.4017 38.5504C50.6619 38.396 50.9977 38.481 51.1519 38.7402C51.3067 38.9997 51.2219 39.3354 50.9626 39.4902C50.6872 39.6544 50.3906 39.7836 50.081 39.8749C49.7202 39.9811 49.3586 40.0329 49.0036 40.0329Z" fill="white"/>
<path fill-rule="evenodd" clip-rule="evenodd" d="M68.5836 25.0234V26.6601H73.9963V29.4207H68.7929V31.4344H73.9963V34.1648H66.7441V35.9411H83.3156V34.1648H75.9945V31.4344H81.3564V29.4207H75.9945V26.6601H81.4411V25.0234H68.5836Z" fill="white"/>
<path fill-rule="evenodd" clip-rule="evenodd" d="M66 23.8474L67.1534 25.3222L75.02 19.418L82.8647 25.3618L84.0441 23.8479L75.0205 17.0508L66 23.8474Z" fill="white"/>
<path fill-rule="evenodd" clip-rule="evenodd" d="M87.9766 21.9274L89.1421 23.3741L89.9209 22.7015V26.4652H92.6348L88.0877 28.5281L88.7558 30.1087L95.3451 27.119L99.1418 28.9415V34.225H94.8837L93.5617 35.9597L100.837 35.9587V31.2156L101.263 30.8472L105.638 35.3813L106.925 34.0478L102.665 29.636L104.711 27.8684L103.582 26.4652H104.547V21.2336L98.651 21.2306L100.55 19.9206V18.245H95.0785L96.0008 17.4481L94.8372 16L87.9766 21.9274ZM91.6265 21.2274L93.2263 19.8457H97.988L96.3867 21.2298L91.6265 21.2274ZM97.8644 22.9175H102.441V24.7607H96.9837L97.8644 22.9175ZM92.0891 22.9175H95.8102L94.937 24.7607H92.0891V22.9175ZM100.839 27.6742L98.3104 26.465H103.492L100.837 28.7598L100.839 27.6742Z" fill="white"/>
<path fill-rule="evenodd" clip-rule="evenodd" d="M96.389 27.9153L88.8027 31.3562L89.4704 32.9375L97.0681 29.491L96.3997 27.9106L96.389 27.9153Z" fill="white"/>
<path fill-rule="evenodd" clip-rule="evenodd" d="M97.7028 30.2524L88.9746 34.2126L89.642 35.7934L98.37 31.833L97.7028 30.2524Z" fill="white"/>
<path fill-rule="evenodd" clip-rule="evenodd" d="M109.738 24.082V26.3381H115.407L110.383 35.9989L126 35.9999L122.896 30.2753H120.671L122.643 33.9172H113.817L117.665 26.3381H125.761V24.082H109.738Z" fill="white"/>
<path fill-rule="evenodd" clip-rule="evenodd" d="M111.9 20.6418H124.106V18.3862H111.9V20.6418Z" fill="white"/>
</svg>
