<svg width="16" height="16" viewBox="0 0 16 16" fill="none" xmlns="http://www.w3.org/2000/svg">
<path d="M9.59301 7.33341L10.6663 8.40674V7.33341H9.59301ZM11.333 4.66674H8.66634V5.9334H11.333C12.473 5.9334 13.3997 6.86007 13.3997 8.00007C13.3997 8.84674 12.8863 9.58007 12.153 9.89341L13.0863 10.8267C14.033 10.2401 14.6663 9.19341 14.6663 8.00007C14.6663 6.16007 13.173 4.66674 11.333 4.66674ZM1.33301 2.84674L3.40634 4.92007C2.19301 5.41341 1.33301 6.60674 1.33301 8.00007C1.33301 9.84007 2.82634 11.3334 4.66634 11.3334H7.33301V10.0667H4.66634C3.52634 10.0667 2.59967 9.14007 2.59967 8.00007C2.59967 6.94007 3.40634 6.06674 4.43967 5.95341L5.81967 7.33341H5.33301V8.66674H7.15301L8.66634 10.1801V11.3334H9.81967L12.493 14.0067L13.433 13.0667L2.27301 1.90674L1.33301 2.84674Z" fill="#475569"/>
</svg>
