<svg width="20" height="20" viewBox="0 0 20 20" fill="none" xmlns="http://www.w3.org/2000/svg">
<path d="M14.1665 5.83325H10.8332V7.49992H14.1665C15.5415 7.49992 16.6665 8.62492 16.6665 9.99992C16.6665 11.3749 15.5415 12.4999 14.1665 12.4999H10.8332V14.1666H14.1665C16.4665 14.1666 18.3332 12.2999 18.3332 9.99992C18.3332 7.69992 16.4665 5.83325 14.1665 5.83325ZM9.1665 12.4999H5.83317C4.45817 12.4999 3.33317 11.3749 3.33317 9.99992C3.33317 8.62492 4.45817 7.49992 5.83317 7.49992H9.1665V5.83325H5.83317C3.53317 5.83325 1.6665 7.69992 1.6665 9.99992C1.6665 12.2999 3.53317 14.1666 5.83317 14.1666H9.1665V12.4999ZM6.6665 9.16659H13.3332V10.8333H6.6665V9.16659Z" fill="white"/>
</svg>
