<svg width="518" height="900" viewBox="0 0 518 900" fill="none" xmlns="http://www.w3.org/2000/svg"><path d="M59.675 711h224.65c2.584 0 4.675 2.056 4.675 4.596s-2.091 4.597-4.675 4.597h-6.275c-8.365 0-43.059 12.7-53.64 12.458 1.722 0-8.366-.242-25.221.121-39.492.665-89.072-.242-95.039-1.21l-13.84-2.298c-2.646-.423-5.23-1.209-7.69-2.238l-9.72-4.172c-4.182-1.754-8.673-2.722-13.225-2.722-2.583 0-4.675-1.996-4.675-4.536 0-2.54 2.092-4.596 4.675-4.596z" fill="#E4ECF5"/><path d="M157.53 707.885l-.218 2.839 3.348 3.64 3.276-1.893-.073-1.456.437-3.13h-6.77zM124.555 709.05l-.364 2.839 3.567 2.985s2.548-1.383 2.766-1.529c.219-.073 1.529-4.658 1.529-4.658l-7.498.363z" fill="#fff"/><path d="M161.271 466.643l2.475-13.758s-2.621-7.352 1.674-9.826c4.367-2.403 8.225-.146 8.808 1.164.582 1.31-9.026 24.968-9.026 24.968l-3.931-2.548z" fill="#FDD4C6"/><path d="M115.311 577.806c3.858 34.576 8.152 43.894 12.302 69.007 2.183 13.539-.219 32.32-3.422 62.091-.291 2.548 9.463 2.403 10.191 0 6.552-22.492 14.85-51.9 16.378-63.183 1.966-14.34.51-42.365.51-42.365l-8.808-31.228-27.151 5.678z" fill="#50548B"/><path d="M153.818 566.669c14.413 31.665 16.669 56.414 18.198 70.026 2.256 19.508-2.912 36.323-6.26 71.045-.219 2.184-8.663 2.184-8.735 0-.801-31.664-.874-65.367-5.824-77.887-4.149-10.628-13.248-25.623-13.248-25.623l-10.336-28.607 26.205-8.954z" fill="#50548B"/><path d="M143.045 511.93l13.903-36.978 2.62-14.268 8.663 5.678-4.441 40.181-9.463 25.623-11.282-20.236z" fill="#FFB41D"/><path d="M135.765 585.741c15.505 0 18.417-5.459 18.417-5.459l-.364-41.055s-3.713-19.945-3.567-20.091c.145-.145-5.387-5.605-5.241-3.202.145 2.475.291 4.877-3.858 5.241-4.149.436-10.191-3.422-10.191-3.422l1.674 6.479 3.13 61.509z" fill="#fff"/><path d="M159.568 460.684l-1.164 6.697 9.171 5.168.655-6.187-8.662-5.678z" fill="#DD7D3C"/><path d="M145.083 518.044c1.892 3.276 4.367 21.547 4.44 27.589.073 6.041.801 21.109 2.329 31.446.801 5.532 12.375 34.357 12.375 34.357s7.352-3.421 7.352-8.516c0-6.188-14.631-24.313-13.103-59.69.437-9.317-3.93-22.783-5.969-26.132-2.038-3.348-4.076-5.023-4.076-5.023l-3.203.656-.145 5.313zM136.784 522.776s-.364 86.55 2.621 96.522c0 0-28.898-4.95-31.155-12.52-7.934-26.351-.073-75.267 9.972-83.638 9.099-7.57 11.283-8.953 11.283-8.953l2.694 8.079 4.585.51z" fill="#FFB41D"/><path d="M141.953 513.75c3.202 4.586 3.785 5.969 3.785 5.969s1.892-1.02 3.639-.947c0 0-3.785-6.915-6.769-8.007-3.057-1.092-.655 2.985-.655 2.985z" fill="#DD7D3C"/><path d="M130.67 512.803c9.827-3.566-6.551-15.65 4.659-19.872 11.21-4.295 15.504 12.666 14.267 15.869-1.238 3.203-5.678.728-6.115 3.785-.072.437.146 3.785.073 4.222-.218 2.62-.873 3.421-3.494 3.639a13.242 13.242 0 0 1-6.26-.873l-2.912-1.092-.218-5.678z" fill="#FDD4C6"/><path d="M127.685 514.477c1.02 3.931 1.383 5.46 5.241 9.609 0 0 3.203-1.383 3.931-1.31 0 0-2.256-2.33-4.586-6.042-1.456-2.329-1.601-3.931-1.601-3.931l-2.985 1.674zM114.728 585.304l-.8 3.64s4.658 2.984 18.052 5.605v-4.004c.073 0-12.52-2.548-17.252-5.241zM163.572 581.374l-2.184 4.367 3.712 1.747 1.311-4.004-2.839-2.11z" fill="#DD7D3C"/><path d="M145.738 495.988c-1.602-.727-3.494-.946-3.785 0-.292.947-2.33-.291-3.64.947-1.31 1.237.51 6.551-.437 6.915-.946.364-2.547-.437-2.62 1.31-.073 1.747 2.839 2.548 2.839 2.548s-.437 3.858-3.276 2.912c-2.839-.947-4.95-2.475-6.26-5.605-1.383-3.13-1.893-8.881 3.057-12.084 5.023-3.203 8.954-2.184 11.574-1.456 2.402.583 2.548 4.513 2.548 4.513z" fill="#393D65"/><path d="M165.319 444.888c2.475-2.547 2.984-3.13 3.639-2.329.656.801-3.639 5.969-3.639 5.969v-3.64z" fill="#FDD4C6"/><path d="M163.281 717.567c-3.567-.655-6.697-1.092-6.333-4.004.073-.873.364-2.839.364-2.839 1.456 1.092 6.333 1.383 6.551.364 0 0 17.543 5.678 18.052 7.425v.801c-.436 1.674-15.067-1.092-18.634-1.747zM131.179 721.498c-1.31-.437-7.716-3.494-7.352-6.406.073-.873.437-3.567.437-3.567.946 2.039 6.042 1.966 6.26 1.82 0 0 8.808 5.314 9.245 7.061v.801c-.437 1.674-5.168 1.456-8.59.291z" fill="#393D65"/><path d="M166.338 550.583s-25.259-19.727-34.212-26.642c-4.295-3.349-18.999 4.877-9.682 15.577 6.479 7.498 29.263 16.961 35.45 19.363 1.238.509 12.229-.146 15.941 0v-6.697l-7.497-1.601z" fill="#FFB41D"/><path d="M207.247 557.061l-7.425-1.092s1.31-1.237 1.893-2.183c.582-.947-.146-2.039-1.019-.874-.874 1.165-4.149 2.621-4.149 2.621l-22.784-3.349v6.697c8.298-.146 20.09-1.019 22.274-.437 11.865 3.276 11.21-1.383 11.21-1.383z" fill="#FDD4C6"/><path d="M167.721 550.874v8.007l7.206-.073v-6.697l-7.206-1.237z" fill="#DD7D3C"/><mask id="path-24-outside-1" maskUnits="userSpaceOnUse" x="88.902" y="204.603" width="360.547" height="422.065" fill="#000"><path fill="#fff" d="M88.902 204.603h360.547v422.065H88.902z"/><path fill-rule="evenodd" clip-rule="evenodd" d="M276.777 264.002l70.91-19c6.402-1.716 12.982 2.083 14.697 8.485l44.517 166.139c-16.569 4.44-26.401 21.474-21.96 38.048 4.441 16.574 21.473 26.41 38.042 21.971l15.753 58.79c1.715 6.402-2.084 12.982-8.486 14.697l-57.842 15.499v-.001c-4.441-16.574-21.472-26.41-38.041-21.971-16.569 4.44-26.401 21.475-21.96 38.048v.001l-84.035 22.517c-6.402 1.715-12.982-2.084-14.697-8.485l-45.776-170.838c-16.551 4.402-33.549-5.431-37.985-21.986-4.435-16.555 5.369-33.569 21.903-38.033l-14.494-54.091c-1.715-6.402 2.084-12.982 8.486-14.697l70.967-19.016c-4.398-16.553 5.43-33.549 21.977-37.982 16.547-4.434 33.556 5.371 38.024 21.905z"/></mask><path fill-rule="evenodd" clip-rule="evenodd" d="M276.777 264.002l70.91-19c6.402-1.716 12.982 2.083 14.697 8.485l44.517 166.139c-16.569 4.44-26.401 21.474-21.96 38.048 4.441 16.574 21.473 26.41 38.042 21.971l15.753 58.79c1.715 6.402-2.084 12.982-8.486 14.697l-57.842 15.499v-.001c-4.441-16.574-21.472-26.41-38.041-21.971-16.569 4.44-26.401 21.475-21.96 38.048v.001l-84.035 22.517c-6.402 1.715-12.982-2.084-14.697-8.485l-45.776-170.838c-16.551 4.402-33.549-5.431-37.985-21.986-4.435-16.555 5.369-33.569 21.903-38.033l-14.494-54.091c-1.715-6.402 2.084-12.982 8.486-14.697l70.967-19.016c-4.398-16.553 5.43-33.549 21.977-37.982 16.547-4.434 33.556 5.371 38.024 21.905z" fill="#EBEEFB"/><path d="M276.777 264.002l-5.793 1.565 1.562 5.78 5.784-1.55-1.553-5.795zm130.124 155.624l1.553 5.796 5.795-1.553-1.553-5.796-5.795 1.553zm16.082 60.019l5.795-1.553-1.552-5.796-5.796 1.553 1.553 5.796zm15.753 58.79l-5.796 1.553 5.796-1.553zm-8.486 14.697l1.553 5.795-1.553-5.795zm-57.842 15.499l-5.795 1.552 1.553 5.796 5.795-1.553-1.553-5.795zm0-.001l5.796-1.553-5.796 1.553zm-60.001 16.078l1.553 5.795 5.796-1.553-1.553-5.795-5.796 1.553zm-84.035 22.517l1.553 5.796-1.553-5.796zm-60.473-179.323l5.796-1.553-1.55-5.785-5.788 1.539 1.542 5.799zm-16.082-60.019l1.564 5.793 5.782-1.561-1.55-5.785-5.796 1.553zm64.959-87.804l1.553 5.796 5.783-1.55-1.537-5.786-5.799 1.54zm61.554-10.282l70.91-19-3.106-11.591-70.91 19 3.106 11.591zm70.91-19a5.999 5.999 0 0 1 7.348 4.243l11.592-3.106c-2.573-9.603-12.443-15.301-22.046-12.728l3.106 11.591zm7.348 4.243l44.517 166.139 11.591-3.106-44.516-166.139-11.592 3.106zm48.76 158.79c-19.771 5.298-31.5 25.624-26.202 45.397l11.591-3.106c-3.584-13.374 4.35-27.118 17.717-30.699l-3.106-11.592zm-26.202 45.397c5.298 19.773 25.619 31.511 45.39 26.213l-3.106-11.591c-13.366 3.582-27.109-4.353-30.693-17.728l-11.591 3.106zm38.041 21.971l15.753 58.79 11.591-3.106-15.753-58.79-11.591 3.106zm15.753 58.79a5.999 5.999 0 0 1-4.243 7.348l3.106 11.591c9.603-2.573 15.301-12.443 12.728-22.045l-11.591 3.106zm-4.243 7.348l-57.841 15.499 3.105 11.591 57.842-15.499-3.106-11.591zm-50.493 19.742v-.001l-11.591 3.106 11.591-3.105zm0-.001c-5.298-19.773-25.619-31.511-45.39-26.213l3.106 11.591c13.366-3.582 27.109 4.354 30.693 17.728l11.591-3.106zm-45.39-26.213c-19.771 5.298-31.5 25.623-26.202 45.396l11.591-3.106c-3.584-13.374 4.35-27.117 17.717-30.699l-3.106-11.591zm-26.202 45.396v.001l11.591-3.106v-.001l-11.591 3.106zm4.243-7.348l-84.036 22.518 3.106 11.591 84.035-22.518-3.105-11.591zm-84.036 22.517a6 6 0 0 1-7.349-4.242l-11.591 3.106c2.573 9.602 12.443 15.301 22.046 12.728l-3.106-11.592zm-7.349-4.242l-45.775-170.838-11.591 3.106 45.775 170.838 11.591-3.106zm-53.113-175.084c-13.352 3.552-27.067-4.381-30.647-17.74l-11.591 3.106c5.292 19.75 25.572 31.484 45.322 26.231l-3.084-11.597zm-30.647-17.74c-3.58-13.359 4.332-27.086 17.671-30.687l-3.128-11.585c-19.73 5.326-31.426 25.628-26.134 45.378l11.591-3.106zm21.903-38.033l-14.494-54.091-11.591 3.106 14.494 54.091 11.591-3.106zm-14.494-54.091a6 6 0 0 1 4.243-7.349l-3.106-11.591c-9.603 2.573-15.301 12.443-12.728 22.046l11.591-3.106zm4.243-7.349l70.967-19.015-3.106-11.591-70.967 19.015 3.106 11.591zm75.213-26.351c-3.549-13.358 4.382-27.07 17.731-30.647l-3.106-11.591c-19.745 5.291-31.47 25.57-26.223 45.319l11.598-3.081zm17.731-30.647c13.349-3.577 27.073 4.333 30.678 17.675l11.585-3.13c-5.331-19.726-25.624-31.427-45.369-26.136l3.106 11.591z" fill="#fff" fill-opacity=".8" mask="url(#path-24-outside-1)"/><path d="M180.152 307.492a3 3 0 1 0-1.553-5.796 3 3 0 0 0 1.553 5.796z" fill="#9FE32E"/><path d="M168.75 307.441a2.986 2.986 0 0 0-3.674-2.121 2.987 2.987 0 0 0-2.121 3.674 2.986 2.986 0 0 0 3.674 2.121 2.986 2.986 0 0 0 2.121-3.674z" fill="#FFC53D"/><path d="M155.228 311.065a2.99 2.99 0 0 0-3.675-2.122 2.989 2.989 0 0 0-2.121 3.675 2.988 2.988 0 0 0 3.674 2.121 2.989 2.989 0 0 0 2.122-3.674z" fill="#FF7A45"/><rect x="195.534" y="457.627" width="100" height="40" rx="3" transform="rotate(-15 195.534 457.627)" fill="#fff"/><rect x="210.028" y="511.719" width="100" height="24" rx="3" transform="rotate(-15 210.028 511.719)" fill="#fff"/><path d="M210.804 514.616a3 3 0 0 1 2.122-3.674l8.693-2.329 6.212 23.182-8.694 2.329a3 3 0 0 1-3.674-2.121l-4.659-17.387z" fill="#D6DFE9"/><rect x="239.699" y="545.179" width="60" height="24" rx="3" transform="rotate(-15 239.699 545.179)" fill="#597EF7"/><circle cx="235.548" cy="413.776" r="16" transform="rotate(-15 235.548 413.776)" fill="#FFC53D"/><path d="M220.649 472.638c-2.093.566-2.839.858-3.54 1.526a4.872 4.872 0 0 0-1.417 2.654l-.039.248c-.111.866.052 1.73.596 3.778l.314 1.171a1 1 0 0 0 1.224.707l13.523-3.623a1 1 0 0 0 .708-1.225l-.309-1.146c-.656-2.416-.903-3.048-1.536-3.79a4.876 4.876 0 0 0-2.554-1.59c-.898-.218-1.661-.118-3.551.376l-3.419.914z" fill="#D6DFE9"/><path fill-rule="evenodd" clip-rule="evenodd" d="M219.373 461.592a3.464 3.464 0 0 1 4.32 2.822l.308 2.012a3.238 3.238 0 0 1-6.219 1.666l-.74-1.896a3.465 3.465 0 0 1 2.331-4.604z" fill="#D6DFE9"/><rect x="234.638" y="460.607" width="35" height="4" rx="2" transform="rotate(-15 234.638 460.607)" fill="#D6DFE9"/><rect x="237.226" y="470.267" width="48" height="4" rx="2" transform="rotate(-15 237.226 470.267)" fill="#D6DFE9"/><rect x="239.662" y="514.131" width="56" height="4" rx="2" transform="rotate(-15 239.662 514.131)" fill="#D6DFE9"/><rect x="239.5" y="432.387" width="2" height="4" rx="1" transform="rotate(-15 239.5 432.387)" fill="#393D65"/><rect x="241.053" y="438.183" width="2" height="4" rx="1" transform="rotate(-15 241.053 438.183)" fill="#393D65"/><rect x="253.994" y="486.479" width="2" height="4" rx="1" transform="rotate(-15 253.994 486.479)" fill="#393D65"/><rect x="255.547" y="492.275" width="2" height="4" rx="1" transform="rotate(-15 255.547 492.275)" fill="#393D65"/><rect x="264.346" y="525.116" width="2" height="4" rx="1" transform="rotate(-15 264.346 525.116)" fill="#393D65"/><rect x="265.899" y="530.912" width="2" height="4" rx="1" transform="rotate(-15 265.899 530.912)" fill="#393D65"/><path d="M309.503 311.138a6.001 6.001 0 0 1 4.243-7.349l57.956-15.529 20.705 77.274-57.955 15.529a6 6 0 0 1-7.349-4.242l-17.6-65.683z" fill="#B4CBFE"/><path d="M318.525 313.897a3 3 0 0 1 2.121-3.675l53.126-14.235 16.565 61.82-53.126 14.235a3.001 3.001 0 0 1-3.675-2.122l-15.011-56.023z" fill="#fff"/><path fill-rule="evenodd" clip-rule="evenodd" d="M374.844 330.9c2.573 9.602-3.125 19.472-12.727 22.045-9.603 2.573-19.473-3.126-22.046-12.728-2.527-9.431 2.925-19.12 12.217-21.901l.511-.144 4.659 17.386 17.386-4.658z" fill="#393D65"/><path fill-rule="evenodd" clip-rule="evenodd" d="M353.696 313.79c10.488-2.81 21.264 3.261 24.342 13.604l.153.538-19.319 5.177-5.176-19.319z" fill="#597EF7"/><rect x="90.27" y="342.964" width="122" height="72" rx="6" transform="rotate(-15 90.27 342.964)" fill="#B4CBFE"/><rect x="112.695" y="349.378" width="98" height="56" rx="3" transform="rotate(-15 112.695 349.378)" fill="#fff"/><path d="M91.823 348.759a6 6 0 0 1 4.243-7.348l9.659-2.588 18.635 69.546-9.659 2.588a6 6 0 0 1-7.349-4.242l-15.529-57.956z" fill="#597EF7"/><rect x="117.594" y="352.207" width="42" height="16" rx="2" transform="rotate(-15 117.594 352.207)" fill="#D6DFE9"/><rect x="123.382" y="371.879" width="89" height="15" rx="1.5" transform="rotate(-15 123.382 371.879)" stroke="#D6DFE9" stroke-linecap="round" stroke-dasharray="3 3"/><rect x="162.026" y="340.301" width="20" height="16" rx="2" transform="rotate(-15 162.026 340.301)" fill="#FFC53D"/><rect x="185.208" y="334.089" width="20" height="16" rx="2" transform="rotate(-15 185.208 334.089)" fill="#D6DFE9"/><path d="M91.823 348.759a6 6 0 0 1 4.243-7.348l106.252-28.47a6 6 0 0 1 7.348 4.242l.518 1.932-117.843 31.576-.518-1.932z" fill="#393D65"/><rect x="98.206" y="353.261" width="6" height="6" rx="3" transform="rotate(-15 98.206 353.261)" fill="#ADB8FD"/><rect x="106.178" y="394.606" width="12" height="4" rx="2" transform="rotate(-15 106.178 394.606)" fill="#ADB8FD"/><rect x="108.249" y="402.333" width="12" height="4" rx="2" transform="rotate(-15 108.249 402.333)" fill="#ADB8FD"/><path d="M186.483 379.815l2.542 3.056h0c.541.65 1.512.746 2.167.192 0 0 0 0 0 0l1.633-1.382h0a1.541 1.541 0 0 0 .186-2.162s0 0 0 0l-2.469-2.968 2.292-.81h0c.372-.131.677-.401.854-.75h0a1.544 1.544 0 0 0-.66-2.067h0l-11.957-6.249-.001-.001a1.532 1.532 0 0 0-2.187 1.763l3.537 13.202s0 0 0 0a1.541 1.541 0 0 0 .711.932l.001.001c.736.43 1.679.177 2.101-.564l1.25-2.193z" fill="#393D65" stroke="#fff" stroke-width="2"/><path d="M446.316 710H341.728c-.955 0-1.728 1.537-1.728 3.435 0 1.898.773 3.434 1.728 3.434 1.682 0 3.341.678 4.887 2.034l3.592 3.118c.909.769 1.864 1.356 2.841 1.673l5.115 1.717c.727.226 1.454.362 2.159.362h21.482c2.455 0 4.91.542 7.296 1.626l4.479 1.989c3.727 1.672 7.546 2.034 11.32 1.13l17.685-4.294c1.705-.406 3.41-.497 5.115-.451 1.591.045 3.205-.498 4.705-1.673l7.07-5.513c1.432-1.13 2.955-1.672 4.478-1.672h2.318c.955 0 1.728-1.537 1.728-3.435.046-1.943-.727-3.48-1.682-3.48z" fill="#E4ECF5"/><path d="M401.747 686.816c.372-1.039 1.003-2.079 1.003-2.079s7.687-13.74 10.323-17.899c1.263-2.005 1.597-4.79 2.414-7.427.891-2.785 2.265-5.347 2.637-5.83.631-.891.185 3.899-.891 12.217-1.077 8.318-7.984 11.289-13.852 18.939l-.742 2.117-3.64 18.604h-.965c-.074 0 3.342-17.602 3.713-18.642z" fill="#ADB8FD"/><path d="M379.801 633.974s6.535 10.249 9.432 12.143c2.896 1.894 3.491 18.419 2.117 22.318-1.374 3.899-2.266 37.023-2.266 37.023h-.854s1.077-34.572 1.746-37.023c.668-2.451-.075-3.008-1.003-3.862-.928-.854-3.157-12.292-4.345-14.371-1.188-2.08-4.827-11.735-4.827-11.735v-4.493z" fill="#465FE9"/><path d="M421.317 631.931s-8.763 8.43-12.031 9.581c-3.268 1.151-7.724 17.082-7.316 21.167.409 4.085-4.865 45.564-4.865 45.564l.855.223s5.421-42.891 5.384-45.416c-.074-2.525.78-2.934 1.894-3.528 1.114-.594 5.979-11.177 7.613-12.96 1.634-1.745 7.427-10.286 7.427-10.286l1.039-4.345zM392.501 705.458s2.711-57.002 3.676-62.089c.966-5.088-.371-7.427 0-9.284.371-1.857 1.188-19.57 1.745-22.689.595-3.157 10.027-19.644 11.326-22.43 1.3-2.785 2.6-1.114 2.674.446.074 1.56-3.528 10.881-5.607 18.902-1.411 5.496-1.894 21.055-5.013 27.702-.929 1.931-3.194 4.976-3.714 7.836-.52 2.822-3.825 61.606-3.825 61.606h-1.262z" fill="#ADB8FD"/><path d="M382.289 714.668h19.941l2.117-21.279h-24.546l2.488 21.279z" fill="#D6DFE9"/><path d="M397.885 635.125s-2.451-59.007-4.233-63.352c-1.783-4.345-7.39-15.411-12.44-18.753-5.051-3.342-13.777-14.112-13.183-11.661 2.154 8.801 5.013 12.886 9.061 17.936 4.047 5.051 8.466 8.913 10.138 10.064 1.671 1.114 5.161 2.414 5.421 3.825 3.862 24.249 3.937 69.331 3.937 69.331l1.299-7.39z" fill="#ADB8FD"/><path d="M377.238 593.979c1.04 6.722 5.942 19.051 8.207 25.141 2.265 6.053 5.088 7.538 6.944 10.992 1.857 3.453 4.048 20.127 4.048 20.127l.743-3.974s-2.043-15.151-2.897-17.416c-.854-2.265-.223-7.427-1.188-10.769-.929-3.342-7.873-13.554-9.767-16.748-1.893-3.193-5.05-10.249-6.09-11.029-1.002-.743 0 3.676 0 3.676zM404.421 545.221c.074 4.605-1.745 13.443-2.562 17.751-.817 4.308-2.525 5.644-3.342 8.17-.855 2.525-3.565 15.782-3.565 15.782l-.595-1.597s2.563-12.292 2.86-13.926c.297-1.633-.817-5.83-.594-8.169.222-2.34 3.676-9.989 4.567-12.329.891-2.377 2.191-7.427 2.785-8.058.595-.743.446 2.376.446 2.376z" fill="#ADB8FD"/><path d="M300 352c3.333-51-7.2-160.6-76-191" stroke="#393D65" stroke-linecap="round" stroke-dasharray="3 3"/><path d="M207.425 155.828c.834-3.113 4.073-4.983 7.186-4.149 3.113.834 9.044 5.162 8.21 8.274-.834 3.113-8.134 3.895-11.247 3.061-3.113-.834-4.962-4.038-4.149-7.186z" fill="#FFC53D"/><path d="M206.877 155.696c1.324-4.941 7.056-9.749 7.056-9.749.615-.508.719-1.064.255-1.233l-.446-.12c-6.547-1.754-13.312 2.223-15.1 8.895-1.788 6.673 2.083 13.499 8.629 15.254l.447.119c.486.086.674-.448.395-1.195 0 0-2.56-7.03-1.236-11.971z" fill="#597EF7"/><path d="M177.83 145.175c.11-1.137.077-2.074-.094-2.718-6.165.787-10.501 2.617-10.501 2.617s2.85 3.771 7.809 7.538c1.278-1.363 2.478-4.557 2.786-7.437zM182.183 142.108c.362.77.491 2.076.315 3.794-.381 3.653-2.003 7.752-3.621 9.158a.77.77 0 0 1-.114.09c2.675 1.629 5.757 3.083 9.162 3.996 12.605 3.377 23.795 2.486 24.954-1.842 1.16-4.327-8.085-10.694-20.69-14.071-3.434-.92-6.857-1.209-10.006-1.125z" fill="#B4CBFE"/><path d="M182.498 145.902c.176-1.718.047-3.024-.315-3.794a42.083 42.083 0 0 0-4.461.345c.167.659.218 1.585.094 2.719-.29 2.869-1.508 6.073-2.785 7.437a41.824 41.824 0 0 0 3.718 2.537c.039-.034.075-.055.114-.089 1.632-1.403 3.254-5.502 3.635-9.155z" fill="#fff"/><path d="M191.923 151.689a3.753 3.753 0 0 0-2.647-4.599c-2-.536-4.056.655-4.593 2.659a3.751 3.751 0 0 0 2.648 4.599 3.751 3.751 0 0 0 4.592-2.659z" fill="#393D65"/></svg>