<svg width="30" height="30" viewBox="0 0 30 30" fill="none" xmlns="http://www.w3.org/2000/svg">
<path fill-rule="evenodd" clip-rule="evenodd" d="M15 0C23.2843 0 30 6.71573 30 15C30 23.2843 23.2843 30 15 30C13.6034 30 12.2515 29.8091 10.9687 29.4521L12.2017 26.0182C12.309 25.7207 12.5995 25.5307 12.9129 25.5526L12.9491 25.5561C13.0103 25.5634 13.0703 25.5688 13.1292 25.5739L13.2712 25.588C14.2102 25.6851 15.0337 25.3757 15.5922 24.7119C16.167 24.0281 16.3718 23.0672 16.1266 22.2041L16.1056 22.1332C15.9105 21.5067 15.4645 21.0137 14.8479 20.7421C14.2015 20.4572 13.4661 20.4648 12.8303 20.7633C12.0799 21.1159 11.4964 21.575 11.0963 22.1281C10.9854 22.2814 10.8176 22.3836 10.6309 22.4121C10.4449 22.4401 10.2532 22.3933 10.1021 22.2794C7.24815 20.1433 7.38979 17.4987 7.88231 16.3328L7.90378 16.2833C8.29274 16.5626 8.70561 16.8083 9.13729 17.0178C10.2803 17.5726 11.5552 17.8739 12.8674 17.8739C13.7275 17.8739 14.6035 17.7445 15.4692 17.472C17.6762 16.7779 19.4805 15.2655 20.55 13.2138C21.6195 11.162 21.8263 8.81632 21.1321 6.60907C20.5146 4.64488 19.2145 2.96176 17.4722 1.86972C17.1418 1.66273 16.7069 1.76276 16.4991 2.09316C16.2924 2.42317 16.3926 2.85875 16.7226 3.06575C18.1807 3.97971 19.2686 5.38848 19.7861 7.03277C20.367 8.8805 20.1939 10.8439 19.2985 12.5613C18.4035 14.2787 16.8929 15.5444 15.0456 16.1258C11.7808 17.1509 7.46117 15.6165 6.22826 11.6959C6.1114 11.3243 5.71548 11.1163 5.34333 11.2343C5.19942 11.2796 5.08023 11.3668 4.99502 11.4781C4.9438 11.524 4.89848 11.5783 4.86118 11.6404C3.43556 14.0111 3.12996 16.9992 4.0232 19.8385C4.07619 20.0071 4.13163 20.1728 4.18947 20.3354L4.24812 20.4972L1.86859 22.2559C0.677886 20.1057 0 17.632 0 15C0 6.71573 6.71573 0 15 0ZM7.80266 25.2442C8.06941 25.4172 8.34647 25.5727 8.6335 25.7105L8.77784 25.7779L7.57278 28.035C7.12067 27.7768 6.68329 27.4958 6.26221 27.1936L7.80266 25.2442ZM5.98529 23.6077C6.21934 23.8924 6.46692 24.157 6.7276 24.4013L6.84012 24.5047L5.30542 26.4468C4.90401 26.1065 4.52072 25.7454 4.15723 25.3653L5.98529 23.6077ZM4.73726 21.6443C4.87531 21.9267 5.0221 22.1976 5.17742 22.4568L5.27163 22.611L3.35391 24.4545C3.05192 24.083 2.76736 23.6968 2.50146 23.297L4.73726 21.6443ZM12.6065 2.92338C11.8542 3.16006 11.4362 3.96209 11.6729 4.71441C11.9096 5.46672 12.7113 5.88501 13.4637 5.64803C14.2163 5.41135 14.6343 4.60961 14.3976 3.8573C14.1609 3.10498 13.3592 2.6867 12.6065 2.92338Z" fill="#375FF3"/>
<path fill-rule="evenodd" clip-rule="evenodd" d="M25.0046 29.0328C23.7927 29.0328 22.656 28.4294 21.885 27.3298C21.7119 27.0824 21.7719 26.741 22.0193 26.5676C22.2669 26.3946 22.6078 26.4541 22.7814 26.7017C23.5105 27.7424 24.6289 28.1621 25.773 27.8251C25.9946 27.7599 26.2062 27.6674 26.4027 27.5503C26.6628 27.3958 26.9987 27.4808 27.1528 27.7401C27.3077 27.9996 27.2228 28.3353 26.9635 28.4901C26.6882 28.6542 26.3916 28.7835 26.0819 28.8748C25.7212 28.981 25.3596 29.0328 25.0046 29.0328Z" fill="#375FF3"/>
</svg>
