<svg width="120" height="120" viewBox="0 0 120 120" fill="none" xmlns="http://www.w3.org/2000/svg">
<path d="M52 2C52 0.89543 52.8954 0 54 0H94V40C94 41.1046 93.1046 42 92 42H52V2Z" fill="#638AFF"/>
<rect x="16" y="6" width="72" height="96" fill="#F0F6FF"/>
<rect x="28" y="28" width="48" height="12" fill="#E5E9FC"/>
<rect x="28" y="14" width="30" height="8" fill="url(#paint0_linear)"/>
<rect x="64" y="14" width="12" height="8" fill="url(#paint1_linear)"/>
<rect x="28" y="46" width="48" height="12" fill="#E5E9FC"/>
<rect x="28" y="64" width="48" height="12" fill="#E5E9FC"/>
<rect x="28" y="82" width="48" height="12" fill="#E5E9FC"/>
<rect y="89" width="32" height="1" fill="#ADBBF2"/>
<rect y="95" width="32" height="1" fill="#ADBBF2"/>
<circle opacity="0.2" cx="92" cy="92" r="28" fill="#9FB0F0"/>
<circle opacity="0.4" cx="92" cy="92" r="19.4783" fill="#9FB0F0"/>
<circle cx="92" cy="92" r="9" fill="#9FB0F0"/>
<path d="M92 93L110 100.53V101.51L103.16 104.16L100.52 111H99.54L92 93Z" fill="url(#paint2_linear)" stroke="white" stroke-width="2"/>
<defs>
<linearGradient id="paint0_linear" x1="43" y1="14" x2="43" y2="22" gradientUnits="userSpaceOnUse">
<stop stop-color="#FCD34D"/>
<stop offset="1" stop-color="#FBBF24"/>
</linearGradient>
<linearGradient id="paint1_linear" x1="70" y1="14" x2="70" y2="22" gradientUnits="userSpaceOnUse">
<stop stop-color="#FCD34D"/>
<stop offset="1" stop-color="#FBBF24"/>
</linearGradient>
<linearGradient id="paint2_linear" x1="101" y1="93" x2="101" y2="111" gradientUnits="userSpaceOnUse">
<stop stop-color="#FCD34D"/>
<stop offset="1" stop-color="#FBBF24"/>
</linearGradient>
</defs>
</svg>
