<svg width="84" height="84" viewBox="0 0 84 84" fill="none" xmlns="http://www.w3.org/2000/svg">
<path opacity="0.07" d="M83.9882 42.2493C82.5265 41.5585 81.4676 41.5398 80.8115 42.1933C80.1554 42.8375 79.8331 43.9298 79.8331 45.4703V53.7701C79.8331 55.3479 79.649 56.6549 79.2922 57.6912C78.9354 58.7649 78.3253 59.5304 77.4851 59.9785C76.6679 60.436 75.5629 60.5574 74.1587 60.3427C72.789 60.1373 71.074 59.5584 69.0252 58.5968L68.0469 58.1393V51.6041L69.2669 52.1736C70.7287 52.8645 71.7071 52.9485 72.202 52.4443C72.7199 51.9589 72.9847 50.9412 72.9847 49.4008V42.0906C72.9847 40.1861 73.2149 38.683 73.6753 37.572C74.1357 36.461 75.045 35.7608 76.4147 35.4433C75.045 33.8469 74.1357 32.2877 73.6753 30.7566C73.2149 29.2255 72.9962 27.5077 72.9962 25.6031V18.293C72.9962 16.7525 72.7315 15.5015 72.2135 14.5212C71.7301 13.5596 70.7517 12.738 69.2784 12.0471L68.0584 11.4776V4.94238L69.0367 5.39985C71.0855 6.36147 72.8005 7.3791 74.1702 8.46208C75.5744 9.5544 76.6794 10.7214 77.4966 11.9444C78.3483 13.1861 78.9469 14.5119 79.3037 15.9216C79.6605 17.294 79.8446 18.7784 79.8446 20.3469V28.6467C79.8446 30.1871 80.1669 31.5875 80.823 32.8386C81.4791 34.0989 82.538 35.0699 83.9998 35.7514L83.9882 42.2493Z" fill="url(#paint0_linear)"/>
<path opacity="0.07" d="M46.8689 18.2088C48.3307 18.8997 49.3896 18.9184 50.0457 18.2648C50.7018 17.6206 51.024 16.5283 51.024 14.9879V6.6881C51.024 5.1103 51.2082 3.80325 51.565 2.76695C51.9218 1.6933 52.5088 0.918403 53.3261 0.460935C54.1778 0.0128037 55.2828 -0.108565 56.6524 0.0968284C58.0567 0.311558 59.7832 0.899731 61.832 1.86135L62.8103 2.31881V8.85407L61.5902 8.28457C60.1285 7.5937 59.1271 7.50034 58.6091 7.98581C58.1257 8.48996 57.8725 9.50759 57.8725 11.048V18.3582C57.8725 20.2628 57.6423 21.7659 57.1819 22.8769C56.7215 23.9785 55.8122 24.688 54.4425 25.0055C55.8122 26.6019 56.7215 28.1611 57.1819 29.6922C57.6423 31.2233 57.861 32.9411 57.861 34.8457V42.1558C57.861 43.6963 58.1027 44.9473 58.5976 45.909C59.1156 46.8892 60.117 47.7201 61.5787 48.4017L62.7988 48.9712V55.5064L61.8204 55.049C59.7717 54.0874 58.0452 53.0604 56.6409 51.9681C55.2712 50.8851 54.1663 49.7274 53.3145 48.4857C52.4973 47.2627 51.9103 45.9463 51.5535 44.5272C51.1967 43.1548 51.0125 41.6704 51.0125 40.1019V31.8021C51.0125 30.2617 50.6903 28.8613 50.0342 27.6102C49.3781 26.3499 48.3192 25.3789 46.8574 24.6974L46.8689 18.2088Z" fill="url(#paint1_linear)"/>
<path d="M79.3847 45.0501C77.923 44.3593 76.864 44.3406 76.208 44.9941C75.5519 45.6383 75.2296 46.7306 75.2296 48.2711V56.5708C75.2296 58.1486 75.0455 59.4557 74.6886 60.492C74.3318 61.5656 73.7218 62.3312 72.8816 62.7793C72.0644 63.2368 70.9594 63.3582 69.5552 63.1434C68.1855 62.938 66.4705 62.3592 64.4217 61.3976L63.4434 60.9401V54.4049L64.6634 54.9744C66.1252 55.6652 67.1035 55.7493 67.5985 55.2451C68.1164 54.7596 68.3812 53.742 68.3812 52.2016V44.8914C68.3812 42.9868 68.6114 41.4837 69.0718 40.3727C69.5322 39.2618 70.4414 38.5616 71.8111 38.2441C70.4414 36.6477 69.5322 35.0885 69.0718 33.5574C68.6114 32.0263 68.3927 30.3085 68.3927 28.4039V21.0938C68.3927 19.5533 68.1279 18.3023 67.61 17.322C67.1266 16.3604 66.1482 15.5388 64.6749 14.8479L63.4549 14.2784V7.74316L64.4332 8.20063C66.482 9.16225 68.197 10.1799 69.5667 11.2629C70.9709 12.3552 72.0759 13.5222 72.8931 14.7452C73.7448 15.9869 74.3433 17.3126 74.7002 18.7224C75.057 20.0948 75.2411 21.5792 75.2411 23.1477V31.4475C75.2411 32.9879 75.5634 34.3883 76.2195 35.6394C76.8755 36.8997 77.9345 37.8707 79.3962 38.5522L79.3847 45.0501Z" fill="url(#paint2_linear)"/>
<path opacity="0.75" d="M42.2649 21.0096C43.7267 21.7005 44.7856 21.7191 45.4417 21.0656C46.0978 20.4214 46.42 19.3291 46.42 17.7886V9.48888C46.42 7.91108 46.6042 6.60403 46.961 5.56773C47.3178 4.49408 47.9048 3.71918 48.722 3.26172C49.5738 2.81359 50.6788 2.69222 52.0484 2.89761C53.4527 3.11234 55.1792 3.70051 57.228 4.66213L58.2063 5.1196V11.6548L56.9862 11.0853C55.5245 10.3945 54.5231 10.3011 54.0051 10.7866C53.5217 11.2907 53.2685 12.3084 53.2685 13.8488V21.159C53.2685 23.0635 53.0383 24.5666 52.5779 25.6776C52.1175 26.7793 51.2082 27.4888 49.8385 27.8063C51.2082 29.4027 52.1175 30.9619 52.5779 32.493C53.0383 34.0241 53.257 35.7419 53.257 37.6465V44.9566C53.257 46.4971 53.4987 47.7481 53.9936 48.7097C54.5116 49.69 55.513 50.5209 56.9747 51.2025L58.1948 51.772V58.3072L57.2164 57.8497C55.1677 56.8881 53.4412 55.8612 52.0369 54.7688C50.6672 53.6859 49.5623 52.5282 48.7105 51.2865C47.8933 50.0635 47.3063 48.7471 46.9495 47.328C46.5927 45.9556 46.4085 44.4712 46.4085 42.9027V34.6029C46.4085 33.0625 46.0863 31.6621 45.4302 30.411C44.7741 29.1507 43.7152 28.1797 42.2534 27.4982L42.2649 21.0096Z" fill="url(#paint3_linear)"/>
<path opacity="0.65" d="M16.7127 1.14258L36.3833 10.3573L36.3718 48.5698L16.7012 39.3551L16.7127 1.14258Z" fill="url(#paint4_linear)"/>
<path opacity="0.65" fill-rule="evenodd" clip-rule="evenodd" d="M13.0176 7.01465L28.6597 14.3435V17.8632L13.0176 10.5343V7.01465Z" fill="#99F6E4"/>
<path opacity="0.45" d="M19.1411 22.2891L34.1732 29.3285V34.7994L19.1411 27.76V22.2891Z" fill="white"/>
<path opacity="0.45" d="M19.1299 15.6694L34.185 22.7182V23.9879L19.1299 16.9485V15.6694Z" fill="white"/>
<path opacity="0.45" d="M19.1299 18.1528L32.1477 24.2493V25.519L19.1299 19.4225V18.1528Z" fill="white"/>
<path opacity="0.65" d="M16.7124 1.14258L36.383 10.3573V15.4828L16.7124 6.26808V1.14258Z" fill="url(#paint5_linear)"/>
<path opacity="0.2" d="M21.6276 6.03479C21.6276 6.80968 21.0636 7.17379 20.373 6.85636C19.6824 6.5296 19.1299 5.64267 19.1299 4.86778C19.1299 4.09288 19.6939 3.72878 20.3845 4.0462C21.0636 4.37297 21.6276 5.25989 21.6276 6.03479Z" fill="white"/>
<path opacity="0.85" d="M40.8836 36.5728L60.5542 45.7875L60.5427 84L40.8721 74.7853L40.8836 36.5728Z" fill="url(#paint6_linear)"/>
<path opacity="0.6" fill-rule="evenodd" clip-rule="evenodd" d="M48.3767 47.6924L64.0189 55.0119V58.5222L48.3652 51.2027L48.3767 47.6924Z" fill="#14B8A6"/>
<path opacity="0.25" d="M43.312 51.3237L58.3556 58.3725V63.8341L43.312 56.7853V51.3237Z" fill="white"/>
<path opacity="0.25" d="M43.2891 59.1289L58.3442 66.1776V67.4473L43.2891 60.4079V59.1289Z" fill="white"/>
<path opacity="0.25" d="M43.2891 61.4253L56.3069 67.5218V68.7915L43.2891 62.695V61.4253Z" fill="white"/>
<path opacity="0.75" d="M40.8833 36.5728L60.5539 45.7875V50.913L40.8833 41.6983V36.5728Z" fill="url(#paint7_linear)"/>
<path opacity="0.2" d="M45.7985 41.4742C45.7985 42.2491 45.2345 42.6132 44.5439 42.2958C43.8533 41.9691 43.3008 41.0821 43.3008 40.3072C43.3008 39.5323 43.8648 39.1682 44.5554 39.4857C45.2345 39.8031 45.7985 40.6993 45.7985 41.4742Z" fill="white"/>
<path opacity="0.75" d="M37.4767 41.867L3.23438 25.8369L3.24589 40.3172L34.4726 54.9375L37.4997 58.5692L37.4767 41.867Z" fill="url(#paint8_linear)"/>
<path opacity="0.15" d="M28.6715 41.2687L21.167 37.7583V39.028L28.6715 42.5384V41.2687Z" fill="white"/>
<path opacity="0.15" d="M28.6714 43.8174L10.0942 35.1162V36.3859L28.6829 45.0871L28.6714 43.8174Z" fill="white"/>
<path opacity="0.15" d="M28.683 46.3664L6.25 35.8633V37.133L28.683 47.6361V46.3664Z" fill="white"/>
<path fill-rule="evenodd" clip-rule="evenodd" d="M30.5244 43.4627C30.5244 44.6577 31.3992 46.0301 32.4696 46.5342C33.54 47.0384 34.4148 46.4782 34.4148 45.2832C34.4148 44.0882 33.54 42.7158 32.4696 42.2116C31.3877 41.7075 30.5244 42.2676 30.5244 43.4627Z" fill="url(#paint9_linear)"/>
<path opacity="0.25" d="M6.61844 15.6692L2.0835 13.5405V12.2988L6.61844 14.4275C6.98676 14.6048 7.52773 14.9503 7.98813 15.4918C8.48307 16.0706 8.83988 16.7988 8.83988 17.5924C8.83988 18.47 8.56364 18.9648 8.04568 19.1142C7.55075 19.2449 6.97525 19.0208 6.61844 18.8528L4.75382 17.9752L4.74231 17.9658C4.58117 17.8911 4.32795 17.8164 4.13228 17.8631C3.97114 17.9005 3.77547 18.0405 3.77547 18.526C3.77547 19.0115 3.95963 19.3102 4.12077 19.4876C4.31644 19.7117 4.56966 19.8704 4.7308 19.9357L4.75382 19.9451L10.4628 22.6152V23.8569L4.78835 21.1961C4.39701 21.0281 3.83302 20.6826 3.3496 20.1318C2.82014 19.525 2.45182 18.7594 2.45182 17.9005C2.45182 17.0509 2.82014 16.6121 3.33809 16.4907C3.82151 16.3787 4.3855 16.5467 4.77684 16.7335L6.62995 17.6017C6.89468 17.7231 7.10186 17.7791 7.22847 17.7418C7.33206 17.7138 7.51622 17.5924 7.51622 16.9669C7.51622 16.5561 7.35508 16.2947 7.19394 16.1079C7.00978 15.9026 6.76807 15.7345 6.61844 15.6692Z" fill="white"/>
<path opacity="0.65" fill-rule="evenodd" clip-rule="evenodd" d="M3.42998 13.6715C3.42998 14.7359 2.65881 15.2307 1.71499 14.7919C0.771171 14.3531 0 13.13 0 12.0657C0 11.0014 0.771171 10.5066 1.71499 10.9454C2.65881 11.3935 3.42998 12.6166 3.42998 13.6715Z" fill="#99F6E4"/>
<path opacity="0.65" fill-rule="evenodd" clip-rule="evenodd" d="M12.5228 23.9416C12.5228 25.0059 11.7516 25.5007 10.8078 25.0619C9.86394 24.6231 9.09277 23.4001 9.09277 22.3358C9.09277 21.2714 9.86394 20.7766 10.8078 21.2154C11.7516 21.6636 12.5228 22.8866 12.5228 23.9416Z" fill="#99F6E4"/>
<path opacity="0.45" d="M23.9699 47.6006C24.6605 47.9274 25.213 48.7023 25.213 49.3558V52.2033L27.538 53.2863C28.2286 53.6131 28.7811 54.388 28.7811 55.0415C28.7811 55.6857 28.2171 55.9471 27.538 55.6297L25.213 54.5467V57.3942C25.213 58.0384 24.649 58.2998 23.9699 57.9824C23.2793 57.6556 22.7268 56.8807 22.7268 56.2272V53.3797L20.4018 52.2967C19.7112 51.9699 19.1587 51.195 19.1587 50.5415C19.1587 49.8973 19.7227 49.6359 20.4018 49.9533L22.7268 51.0363V48.1888C22.7268 47.5353 23.2793 47.2739 23.9699 47.6006Z" fill="url(#paint10_linear)"/>
<path opacity="0.65" d="M39.5036 65.2408C40.1942 65.5675 40.7467 66.3424 40.7467 66.996V69.8435L43.0717 70.9264C43.7623 71.2532 44.3148 72.0281 44.3148 72.6816C44.3148 73.3258 43.7508 73.5872 43.0717 73.2698L40.7467 72.1868V75.0343C40.7467 75.6785 40.1827 75.9399 39.5036 75.6225C38.813 75.2957 38.2605 74.5208 38.2605 73.8673V71.0198L35.9355 69.9368C35.2449 69.6101 34.6924 68.8352 34.6924 68.1816C34.6924 67.5374 35.2564 67.276 35.9355 67.5935L38.2605 68.6764V65.8289C38.2605 65.1754 38.813 64.914 39.5036 65.2408Z" fill="url(#paint11_linear)"/>
<defs>
<linearGradient id="paint0_linear" x1="85.4905" y1="-42.5634" x2="52.9017" y2="-38.7787" gradientUnits="userSpaceOnUse">
<stop stop-color="white"/>
<stop offset="1" stop-color="white" stop-opacity="0.01"/>
</linearGradient>
<linearGradient id="paint1_linear" x1="71.8429" y1="-49.1184" x2="39.2602" y2="-45.3348" gradientUnits="userSpaceOnUse">
<stop stop-color="white"/>
<stop offset="1" stop-color="white" stop-opacity="0.01"/>
</linearGradient>
<linearGradient id="paint2_linear" x1="80.887" y1="-39.7626" x2="48.2982" y2="-35.9779" gradientUnits="userSpaceOnUse">
<stop stop-color="white"/>
<stop offset="1" stop-color="white" stop-opacity="0.01"/>
</linearGradient>
<linearGradient id="paint3_linear" x1="67.2389" y1="-46.3176" x2="34.6562" y2="-42.534" gradientUnits="userSpaceOnUse">
<stop stop-color="white"/>
<stop offset="1" stop-color="white" stop-opacity="0.01"/>
</linearGradient>
<linearGradient id="paint4_linear" x1="31.2638" y1="-12.1208" x2="7.47372" y2="-6.36314" gradientUnits="userSpaceOnUse">
<stop stop-color="white"/>
<stop offset="1" stop-color="white" stop-opacity="0.01"/>
</linearGradient>
<linearGradient id="paint5_linear" x1="14.0205" y1="3.40216" x2="17.3444" y2="17.7861" gradientUnits="userSpaceOnUse">
<stop stop-color="white"/>
<stop offset="1" stop-color="white" stop-opacity="0.01"/>
</linearGradient>
<linearGradient id="paint6_linear" x1="55.4347" y1="23.3094" x2="31.6446" y2="29.0671" gradientUnits="userSpaceOnUse">
<stop stop-color="white"/>
<stop offset="1" stop-color="white" stop-opacity="0.01"/>
</linearGradient>
<linearGradient id="paint7_linear" x1="38.1922" y1="38.8342" x2="41.5161" y2="53.2181" gradientUnits="userSpaceOnUse">
<stop stop-color="white"/>
<stop offset="1" stop-color="white" stop-opacity="0.01"/>
</linearGradient>
<linearGradient id="paint8_linear" x1="24.1354" y1="27.6292" x2="6.95496" y2="39.5863" gradientUnits="userSpaceOnUse">
<stop stop-color="white"/>
<stop offset="1" stop-color="white" stop-opacity="0.01"/>
</linearGradient>
<linearGradient id="paint9_linear" x1="32.4696" y1="42.0264" x2="32.4696" y2="46.7195" gradientUnits="userSpaceOnUse">
<stop stop-color="#A5B4FC"/>
<stop offset="1" stop-color="#818CF8"/>
</linearGradient>
<linearGradient id="paint10_linear" x1="24.6375" y1="47.9079" x2="18.3173" y2="51.2039" gradientUnits="userSpaceOnUse">
<stop stop-color="white"/>
<stop offset="1" stop-color="white" stop-opacity="0.01"/>
</linearGradient>
<linearGradient id="paint11_linear" x1="40.1712" y1="65.548" x2="33.851" y2="68.844" gradientUnits="userSpaceOnUse">
<stop stop-color="white"/>
<stop offset="1" stop-color="white" stop-opacity="0.01"/>
</linearGradient>
</defs>
</svg>
