<svg width="472" height="365" viewBox="0 0 472 365" fill="none" xmlns="http://www.w3.org/2000/svg">
<g filter="url(#filter0_d)">
<path d="M402.563 57H69.4372C62.016 57 56 63.016 56 70.4372V277.076C56 284.497 62.0161 290.514 69.4372 290.514H402.563C409.984 290.514 416 284.497 416 277.076V70.4372C416 63.016 409.984 57 402.563 57Z" fill="white"/>
</g>
<g filter="url(#filter1_d)">
<path d="M410.961 57H59.3593C57.504 57 56 58.504 56 60.3593V73.1663H416V62.0389C416 59.256 413.744 57 410.961 57Z" fill="url(#paint0_linear)"/>
</g>
<path d="M380 82H92C89.7909 82 88 83.7909 88 86V277.385C88 279.594 89.7909 281.385 92 281.385H380C382.209 281.385 384 279.594 384 277.385V86C384 83.7909 382.209 82 380 82Z" fill="url(#paint1_radial)"/>
<path d="M67.193 67.7759C68.6549 67.7759 69.84 66.5695 69.84 65.0815C69.84 63.5934 68.6549 62.3871 67.193 62.3871C65.731 62.3871 64.5459 63.5934 64.5459 65.0815C64.5459 66.5695 65.731 67.7759 67.193 67.7759Z" fill="#E2E8F0"/>
<path d="M77.972 67.7759C79.4339 67.7759 80.6191 66.5695 80.6191 65.0815C80.6191 63.5934 79.4339 62.3871 77.972 62.3871C76.5101 62.3871 75.325 63.5934 75.325 65.0815C75.325 66.5695 76.5101 67.7759 77.972 67.7759Z" fill="#E2E8F0"/>
<path d="M88.7508 67.7759C90.2128 67.7759 91.3979 66.5695 91.3979 65.0815C91.3979 63.5934 90.2128 62.3871 88.7508 62.3871C87.2889 62.3871 86.1038 63.5934 86.1038 65.0815C86.1038 66.5695 87.2889 67.7759 88.7508 67.7759Z" fill="#E2E8F0"/>
<g filter="url(#filter2_d)">
<path d="M197 101.111C197 98.2883 199.288 96 202.111 96H271.111C273.934 96 276.222 98.2883 276.222 101.111V111.333C276.222 114.156 273.934 116.444 271.111 116.444H202.111C199.288 116.444 197 114.156 197 111.333V101.111Z" fill="#FFBD4D"/>
<g clip-path="url(#clip0)">
<path d="M207.648 104.306H209.778V105.157H207.648V104.306ZM207.648 107.287H209.778V108.139H207.648V107.287ZM210.204 102.389H204.241C203.772 102.389 203.389 102.772 203.389 103.241V109.204C203.389 109.672 203.772 110.056 204.241 110.056H210.204C210.672 110.056 211.056 109.672 211.056 109.204V103.241C211.056 102.772 210.672 102.389 210.204 102.389ZM210.204 109.204H204.241V103.241H210.204V109.204ZM206.796 103.667H204.667V105.796H206.796V103.667ZM206.37 105.37H205.093V104.093H206.37V105.37ZM206.796 106.648H204.667V108.778H206.796V106.648ZM206.37 108.352H205.093V107.074H206.37V108.352Z" fill="white"/>
</g>
<path d="M217.557 107.871C216.882 108.14 216.093 108.354 215.196 108.515L215.265 109.052C216.123 108.891 216.882 108.669 217.557 108.393V107.871ZM216.622 102.451C216.3 103.325 215.916 104.107 215.479 104.789C215.41 104.889 215.334 104.958 215.249 104.989L215.387 105.495C215.832 105.441 216.277 105.38 216.721 105.311C216.292 106.001 215.924 106.484 215.617 106.775C215.548 106.836 215.464 106.89 215.364 106.928L215.51 107.427C216.254 107.335 217.036 107.174 217.848 106.928V106.43C217.296 106.599 216.737 106.737 216.185 106.836C216.66 106.307 217.25 105.418 217.971 104.176L217.488 104C217.327 104.283 217.174 104.552 217.028 104.812C216.66 104.874 216.292 104.92 215.924 104.958C216.338 104.391 216.744 103.624 217.143 102.658L216.622 102.451ZM218.715 103.294V103.708C218.699 106.185 218.193 107.979 217.197 109.098L217.603 109.458C218.377 108.584 218.883 107.335 219.113 105.717C219.351 106.499 219.704 107.204 220.164 107.825C219.727 108.285 219.182 108.676 218.538 108.991L218.845 109.497C219.504 109.175 220.072 108.776 220.532 108.285C220.915 108.73 221.383 109.129 221.919 109.481L222.264 109.021C221.728 108.684 221.26 108.308 220.861 107.879C221.413 107.151 221.766 106.254 221.927 105.196V104.889H220.953C221.076 104.398 221.199 103.808 221.321 103.118V102.773H217.956V103.294H218.715ZM220.486 107.442C219.842 106.622 219.42 105.648 219.228 104.529C219.244 104.268 219.251 103.992 219.251 103.708V103.294H220.754C220.593 104.207 220.447 104.897 220.309 105.372H221.375C221.222 106.162 220.93 106.852 220.486 107.442ZM226.082 104.13V104.651H227.585V105.004C227.577 105.341 227.554 105.663 227.524 105.97H225.967V106.499H227.447C227.209 107.695 226.657 108.554 225.799 109.075L226.128 109.512C227.002 108.945 227.593 108.071 227.892 106.89C228.114 107.741 228.666 108.607 229.548 109.481L229.931 109.075C228.98 108.201 228.413 107.342 228.229 106.499H229.816V105.97H228.053C228.091 105.625 228.114 105.265 228.114 104.881V104.651H229.686V104.13H228.543C228.789 103.731 229.019 103.248 229.249 102.666L228.743 102.474C228.536 103.064 228.283 103.616 227.991 104.13H226.082ZM226.841 102.52L226.42 102.788C226.726 103.233 226.964 103.632 227.14 104L227.554 103.716C227.386 103.371 227.148 102.972 226.841 102.52ZM222.908 102.773V103.287H223.376V107.986L222.893 108.063L223.031 108.584C223.69 108.462 224.319 108.316 224.932 108.163V109.527H225.461V108.017C225.63 107.971 225.806 107.917 225.975 107.864V107.327C225.806 107.381 225.638 107.434 225.461 107.496V103.287H225.96V102.773H222.908ZM223.905 107.887V106.514H224.932V107.649C224.595 107.733 224.258 107.81 223.905 107.887ZM223.905 106.008V104.912H224.932V106.008H223.905ZM223.905 104.414V103.287H224.932V104.414H223.905ZM231.188 102.581L230.813 102.942C231.357 103.371 231.786 103.777 232.101 104.161L232.484 103.777C232.131 103.379 231.702 102.98 231.188 102.581ZM235.643 109.351H237.421L237.559 108.799C237.352 108.814 237.061 108.822 236.693 108.83C236.31 108.837 235.934 108.845 235.566 108.845C234.968 108.845 234.462 108.837 234.063 108.83C233.603 108.814 233.258 108.753 233.021 108.646C232.806 108.546 232.607 108.385 232.423 108.163C232.361 108.094 232.3 108.032 232.239 107.986V105.119H230.636V105.625H231.725V107.956C231.403 108.094 231.043 108.492 230.629 109.144L231.043 109.52C231.472 108.799 231.779 108.446 231.97 108.446C232.062 108.446 232.162 108.508 232.269 108.638C232.507 108.914 232.775 109.106 233.074 109.198C233.381 109.282 233.787 109.328 234.278 109.336C234.769 109.343 235.229 109.351 235.643 109.351ZM234.983 102.436V103.417H233.971C234.063 103.172 234.148 102.919 234.224 102.65L233.695 102.543C233.511 103.233 233.212 103.869 232.798 104.444L233.281 104.743C233.45 104.498 233.603 104.237 233.741 103.946H234.983V105.042H232.99V105.579H234.224C234.201 106.054 234.125 106.468 233.994 106.806C233.795 107.266 233.389 107.649 232.768 107.956L233.128 108.393C233.849 108.017 234.316 107.534 234.516 106.951C234.646 106.568 234.723 106.108 234.746 105.579H235.52V107.756C235.52 107.925 235.566 108.063 235.673 108.17C235.773 108.278 235.919 108.331 236.118 108.331H236.67C236.931 108.324 237.115 108.262 237.222 108.155C237.337 108.032 237.421 107.657 237.467 107.02L236.984 106.859C236.954 107.404 236.892 107.71 236.8 107.779C236.739 107.825 236.662 107.848 236.555 107.848H236.279C236.11 107.848 236.034 107.772 236.034 107.634V105.579H237.322V105.042H235.52V103.946H237.053V103.417H235.52V102.436H234.983ZM241.055 102.765V103.264H241.439C241.653 103.846 241.998 104.329 242.481 104.72C242.006 104.95 241.439 105.134 240.787 105.288L241.048 105.755C241.791 105.571 242.435 105.341 242.972 105.05C243.524 105.372 244.229 105.594 245.073 105.709L245.272 105.219C244.574 105.127 243.976 104.966 243.486 104.736C244.068 104.322 244.467 103.823 244.689 103.225V102.765H241.055ZM241.983 103.264H244.107C243.869 103.724 243.493 104.115 242.972 104.444C242.52 104.138 242.19 103.739 241.983 103.264ZM239.131 109.42C239.583 109.42 239.813 109.198 239.813 108.753V106.553C240.112 106.43 240.404 106.3 240.687 106.162V105.602C240.396 105.748 240.105 105.886 239.813 106.008V104.46H240.672V103.931H239.813V102.482H239.246V103.931H238.311V104.46H239.246V106.215C238.901 106.33 238.548 106.43 238.188 106.514L238.326 107.066C238.633 106.974 238.939 106.875 239.246 106.767V108.607C239.246 108.807 239.139 108.914 238.939 108.914C238.748 108.914 238.548 108.899 238.349 108.883L238.464 109.42H239.131ZM241.186 106.307V106.813H242.719V107.687H240.795V108.201H242.719V109.412H243.256V108.201H245.157V107.687H243.256V106.813H244.766V106.307H243.256V105.633H242.719V106.307H241.186ZM246.629 102.75V104.613H248.967V102.75H246.629ZM248.461 104.145H247.127V103.225H248.461V104.145ZM249.818 102.75V104.613H252.203V102.75H249.818ZM251.704 104.145H250.324V103.225H251.704V104.145ZM246.008 105.38V105.87H248.124C247.587 106.33 246.836 106.706 245.855 106.997L246.108 107.45C246.322 107.381 246.529 107.312 246.736 107.235V109.497H247.219V109.167H248.53V109.497H249.021V107.082H247.097C247.817 106.76 248.392 106.361 248.822 105.87H250.117C250.501 106.338 251.068 106.744 251.804 107.082H249.757V109.497H250.248V109.167H251.681V109.497H252.172V107.243C252.341 107.304 252.517 107.373 252.709 107.434L252.931 106.967C251.942 106.698 251.198 106.33 250.7 105.87H252.77V105.38H251.712C251.589 105.142 251.451 104.92 251.29 104.705L250.823 104.858C250.945 105.012 251.06 105.188 251.168 105.38H249.19C249.297 105.196 249.397 105.012 249.473 104.812L248.944 104.759C248.852 104.973 248.737 105.18 248.592 105.38H246.008ZM247.219 108.692V107.542H248.53V108.692H247.219ZM250.248 108.692V107.542H251.681V108.692H250.248Z" fill="white"/>
</g>
<g filter="url(#filter3_b)">
<rect x="417" y="330" width="16" height="16" rx="8" fill="white" fill-opacity="0.2"/>
</g>
<path opacity="0.65" d="M153.1 32.1C156.5 31.2 159.8 29.8 162.8 28C159.8 26.1 156.5 24.7 153.1 23.8C149.6 22.9 146.9 20.2 146 16.7C145.1 13.3 143.8 10 141.9 7C140 10 138.6 13.3 137.8 16.7C136.9 20.2 134.2 22.9 130.7 23.8C127.3 24.7 124 26.1 121 27.9C124 29.8 127.3 31.2 130.7 32C134.2 32.9 136.9 35.6 137.8 39.1C138.7 42.5 140.1 45.8 141.9 48.8C143.8 45.8 145.2 42.5 146.1 39.1C147 35.7 149.6 33 153.1 32.1Z" fill="url(#paint2_linear)"/>
<path opacity="0.32" d="M358.117 54.2938C360.459 53.6737 362.733 52.7091 364.8 51.4689C362.733 50.1598 360.459 49.1952 358.117 48.5751C355.705 47.955 353.845 46.0947 353.225 43.6833C352.605 41.3407 351.709 39.067 350.4 37C349.091 39.067 348.126 41.3407 347.575 43.6833C346.955 46.0947 345.095 47.955 342.683 48.5751C340.341 49.1952 338.067 50.1598 336 51.4C338.067 52.7091 340.341 53.6737 342.683 54.2249C345.095 54.845 346.955 56.7053 347.575 59.1168C348.195 61.4593 349.16 63.733 350.4 65.8C351.709 63.733 352.674 61.4593 353.294 59.1168C353.914 56.7742 355.705 54.9139 358.117 54.2938Z" fill="url(#paint3_linear)"/>
<path d="M66.9385 274.237L80.8261 290.916L68.3702 291.203L66.9385 274.237Z" fill="#64748B"/>
<g filter="url(#filter4_d)">
<path d="M67.5825 309.242C68.2983 309.6 69.2289 309.314 69.5869 308.598C69.73 308.383 69.8016 308.097 69.73 307.811L68.3699 291.274L66.9382 274.309C66.8666 273.521 66.1507 272.877 65.3633 273.02C65.1485 273.02 65.0054 273.092 64.7906 273.163L49.9008 281.467L35.3689 289.556C34.6531 289.914 34.3667 290.845 34.7962 291.561C34.9394 291.847 35.1542 291.99 35.3689 292.133L42.6706 296.071L30.95 317.856C30.4257 318.831 30.7924 320.046 31.7682 320.568L45.7748 328.057C46.7489 328.578 47.9607 328.21 48.4816 327.236L60.2091 305.305L67.5825 309.242Z" fill="url(#paint4_linear)"/>
</g>
<g filter="url(#filter5_d)">
<rect x="151" y="147" width="171" height="80" rx="4" fill="white"/>
</g>
<rect x="175" y="171" width="139" height="8" rx="4" fill="#E6ECF9"/>
<path d="M172.53 173.863L171 175.39L169.47 173.863L169 174.333L171 176.333L173 174.333L172.53 173.863Z" fill="#CBD5E1"/>
<rect x="175" y="207" width="141" height="8" rx="4" fill="#E6ECF9"/>
<path d="M172.53 209.863L171 211.39L169.47 209.863L169 210.333L171 212.333L173 210.333L172.53 209.863Z" fill="#CBD5E1"/>
<path d="M160.53 161.863L159 163.39L157.47 161.863L157 162.333L159 164.333L161 162.333L160.53 161.863Z" fill="#B5CCFF"/>
<rect x="164" y="160" width="151" height="6" rx="3" fill="#E6ECF9" stroke="#B5CCFF" stroke-width="2"/>
<rect x="183" y="183" width="133" height="8" rx="4" fill="#E6ECF9"/>
<rect x="183" y="195" width="133" height="8" rx="4" fill="#E6ECF9"/>
<path d="M436.185 308.278C439.217 306.495 442.017 304.257 444.421 301.715C441.02 300.694 437.464 300.236 433.948 300.286C430.335 300.362 427.007 298.49 425.197 295.362C423.413 292.331 421.272 289.503 418.634 287.126C417.613 290.528 417.154 294.083 417.3 297.573C417.377 301.186 415.505 304.513 412.377 306.324C409.345 308.107 406.545 310.344 404.141 312.886C407.542 313.907 411.097 314.366 414.587 314.22C418.2 314.143 421.528 316.016 423.338 319.143C425.121 322.175 427.359 324.975 429.901 327.379C430.922 323.978 431.381 320.423 431.331 316.906C431.281 313.389 433.057 310.088 436.185 308.278Z" fill="url(#paint5_linear)"/>
<g filter="url(#filter6_b)">
<path d="M436.185 308.278C439.217 306.495 442.017 304.257 444.421 301.715C441.02 300.694 437.464 300.236 433.948 300.286C430.335 300.362 427.007 298.49 425.197 295.362C423.413 292.331 421.272 289.503 418.634 287.126C417.613 290.528 417.154 294.083 417.3 297.573C417.377 301.186 415.505 304.513 412.377 306.324C409.345 308.107 406.545 310.344 404.141 312.886C407.542 313.907 411.097 314.366 414.587 314.22C418.2 314.143 421.528 316.016 423.338 319.143C425.121 322.175 427.359 324.975 429.901 327.379C430.922 323.978 431.381 320.423 431.331 316.906C431.281 313.389 433.057 310.088 436.185 308.278Z" fill="url(#paint6_linear)" fill-opacity="0.33"/>
</g>
<path d="M151.5 128C151.5 127.172 152.172 126.5 153 126.5H318C319.933 126.5 321.5 128.067 321.5 130V140C321.5 141.933 319.933 143.5 318 143.5H155C153.067 143.5 151.5 141.933 151.5 140V128Z" fill="white"/>
<path d="M170.684 132.098V132.488H169.232V132.842H170.684V133.244H169.472V133.592H170.684V134H169.064V134.36H172.736V134H171.098V133.592H172.37V133.244H171.098V132.842H172.586V132.488H171.098V132.098H170.684ZM169.934 135.872H171.872V136.31H169.934V135.872ZM171.872 135.536H169.934V135.092H171.872V135.536ZM169.934 136.646H171.872V136.988C171.872 137.126 171.794 137.198 171.65 137.198L171.17 137.18L171.272 137.564H171.776C172.112 137.564 172.286 137.402 172.286 137.078V134.738H169.52V137.6H169.934V136.646ZM167.978 132.164L167.672 132.458C168.104 132.782 168.446 133.088 168.698 133.376L168.992 133.076C168.716 132.77 168.38 132.464 167.978 132.164ZM167.252 133.934V134.348H168.11V136.73C168.11 136.832 168.062 136.922 167.972 137.006L168.14 137.39C168.512 137.12 168.872 136.808 169.208 136.46L169.094 136.004C168.89 136.214 168.704 136.4 168.524 136.568V133.934H167.252ZM173.756 132.194L173.462 132.476C173.888 132.812 174.224 133.13 174.47 133.43L174.77 133.13C174.494 132.818 174.158 132.506 173.756 132.194ZM177.242 137.492H178.634L178.742 137.06C178.58 137.072 178.352 137.078 178.064 137.084C177.764 137.09 177.47 137.096 177.182 137.096C176.714 137.096 176.318 137.09 176.006 137.084C175.646 137.072 175.376 137.024 175.19 136.94C175.022 136.862 174.866 136.736 174.722 136.562C174.674 136.508 174.626 136.46 174.578 136.424V134.18H173.324V134.576H174.176V136.4C173.924 136.508 173.642 136.82 173.318 137.33L173.642 137.624C173.978 137.06 174.218 136.784 174.368 136.784C174.44 136.784 174.518 136.832 174.602 136.934C174.788 137.15 174.998 137.3 175.232 137.372C175.472 137.438 175.79 137.474 176.174 137.48C176.558 137.486 176.918 137.492 177.242 137.492ZM176.726 132.08V132.848H175.934C176.006 132.656 176.072 132.458 176.132 132.248L175.718 132.164C175.574 132.704 175.34 133.202 175.016 133.652L175.394 133.886C175.526 133.694 175.646 133.49 175.754 133.262H176.726V134.12H175.166V134.54H176.132C176.114 134.912 176.054 135.236 175.952 135.5C175.796 135.86 175.478 136.16 174.992 136.4L175.274 136.742C175.838 136.448 176.204 136.07 176.36 135.614C176.462 135.314 176.522 134.954 176.54 134.54H177.146V136.244C177.146 136.376 177.182 136.484 177.266 136.568C177.344 136.652 177.458 136.694 177.614 136.694H178.046C178.25 136.688 178.394 136.64 178.478 136.556C178.568 136.46 178.634 136.166 178.67 135.668L178.292 135.542C178.268 135.968 178.22 136.208 178.148 136.262C178.1 136.298 178.04 136.316 177.956 136.316H177.74C177.608 136.316 177.548 136.256 177.548 136.148V134.54H178.556V134.12H177.146V133.262H178.346V132.848H177.146V132.08H176.726ZM181.478 132.338V132.728H181.778C181.946 133.184 182.216 133.562 182.594 133.868C182.222 134.048 181.778 134.192 181.268 134.312L181.472 134.678C182.054 134.534 182.558 134.354 182.978 134.126C183.41 134.378 183.962 134.552 184.622 134.642L184.778 134.258C184.232 134.186 183.764 134.06 183.38 133.88C183.836 133.556 184.148 133.166 184.322 132.698V132.338H181.478ZM182.204 132.728H183.866C183.68 133.088 183.386 133.394 182.978 133.652C182.624 133.412 182.366 133.1 182.204 132.728ZM179.972 137.546C180.326 137.546 180.506 137.372 180.506 137.024V135.302C180.74 135.206 180.968 135.104 181.19 134.996V134.558C180.962 134.672 180.734 134.78 180.506 134.876V133.664H181.178V133.25H180.506V132.116H180.062V133.25H179.33V133.664H180.062V135.038C179.792 135.128 179.516 135.206 179.234 135.272L179.342 135.704C179.582 135.632 179.822 135.554 180.062 135.47V136.91C180.062 137.066 179.978 137.15 179.822 137.15C179.672 137.15 179.516 137.138 179.36 137.126L179.45 137.546H179.972ZM181.58 135.11V135.506H182.78V136.19H181.274V136.592H182.78V137.54H183.2V136.592H184.688V136.19H183.2V135.506H184.382V135.11H183.2V134.582H182.78V135.11H181.58Z" fill="#94A3B8"/>
<path d="M297.705 136.705L300 134.415L302.295 136.705L303 136L300 133L297 136L297.705 136.705Z" fill="#475569"/>
<path d="M151.5 128C151.5 127.172 152.172 126.5 153 126.5H318C319.933 126.5 321.5 128.067 321.5 130V140C321.5 141.933 319.933 143.5 318 143.5H155C153.067 143.5 151.5 141.933 151.5 140V128Z" stroke="#375FF3"/>
<defs>
<filter id="filter0_d" x="8.96987" y="23.407" width="454.06" height="327.574" filterUnits="userSpaceOnUse" color-interpolation-filters="sRGB">
<feFlood flood-opacity="0" result="BackgroundImageFix"/>
<feColorMatrix in="SourceAlpha" type="matrix" values="0 0 0 0 0 0 0 0 0 0 0 0 0 0 0 0 0 0 127 0" result="hardAlpha"/>
<feMorphology radius="6.71859" operator="dilate" in="SourceAlpha" result="effect1_dropShadow"/>
<feOffset dy="13.4372"/>
<feGaussianBlur stdDeviation="20.1558"/>
<feColorMatrix type="matrix" values="0 0 0 0 0.580392 0 0 0 0 0.639216 0 0 0 0 0.721569 0 0 0 0.25 0"/>
<feBlend mode="normal" in2="BackgroundImageFix" result="effect1_dropShadow"/>
<feBlend mode="normal" in="SourceGraphic" in2="effect1_dropShadow" result="shape"/>
</filter>
<filter id="filter1_d" x="0.25" y="19.8333" width="471.5" height="127.666" filterUnits="userSpaceOnUse" color-interpolation-filters="sRGB">
<feFlood flood-opacity="0" result="BackgroundImageFix"/>
<feColorMatrix in="SourceAlpha" type="matrix" values="0 0 0 0 0 0 0 0 0 0 0 0 0 0 0 0 0 0 127 0" result="hardAlpha"/>
<feOffset dy="18.5833"/>
<feGaussianBlur stdDeviation="27.875"/>
<feComposite in2="hardAlpha" operator="out"/>
<feColorMatrix type="matrix" values="0 0 0 0 0.215686 0 0 0 0 0.372549 0 0 0 0 0.952941 0 0 0 0.25 0"/>
<feBlend mode="normal" in2="BackgroundImageFix" result="effect1_dropShadow"/>
<feBlend mode="normal" in="SourceGraphic" in2="effect1_dropShadow" result="shape"/>
</filter>
<filter id="filter2_d" x="169" y="76" width="135.222" height="76.4445" filterUnits="userSpaceOnUse" color-interpolation-filters="sRGB">
<feFlood flood-opacity="0" result="BackgroundImageFix"/>
<feColorMatrix in="SourceAlpha" type="matrix" values="0 0 0 0 0 0 0 0 0 0 0 0 0 0 0 0 0 0 127 0" result="hardAlpha"/>
<feMorphology radius="4" operator="dilate" in="SourceAlpha" result="effect1_dropShadow"/>
<feOffset dy="8"/>
<feGaussianBlur stdDeviation="12"/>
<feColorMatrix type="matrix" values="0 0 0 0 0.580392 0 0 0 0 0.639216 0 0 0 0 0.721569 0 0 0 0.25 0"/>
<feBlend mode="normal" in2="BackgroundImageFix" result="effect1_dropShadow"/>
<feBlend mode="normal" in="SourceGraphic" in2="effect1_dropShadow" result="shape"/>
</filter>
<filter id="filter3_b" x="395" y="308" width="60" height="60" filterUnits="userSpaceOnUse" color-interpolation-filters="sRGB">
<feFlood flood-opacity="0" result="BackgroundImageFix"/>
<feGaussianBlur in="BackgroundImage" stdDeviation="11"/>
<feComposite in2="SourceAlpha" operator="in" result="effect1_backgroundBlur"/>
<feBlend mode="normal" in="SourceGraphic" in2="effect1_backgroundBlur" result="shape"/>
</filter>
<filter id="filter4_d" x="2.71094" y="253" width="95.0471" height="111.294" filterUnits="userSpaceOnUse" color-interpolation-filters="sRGB">
<feFlood flood-opacity="0" result="BackgroundImageFix"/>
<feColorMatrix in="SourceAlpha" type="matrix" values="0 0 0 0 0 0 0 0 0 0 0 0 0 0 0 0 0 0 127 0" result="hardAlpha"/>
<feMorphology radius="4" operator="dilate" in="SourceAlpha" result="effect1_dropShadow"/>
<feOffset dy="8"/>
<feGaussianBlur stdDeviation="12"/>
<feColorMatrix type="matrix" values="0 0 0 0 0.580392 0 0 0 0 0.639216 0 0 0 0 0.721569 0 0 0 0.25 0"/>
<feBlend mode="normal" in2="BackgroundImageFix" result="effect1_dropShadow"/>
<feBlend mode="normal" in="SourceGraphic" in2="effect1_dropShadow" result="shape"/>
</filter>
<filter id="filter5_d" x="123" y="127" width="227" height="136" filterUnits="userSpaceOnUse" color-interpolation-filters="sRGB">
<feFlood flood-opacity="0" result="BackgroundImageFix"/>
<feColorMatrix in="SourceAlpha" type="matrix" values="0 0 0 0 0 0 0 0 0 0 0 0 0 0 0 0 0 0 127 0" result="hardAlpha"/>
<feMorphology radius="4" operator="dilate" in="SourceAlpha" result="effect1_dropShadow"/>
<feOffset dy="8"/>
<feGaussianBlur stdDeviation="12"/>
<feColorMatrix type="matrix" values="0 0 0 0 0.580392 0 0 0 0 0.639216 0 0 0 0 0.721569 0 0 0 0.25 0"/>
<feBlend mode="normal" in2="BackgroundImageFix" result="effect1_dropShadow"/>
<feBlend mode="normal" in="SourceGraphic" in2="effect1_dropShadow" result="shape"/>
</filter>
<filter id="filter6_b" x="376.507" y="259.493" width="95.5203" height="95.5202" filterUnits="userSpaceOnUse" color-interpolation-filters="sRGB">
<feFlood flood-opacity="0" result="BackgroundImageFix"/>
<feGaussianBlur in="BackgroundImage" stdDeviation="11"/>
<feComposite in2="SourceAlpha" operator="in" result="effect1_backgroundBlur"/>
<feBlend mode="normal" in="SourceGraphic" in2="effect1_backgroundBlur" result="shape"/>
</filter>
<linearGradient id="paint0_linear" x1="56" y1="65.0831" x2="416" y2="65.0831" gradientUnits="userSpaceOnUse">
<stop stop-color="#638AFF"/>
<stop offset="1" stop-color="#375FF3"/>
</linearGradient>
<radialGradient id="paint1_radial" cx="0" cy="0" r="1" gradientUnits="userSpaceOnUse" gradientTransform="translate(231.611 82.0075) rotate(88.7388) scale(199.425 295.918)">
<stop offset="0.392276" stop-color="#E6ECF9" stop-opacity="0.65"/>
<stop offset="1" stop-color="#E6ECF9" stop-opacity="0.15"/>
</radialGradient>
<linearGradient id="paint2_linear" x1="141.9" y1="7" x2="141.9" y2="48.8" gradientUnits="userSpaceOnUse">
<stop stop-color="#A5B4FC"/>
<stop offset="1" stop-color="#818CF8"/>
</linearGradient>
<linearGradient id="paint3_linear" x1="350.4" y1="37" x2="350.4" y2="65.8" gradientUnits="userSpaceOnUse">
<stop stop-color="#F0ABFC"/>
<stop offset="1" stop-color="#E879F9"/>
</linearGradient>
<linearGradient id="paint4_linear" x1="49.8791" y1="273" x2="49.8791" y2="329" gradientUnits="userSpaceOnUse">
<stop stop-color="#6EE7B7"/>
<stop offset="1" stop-color="#34D399"/>
</linearGradient>
<linearGradient id="paint5_linear" x1="418.634" y1="287.126" x2="429.901" y2="327.379" gradientUnits="userSpaceOnUse">
<stop stop-color="#FCA5A5"/>
<stop offset="1" stop-color="#F87171"/>
</linearGradient>
<linearGradient id="paint6_linear" x1="418.634" y1="287.126" x2="429.901" y2="327.379" gradientUnits="userSpaceOnUse">
<stop stop-color="#FCA5A5"/>
<stop offset="1" stop-color="#F87171"/>
</linearGradient>
<clipPath id="clip0">
<rect width="10.2222" height="10.2222" fill="white" transform="translate(202.111 101.111)"/>
</clipPath>
</defs>
</svg>
