<svg width="472" height="365" viewBox="0 0 472 365" fill="none" xmlns="http://www.w3.org/2000/svg">
<g filter="url(#filter0_d)">
<path d="M402.563 57H69.4372C62.016 57 56 63.016 56 70.4372V277.076C56 284.497 62.0161 290.514 69.4372 290.514H402.563C409.984 290.514 416 284.497 416 277.076V70.4372C416 63.016 409.984 57 402.563 57Z" fill="white"/>
</g>
<g filter="url(#filter1_d)">
<path d="M410.961 57H59.3593C57.504 57 56 58.504 56 60.3593V73.1663H416V62.0389C416 59.256 413.744 57 410.961 57Z" fill="url(#paint0_linear)"/>
</g>
<path d="M67.193 67.7759C68.6549 67.7759 69.84 66.5695 69.84 65.0815C69.84 63.5934 68.6549 62.3871 67.193 62.3871C65.731 62.3871 64.5459 63.5934 64.5459 65.0815C64.5459 66.5695 65.731 67.7759 67.193 67.7759Z" fill="#E2E8F0"/>
<path d="M77.972 67.7759C79.4339 67.7759 80.6191 66.5695 80.6191 65.0815C80.6191 63.5934 79.4339 62.3871 77.972 62.3871C76.5101 62.3871 75.325 63.5934 75.325 65.0815C75.325 66.5695 76.5101 67.7759 77.972 67.7759Z" fill="#E2E8F0"/>
<path d="M88.7508 67.7759C90.2128 67.7759 91.3979 66.5695 91.3979 65.0815C91.3979 63.5934 90.2128 62.3871 88.7508 62.3871C87.2889 62.3871 86.1038 63.5934 86.1038 65.0815C86.1038 66.5695 87.2889 67.7759 88.7508 67.7759Z" fill="#E2E8F0"/>
<path d="M380 82H92C89.7909 82 88 83.7909 88 86V277.385C88 279.594 89.7909 281.385 92 281.385H380C382.209 281.385 384 279.594 384 277.385V86C384 83.7909 382.209 82 380 82Z" fill="url(#paint1_radial)"/>
<g filter="url(#filter2_d)">
<path d="M65 90.1111C65 87.2883 67.2883 85 70.1111 85H139.111C141.934 85 144.222 87.2883 144.222 90.1111V105.444H70.1111C67.2883 105.444 65 103.156 65 100.333V90.1111Z" fill="#FFBD4D"/>
<g clip-path="url(#clip0)">
<path d="M75.2223 90.963C72.8712 90.963 70.963 92.8711 70.963 95.2222C70.963 97.5734 72.8712 99.4815 75.2223 99.4815C77.5734 99.4815 79.4815 97.5734 79.4815 95.2222C79.4815 92.8711 77.5734 90.963 75.2223 90.963ZM75.2223 98.6296C73.3397 98.6296 71.8149 97.1048 71.8149 95.2222C71.8149 93.3396 73.3397 91.8148 75.2223 91.8148C77.1049 91.8148 78.6297 93.3396 78.6297 95.2222C78.6297 97.1048 77.1049 98.6296 75.2223 98.6296Z" fill="white"/>
<path d="M75.2222 97.3518C76.3983 97.3518 77.3518 96.3984 77.3518 95.2222C77.3518 94.0461 76.3983 93.0926 75.2222 93.0926C74.046 93.0926 73.0925 94.0461 73.0925 95.2222C73.0925 96.3984 74.046 97.3518 75.2222 97.3518Z" fill="white"/>
</g>
<path d="M84.0466 92.6546V95.8056H86.4462V96.5339H83.3182V97.0552H86.4462V98.5119H86.9982V97.0552H90.1263V96.5339H86.9982V95.8056H89.3979V92.6546H87.9259C88.1559 92.3402 88.3629 91.9876 88.5469 91.5966L88.0102 91.4049C87.8186 91.8496 87.5962 92.2712 87.3509 92.6546H84.0466ZM88.8612 95.3149H86.9982V94.4562H88.8612V95.3149ZM86.4462 95.3149H84.5832V94.4562H86.4462V95.3149ZM84.5832 93.9809V93.1376H86.4462V93.9809H84.5832ZM86.9982 93.1376H88.8612V93.9809H86.9982V93.1376ZM85.4036 91.4432L84.9359 91.6656C85.1966 91.9569 85.4342 92.2789 85.6642 92.6469L86.1242 92.4169C85.8942 92.0642 85.6566 91.7346 85.4036 91.4432ZM91.5216 91.5812L91.1459 91.9416C91.6902 92.3709 92.1196 92.7772 92.4339 93.1606L92.8172 92.7772C92.4646 92.3786 92.0352 91.9799 91.5216 91.5812ZM95.9759 98.3509H97.7546L97.8926 97.7989C97.6856 97.8142 97.3943 97.8219 97.0263 97.8296C96.6429 97.8372 96.2673 97.8449 95.8993 97.8449C95.3012 97.8449 94.7953 97.8372 94.3966 97.8296C93.9366 97.8142 93.5916 97.7529 93.3539 97.6456C93.1392 97.5459 92.9399 97.3849 92.7559 97.1626C92.6946 97.0936 92.6332 97.0322 92.5719 96.9862V94.1189H90.9696V94.6249H92.0582V96.9556C91.7362 97.0936 91.3759 97.4922 90.9619 98.1439L91.3759 98.5196C91.8052 97.7989 92.1119 97.4462 92.3036 97.4462C92.3956 97.4462 92.4952 97.5076 92.6026 97.6379C92.8402 97.9139 93.1086 98.1056 93.4076 98.1976C93.7143 98.2819 94.1206 98.3279 94.6113 98.3356C95.1019 98.3432 95.5619 98.3509 95.9759 98.3509ZM95.3166 91.4356V92.4169H94.3046C94.3966 92.1716 94.4809 91.9186 94.5576 91.6502L94.0286 91.5429C93.8446 92.2329 93.5456 92.8692 93.1316 93.4442L93.6146 93.7432C93.7833 93.4979 93.9366 93.2372 94.0746 92.9459H95.3166V94.0422H93.3233V94.5789H94.5576C94.5346 95.0542 94.4579 95.4682 94.3276 95.8056C94.1282 96.2656 93.7219 96.6489 93.1009 96.9556L93.4612 97.3926C94.1819 97.0169 94.6496 96.5339 94.8489 95.9512C94.9793 95.5679 95.0559 95.1079 95.0789 94.5789H95.8533V96.7562C95.8533 96.9249 95.8993 97.0629 96.0066 97.1702C96.1063 97.2776 96.2519 97.3312 96.4513 97.3312H97.0033C97.2639 97.3236 97.4479 97.2622 97.5553 97.1549C97.6703 97.0322 97.7546 96.6566 97.8006 96.0202L97.3176 95.8592C97.2869 96.4036 97.2256 96.7102 97.1336 96.7792C97.0723 96.8252 96.9956 96.8482 96.8883 96.8482H96.6123C96.4436 96.8482 96.3669 96.7716 96.3669 96.6336V94.5789H97.6549V94.0422H95.8533V92.9459H97.3866V92.4169H95.8533V91.4356H95.3166ZM100.162 94.5406C100.354 94.8472 100.576 95.2382 100.837 95.7136L101.136 95.2689C100.806 94.7782 100.484 94.3412 100.162 93.9579V93.4902H100.982V92.9612H100.162V91.4586H99.6253V92.9612H98.6439V93.4902H99.6099C99.3876 94.4716 99.0119 95.3532 98.4906 96.1199L98.7283 96.7179C99.0963 96.1122 99.3953 95.4376 99.6253 94.7016V98.4659H100.162V94.5406ZM102.424 93.0072V93.4979H103.566V94.7552H102.585V95.2459H103.566V96.6182H102.332V97.1089H105.345V96.6182H104.08V95.2459H105.092V94.7552H104.08V93.4979H105.214V93.0072H102.424ZM101.404 91.7192V98.3049H105.59V97.7836H101.933V92.2406H105.452V91.7192H101.404Z" fill="white"/>
</g>
<g filter="url(#filter3_d)">
<path d="M56 182.111C56 179.288 58.2883 177 61.1111 177H135.222V192.333C135.222 195.156 132.934 197.444 130.111 197.444H61.1111C58.2883 197.444 56 195.156 56 192.333V182.111Z" fill="#FFBD4D"/>
<g clip-path="url(#clip1)">
<path d="M66.2223 183.815C68.1006 183.815 69.6297 185.344 69.6297 187.222C69.6297 189.101 68.1006 190.63 66.2223 190.63C64.3439 190.63 62.8149 189.101 62.8149 187.222C62.8149 185.344 64.3439 183.815 66.2223 183.815ZM66.2223 182.963C63.8712 182.963 61.963 184.871 61.963 187.222C61.963 189.573 63.8712 191.482 66.2223 191.482C68.5734 191.482 70.4815 189.573 70.4815 187.222C70.4815 184.871 68.5734 182.963 66.2223 182.963ZM66.2223 188.5L64.5186 186.796H67.926L66.2223 188.5Z" fill="white"/>
</g>
<path d="M74.3106 183.865V184.409H77.2392V190.504H77.7989V186.15C78.4889 186.518 79.3476 187.039 80.3672 187.714L80.6969 187.223C79.7156 186.594 78.7496 186.042 77.7989 185.567V184.409H81.1263V183.865H74.3106ZM84.6529 184.693V185.222H88.7009V184.693H86.9683C86.8609 184.233 86.7383 183.819 86.6079 183.459L86.0483 183.551C86.1863 183.903 86.3166 184.279 86.4239 184.693H84.6529ZM84.4536 189.63V190.167H88.8773V189.63H87.3746C87.7273 188.526 88.0263 187.269 88.2716 185.858L87.7426 185.72C87.4743 187.284 87.1676 188.588 86.8149 189.63H84.4536ZM85.5346 185.805L85.0286 185.966C85.2816 187.024 85.4962 188.12 85.6649 189.255L86.1786 189.124C85.9946 187.875 85.7799 186.771 85.5346 185.805ZM84.4689 186.487C84.1776 186.648 83.8862 186.801 83.5872 186.939V185.398H84.4382V184.869H83.5872V183.482H83.0276V184.869H81.9772V185.398H83.0276V187.169C82.6519 187.307 82.2609 187.43 81.8622 187.53L82.0002 188.082C82.3452 187.974 82.6902 187.852 83.0276 187.721V189.6C83.0276 189.814 82.9202 189.922 82.7132 189.922C82.5139 189.922 82.3069 189.906 82.0922 189.891L82.2149 190.428H82.9049C83.3572 190.428 83.5872 190.198 83.5872 189.738V187.484C83.8862 187.346 84.1776 187.2 84.4689 187.047V186.487ZM91.1619 186.541C91.3536 186.847 91.5759 187.238 91.8366 187.714L92.1356 187.269C91.8059 186.778 91.4839 186.341 91.1619 185.958V185.49H91.9823V184.961H91.1619V183.459H90.6253V184.961H89.6439V185.49H90.6099C90.3876 186.472 90.0119 187.353 89.4906 188.12L89.7283 188.718C90.0963 188.112 90.3953 187.438 90.6253 186.702V190.466H91.1619V186.541ZM93.4236 185.007V185.498H94.5659V186.755H93.5846V187.246H94.5659V188.618H93.3316V189.109H96.3446V188.618H95.0796V187.246H96.0916V186.755H95.0796V185.498H96.2143V185.007H93.4236ZM92.4039 183.719V190.305H96.5899V189.784H92.9329V184.241H96.4519V183.719H92.4039Z" fill="white"/>
</g>
<g filter="url(#filter4_d)">
<path d="M329 146H403.111C405.934 146 408.222 148.288 408.222 151.111V161.333C408.222 164.156 405.934 166.444 403.111 166.444H334.111C331.288 166.444 329 164.156 329 161.333V146Z" fill="#FFBD4D"/>
<g clip-path="url(#clip2)">
<path d="M342.204 152.389H336.241C335.772 152.389 335.389 152.772 335.389 153.241V159.204C335.389 159.672 335.772 160.056 336.241 160.056H342.204C342.672 160.056 343.056 159.672 343.056 159.204V153.241C343.056 152.772 342.672 152.389 342.204 152.389ZM342.204 159.204H336.241V153.241H342.204V159.204ZM341.774 154.944L341.173 154.34L338.366 157.146L337.267 156.052L336.662 156.652L338.366 158.352L341.774 154.944Z" fill="white"/>
</g>
<path d="M349.02 153.509H353.758V153.026H349.273C349.35 152.85 349.419 152.666 349.48 152.482L348.936 152.39C348.652 153.248 348.116 153.969 347.326 154.567L347.656 154.996C347.993 154.743 348.284 154.467 348.545 154.168V156.461H349.526C349.112 157.013 348.468 157.465 347.587 157.818L347.87 158.285C348.269 158.101 348.629 157.894 348.944 157.68C349.358 158.04 349.825 158.347 350.347 158.6C349.557 158.83 348.606 158.968 347.495 159.014L347.717 159.497C349.005 159.42 350.094 159.221 350.998 158.883C351.872 159.221 352.877 159.412 353.996 159.466L354.126 158.96C353.222 158.929 352.394 158.807 351.658 158.592C352.286 158.27 352.792 157.871 353.176 157.381V156.982H349.741C349.879 156.813 350.009 156.645 350.124 156.461H353.16V154.038H348.652C348.783 153.869 348.905 153.693 349.02 153.509ZM351.006 158.377C350.385 158.132 349.833 157.818 349.342 157.434H352.493C352.118 157.81 351.619 158.124 351.006 158.377ZM352.624 156.016H349.089V155.449H352.624V156.016ZM349.089 155.035V154.475H352.624V155.035H349.089ZM355.522 152.581L355.146 152.942C355.69 153.371 356.12 153.777 356.434 154.161L356.817 153.777C356.465 153.379 356.035 152.98 355.522 152.581ZM359.976 159.351H361.755L361.893 158.799C361.686 158.814 361.394 158.822 361.026 158.83C360.643 158.837 360.267 158.845 359.899 158.845C359.301 158.845 358.795 158.837 358.397 158.83C357.937 158.814 357.592 158.753 357.354 158.646C357.139 158.546 356.94 158.385 356.756 158.163C356.695 158.094 356.633 158.032 356.572 157.986V155.119H354.97V155.625H356.058V157.956C355.736 158.094 355.376 158.492 354.962 159.144L355.376 159.52C355.805 158.799 356.112 158.446 356.304 158.446C356.396 158.446 356.495 158.508 356.603 158.638C356.84 158.914 357.109 159.106 357.408 159.198C357.714 159.282 358.121 159.328 358.611 159.336C359.102 159.343 359.562 159.351 359.976 159.351ZM359.317 152.436V153.417H358.305C358.397 153.172 358.481 152.919 358.558 152.65L358.029 152.543C357.845 153.233 357.546 153.869 357.132 154.444L357.615 154.743C357.783 154.498 357.937 154.237 358.075 153.946H359.317V155.042H357.323V155.579H358.558C358.535 156.054 358.458 156.468 358.328 156.806C358.128 157.266 357.722 157.649 357.101 157.956L357.461 158.393C358.182 158.017 358.65 157.534 358.849 156.951C358.979 156.568 359.056 156.108 359.079 155.579H359.853V157.756C359.853 157.925 359.899 158.063 360.007 158.17C360.106 158.278 360.252 158.331 360.451 158.331H361.003C361.264 158.324 361.448 158.262 361.555 158.155C361.67 158.032 361.755 157.657 361.801 157.02L361.318 156.859C361.287 157.404 361.226 157.71 361.134 157.779C361.072 157.825 360.996 157.848 360.888 157.848H360.612C360.444 157.848 360.367 157.772 360.367 157.634V155.579H361.655V155.042H359.853V153.946H361.387V153.417H359.853V152.436H359.317ZM364.162 155.541C364.354 155.847 364.576 156.238 364.837 156.714L365.136 156.269C364.806 155.778 364.484 155.341 364.162 154.958V154.49H364.982V153.961H364.162V152.459H363.625V153.961H362.644V154.49H363.61C363.388 155.472 363.012 156.353 362.491 157.12L362.728 157.718C363.096 157.112 363.395 156.438 363.625 155.702V159.466H364.162V155.541ZM366.424 154.007V154.498H367.566V155.755H366.585V156.246H367.566V157.618H366.332V158.109H369.345V157.618H368.08V156.246H369.092V155.755H368.08V154.498H369.214V154.007H366.424ZM365.404 152.719V159.305H369.59V158.784H365.933V153.241H369.452V152.719H365.404Z" fill="white"/>
</g>
<g filter="url(#filter5_d)">
<path d="M350 213H424.111C426.934 213 429.222 215.288 429.222 218.111V228.333C429.222 231.156 426.934 233.444 424.111 233.444H355.111C352.288 233.444 350 231.156 350 228.333V213Z" fill="#FFBD4D"/>
<g clip-path="url(#clip3)">
<path fill-rule="evenodd" clip-rule="evenodd" d="M363.63 219.389H356.815C356.346 219.389 355.963 219.772 355.963 220.241V226.204C355.963 226.672 356.346 227.056 356.815 227.056H363.63C364.098 227.056 364.481 226.672 364.481 226.204V220.241C364.481 219.772 364.098 219.389 363.63 219.389ZM363.63 226.204H356.815V220.241H363.63V226.204Z" fill="white"/>
<path fill-rule="evenodd" clip-rule="evenodd" d="M363.378 222.549L362.773 221.944L361.423 223.295L360.823 222.69L360.222 223.29L361.423 224.5L363.378 222.549Z" fill="white"/>
<path d="M359.37 221.093H357.241V221.944H359.37V221.093Z" fill="white"/>
<path d="M359.37 222.796H357.241V223.648H359.37V222.796Z" fill="white"/>
<path d="M359.37 224.5H357.241V225.352H359.37V224.5Z" fill="white"/>
</g>
<path d="M368.311 219.865V220.409H371.239V226.504H371.799V222.15C372.489 222.518 373.348 223.039 374.367 223.714L374.697 223.223C373.716 222.594 372.75 222.042 371.799 221.567V220.409H375.126V219.865H368.311ZM378.653 220.693V221.222H382.701V220.693H380.968C380.861 220.233 380.738 219.819 380.608 219.459L380.048 219.551C380.186 219.903 380.317 220.279 380.424 220.693H378.653ZM378.454 225.63V226.167H382.877V225.63H381.375C381.727 224.526 382.026 223.269 382.272 221.858L381.743 221.72C381.474 223.284 381.168 224.588 380.815 225.63H378.454ZM379.535 221.805L379.029 221.966C379.282 223.024 379.496 224.12 379.665 225.255L380.179 225.124C379.995 223.875 379.78 222.771 379.535 221.805ZM378.469 222.487C378.178 222.648 377.886 222.801 377.587 222.939V221.398H378.438V220.869H377.587V219.482H377.028V220.869H375.977V221.398H377.028V223.169C376.652 223.307 376.261 223.43 375.862 223.53L376 224.082C376.345 223.974 376.69 223.852 377.028 223.721V225.6C377.028 225.814 376.92 225.922 376.713 225.922C376.514 225.922 376.307 225.906 376.092 225.891L376.215 226.428H376.905C377.357 226.428 377.587 226.198 377.587 225.738V223.484C377.886 223.346 378.178 223.2 378.469 223.047V222.487ZM385.354 220.509H390.092V220.026H385.607C385.683 219.85 385.752 219.666 385.814 219.482L385.269 219.39C384.986 220.248 384.449 220.969 383.659 221.567L383.989 221.996C384.326 221.743 384.618 221.467 384.878 221.168V223.461H385.86C385.446 224.013 384.802 224.465 383.92 224.818L384.204 225.285C384.602 225.101 384.963 224.894 385.277 224.68C385.691 225.04 386.159 225.347 386.68 225.6C385.89 225.83 384.94 225.968 383.828 226.014L384.05 226.497C385.338 226.42 386.427 226.221 387.332 225.883C388.206 226.221 389.21 226.412 390.329 226.466L390.46 225.96C389.555 225.929 388.727 225.807 387.991 225.592C388.62 225.27 389.126 224.871 389.509 224.381V223.982H386.074C386.212 223.813 386.343 223.645 386.458 223.461H389.494V221.038H384.986C385.116 220.869 385.239 220.693 385.354 220.509ZM387.339 225.377C386.718 225.132 386.166 224.818 385.676 224.434H388.827C388.451 224.81 387.953 225.124 387.339 225.377ZM388.957 223.016H385.423V222.449H388.957V223.016ZM385.423 222.035V221.475H388.957V222.035H385.423ZM391.855 219.581L391.479 219.942C392.024 220.371 392.453 220.777 392.767 221.161L393.151 220.777C392.798 220.379 392.369 219.98 391.855 219.581ZM396.309 226.351H398.088L398.226 225.799C398.019 225.814 397.728 225.822 397.36 225.83C396.976 225.837 396.601 225.845 396.233 225.845C395.635 225.845 395.129 225.837 394.73 225.83C394.27 225.814 393.925 225.753 393.687 225.646C393.473 225.546 393.273 225.385 393.089 225.163C393.028 225.094 392.967 225.032 392.905 224.986V222.119H391.303V222.625H392.392V224.956C392.07 225.094 391.709 225.492 391.295 226.144L391.709 226.52C392.139 225.799 392.445 225.446 392.637 225.446C392.729 225.446 392.829 225.508 392.936 225.638C393.174 225.914 393.442 226.106 393.741 226.198C394.048 226.282 394.454 226.328 394.945 226.336C395.435 226.343 395.895 226.351 396.309 226.351ZM395.65 219.436V220.417H394.638C394.73 220.172 394.814 219.919 394.891 219.65L394.362 219.543C394.178 220.233 393.879 220.869 393.465 221.444L393.948 221.743C394.117 221.498 394.27 221.237 394.408 220.946H395.65V222.042H393.657V222.579H394.891C394.868 223.054 394.791 223.468 394.661 223.806C394.462 224.266 394.055 224.649 393.434 224.956L393.795 225.393C394.515 225.017 394.983 224.534 395.182 223.951C395.313 223.568 395.389 223.108 395.412 222.579H396.187V224.756C396.187 224.925 396.233 225.063 396.34 225.17C396.44 225.278 396.585 225.331 396.785 225.331H397.337C397.597 225.324 397.781 225.262 397.889 225.155C398.004 225.032 398.088 224.657 398.134 224.02L397.651 223.859C397.62 224.404 397.559 224.71 397.467 224.779C397.406 224.825 397.329 224.848 397.222 224.848H396.946C396.777 224.848 396.7 224.772 396.7 224.634V222.579H397.988V222.042H396.187V220.946H397.72V220.417H396.187V219.436H395.65ZM400.495 222.541C400.687 222.847 400.909 223.238 401.17 223.714L401.469 223.269C401.139 222.778 400.817 222.341 400.495 221.958V221.49H401.316V220.961H400.495V219.459H399.959V220.961H398.977V221.49H399.943C399.721 222.472 399.345 223.353 398.824 224.12L399.062 224.718C399.43 224.112 399.729 223.438 399.959 222.702V226.466H400.495V222.541ZM402.757 221.007V221.498H403.899V222.755H402.918V223.246H403.899V224.618H402.665V225.109H405.678V224.618H404.413V223.246H405.425V222.755H404.413V221.498H405.548V221.007H402.757ZM401.737 219.719V226.305H405.923V225.784H402.266V220.241H405.785V219.719H401.737Z" fill="white"/>
</g>
<rect x="147.399" y="111.021" width="11.9575" height="11.9575" rx="5.97877" fill="white" stroke="#94A3B8" stroke-width="0.79717"/>
<path d="M167.337 112.338L166.869 112.787C167.548 113.323 168.084 113.83 168.476 114.308L168.954 113.83C168.514 113.332 167.978 112.835 167.337 112.338ZM172.895 120.784H175.115L175.287 120.096C175.028 120.115 174.665 120.124 174.206 120.134C173.728 120.143 173.259 120.153 172.8 120.153C172.053 120.153 171.422 120.143 170.925 120.134C170.351 120.115 169.92 120.038 169.624 119.904C169.356 119.78 169.107 119.579 168.878 119.302C168.801 119.216 168.724 119.139 168.648 119.082V115.504H166.649V116.135H168.007V119.043C167.605 119.216 167.156 119.713 166.639 120.526L167.156 120.995C167.691 120.096 168.074 119.656 168.313 119.656C168.428 119.656 168.552 119.732 168.686 119.895C168.983 120.239 169.318 120.478 169.691 120.593C170.073 120.698 170.58 120.756 171.193 120.765C171.805 120.775 172.379 120.784 172.895 120.784ZM172.073 112.156V113.38H170.81C170.925 113.074 171.03 112.759 171.126 112.424L170.465 112.29C170.236 113.151 169.863 113.945 169.346 114.662L169.949 115.035C170.159 114.729 170.351 114.404 170.523 114.04H172.073V115.408H169.585V116.078H171.126C171.097 116.671 171.001 117.188 170.839 117.608C170.59 118.182 170.083 118.661 169.308 119.043L169.758 119.589C170.657 119.12 171.24 118.517 171.489 117.79C171.652 117.312 171.747 116.738 171.776 116.078H172.742V118.795C172.742 119.005 172.8 119.177 172.934 119.311C173.058 119.445 173.24 119.512 173.488 119.512H174.177C174.502 119.503 174.732 119.426 174.866 119.292C175.009 119.139 175.115 118.67 175.172 117.876L174.569 117.675C174.531 118.355 174.455 118.737 174.34 118.823C174.263 118.881 174.168 118.909 174.034 118.909H173.689C173.479 118.909 173.383 118.814 173.383 118.642V116.078H174.99V115.408H172.742V114.04H174.655V113.38H172.742V112.156H172.073ZM177.363 113.792V118.336C176.961 118.45 176.549 118.556 176.119 118.661L176.32 119.34C177.43 119.043 178.405 118.718 179.247 118.364V117.675C178.874 117.829 178.482 117.972 178.07 118.115V113.792H179.18V113.122H176.224V113.792H177.363ZM179.544 112.596V113.266H181.878C181.83 113.619 181.763 113.964 181.667 114.289H179.984V118.785H180.644V114.92H183.714V118.785H184.384V114.289H182.356C182.433 113.964 182.5 113.629 182.557 113.266H184.843V112.596H179.544ZM182.959 118.804L182.5 119.244C183.322 119.876 183.973 120.469 184.451 121.024L184.948 120.526C184.413 119.952 183.743 119.378 182.959 118.804ZM181.792 115.533V117.178C181.763 118.01 181.543 118.689 181.141 119.206C180.701 119.703 179.917 120.105 178.807 120.402L179.18 120.995C180.328 120.67 181.151 120.22 181.658 119.656C182.174 119.034 182.442 118.211 182.48 117.178V115.533H181.792ZM185.742 116.145V116.834H194.342V116.145H185.742Z" fill="#475569"/>
<path d="M207.585 117C207.585 113.478 210.44 110.623 213.962 110.623C217.484 110.623 220.34 113.478 220.34 117C220.34 120.522 217.484 123.377 213.962 123.377C210.44 123.377 207.585 120.522 207.585 117Z" fill="#375FF3"/>
<path d="M212.368 119.232L210.136 117L209.392 117.744L212.368 120.72L218.745 114.343L218.001 113.599L212.368 119.232Z" fill="white"/>
<path d="M227.922 112.338L227.454 112.787C228.133 113.323 228.669 113.83 229.061 114.308L229.539 113.83C229.099 113.332 228.563 112.835 227.922 112.338ZM233.48 120.784H235.7L235.872 120.096C235.613 120.115 235.25 120.124 234.791 120.134C234.312 120.143 233.844 120.153 233.385 120.153C232.638 120.153 232.007 120.143 231.51 120.134C230.936 120.115 230.505 120.038 230.209 119.904C229.941 119.78 229.692 119.579 229.462 119.302C229.386 119.216 229.309 119.139 229.233 119.082V115.504H227.234V116.135H228.592V119.043C228.19 119.216 227.741 119.713 227.224 120.526L227.741 120.995C228.276 120.096 228.659 119.656 228.898 119.656C229.013 119.656 229.137 119.732 229.271 119.895C229.568 120.239 229.903 120.478 230.276 120.593C230.658 120.698 231.165 120.756 231.777 120.765C232.39 120.775 232.964 120.784 233.48 120.784ZM232.658 112.156V113.38H231.395C231.51 113.074 231.615 112.759 231.711 112.424L231.05 112.29C230.821 113.151 230.448 113.945 229.931 114.662L230.534 115.035C230.744 114.729 230.936 114.404 231.108 114.04H232.658V115.408H230.17V116.078H231.711C231.682 116.671 231.586 117.188 231.424 117.608C231.175 118.182 230.668 118.661 229.893 119.043L230.343 119.589C231.242 119.12 231.825 118.517 232.074 117.79C232.237 117.312 232.332 116.738 232.361 116.078H233.327V118.795C233.327 119.005 233.385 119.177 233.518 119.311C233.643 119.445 233.825 119.512 234.073 119.512H234.762C235.087 119.503 235.317 119.426 235.451 119.292C235.594 119.139 235.7 118.67 235.757 117.876L235.154 117.675C235.116 118.355 235.039 118.737 234.925 118.823C234.848 118.881 234.753 118.909 234.619 118.909H234.274C234.064 118.909 233.968 118.814 233.968 118.642V116.078H235.575V115.408H233.327V114.04H235.24V113.38H233.327V112.156H232.658ZM237.948 113.792V118.336C237.546 118.45 237.134 118.556 236.704 118.661L236.905 119.34C238.015 119.043 238.99 118.718 239.832 118.364V117.675C239.459 117.829 239.067 117.972 238.655 118.115V113.792H239.765V113.122H236.809V113.792H237.948ZM240.129 112.596V113.266H242.463C242.415 113.619 242.348 113.964 242.252 114.289H240.569V118.785H241.229V114.92H244.299V118.785H244.969V114.289H242.941C243.018 113.964 243.085 113.629 243.142 113.266H245.428V112.596H240.129ZM243.544 118.804L243.085 119.244C243.907 119.876 244.558 120.469 245.036 121.024L245.533 120.526C244.998 119.952 244.328 119.378 243.544 118.804ZM242.377 115.533V117.178C242.348 118.01 242.128 118.689 241.726 119.206C241.286 119.703 240.502 120.105 239.392 120.402L239.765 120.995C240.913 120.67 241.736 120.22 242.243 119.656C242.759 119.034 243.027 118.211 243.065 117.178V115.533H242.377ZM247.236 113.246V113.926H254.028V113.246H247.236ZM246.356 119.263V119.962H254.899V119.263H246.356Z" fill="#475569"/>
<rect x="268.568" y="111.021" width="11.9575" height="11.9575" rx="5.97877" fill="white" stroke="#94A3B8" stroke-width="0.79717"/>
<path d="M288.507 112.338L288.038 112.787C288.718 113.323 289.253 113.83 289.646 114.308L290.124 113.83C289.684 113.332 289.148 112.835 288.507 112.338ZM294.065 120.784H296.284L296.457 120.096C296.198 120.115 295.835 120.124 295.376 120.134C294.897 120.143 294.429 120.153 293.969 120.153C293.223 120.153 292.592 120.143 292.094 120.134C291.521 120.115 291.09 120.038 290.793 119.904C290.526 119.78 290.277 119.579 290.047 119.302C289.971 119.216 289.894 119.139 289.818 119.082V115.504H287.818V116.135H289.177V119.043C288.775 119.216 288.325 119.713 287.809 120.526L288.325 120.995C288.861 120.096 289.244 119.656 289.483 119.656C289.598 119.656 289.722 119.732 289.856 119.895C290.153 120.239 290.487 120.478 290.86 120.593C291.243 120.698 291.75 120.756 292.362 120.765C292.975 120.775 293.549 120.784 294.065 120.784ZM293.242 112.156V113.38H291.98C292.094 113.074 292.2 112.759 292.295 112.424L291.635 112.29C291.406 113.151 291.033 113.945 290.516 114.662L291.119 115.035C291.329 114.729 291.521 114.404 291.693 114.04H293.242V115.408H290.755V116.078H292.295C292.267 116.671 292.171 117.188 292.008 117.608C291.76 118.182 291.253 118.661 290.478 119.043L290.927 119.589C291.827 119.12 292.41 118.517 292.659 117.79C292.821 117.312 292.917 116.738 292.946 116.078H293.912V118.795C293.912 119.005 293.969 119.177 294.103 119.311C294.228 119.445 294.409 119.512 294.658 119.512H295.347C295.672 119.503 295.902 119.426 296.036 119.292C296.179 119.139 296.284 118.67 296.342 117.876L295.739 117.675C295.701 118.355 295.624 118.737 295.51 118.823C295.433 118.881 295.337 118.909 295.203 118.909H294.859C294.649 118.909 294.553 118.814 294.553 118.642V116.078H296.16V115.408H293.912V114.04H295.825V113.38H293.912V112.156H293.242ZM298.532 113.792V118.336C298.131 118.45 297.719 118.556 297.289 118.661L297.49 119.34C298.599 119.043 299.575 118.718 300.417 118.364V117.675C300.044 117.829 299.652 117.972 299.24 118.115V113.792H300.35V113.122H297.394V113.792H298.532ZM300.713 112.596V113.266H303.048C303 113.619 302.933 113.964 302.837 114.289H301.154V118.785H301.814V114.92H304.884V118.785H305.554V114.289H303.526C303.602 113.964 303.669 113.629 303.727 113.266H306.013V112.596H300.713ZM304.129 118.804L303.669 119.244C304.492 119.876 305.143 120.469 305.621 121.024L306.118 120.526C305.583 119.952 304.913 119.378 304.129 118.804ZM302.961 115.533V117.178C302.933 118.01 302.713 118.689 302.311 119.206C301.871 119.703 301.087 120.105 299.977 120.402L300.35 120.995C301.498 120.67 302.321 120.22 302.828 119.656C303.344 119.034 303.612 118.211 303.65 117.178V115.533H302.961ZM307.611 112.912V113.581H314.843V112.912H307.611ZM308.252 116.221V116.891H314.192V116.221H308.252ZM306.903 119.761V120.45H315.531V119.761H306.903Z" fill="#475569"/>
<path d="M147 143.337C147 141.545 148.453 140.092 150.245 140.092H156.736C158.528 140.092 159.981 141.545 159.981 143.337V149.828C159.981 151.62 158.528 153.073 156.736 153.073H150.245C148.453 153.073 147 151.62 147 149.828V143.337Z" fill="#375FF3"/>
<g clip-path="url(#clip4)">
<path d="M151.868 148.854L149.596 146.582L148.839 147.34L151.868 150.369L158.358 143.878L157.601 143.121L151.868 148.854Z" fill="white"/>
</g>
<path d="M167.698 142.284L167.221 142.742C167.913 143.287 168.458 143.803 168.857 144.29L169.344 143.803C168.896 143.297 168.351 142.79 167.698 142.284ZM173.355 150.881H175.614L175.789 150.18C175.526 150.199 175.156 150.209 174.689 150.219C174.202 150.228 173.725 150.238 173.258 150.238C172.498 150.238 171.856 150.228 171.349 150.219C170.765 150.199 170.327 150.121 170.025 149.985C169.753 149.859 169.5 149.654 169.266 149.372C169.188 149.284 169.11 149.206 169.032 149.148V145.507H166.997V146.149H168.38V149.109C167.971 149.284 167.513 149.79 166.988 150.618L167.513 151.095C168.059 150.18 168.448 149.732 168.691 149.732C168.808 149.732 168.935 149.81 169.071 149.975C169.373 150.326 169.714 150.569 170.093 150.686C170.483 150.793 170.999 150.852 171.622 150.861C172.245 150.871 172.829 150.881 173.355 150.881ZM172.518 142.099V143.345H171.233C171.349 143.034 171.456 142.712 171.554 142.372L170.882 142.235C170.648 143.112 170.269 143.92 169.743 144.65L170.356 145.03C170.57 144.718 170.765 144.387 170.94 144.017H172.518V145.409H169.986V146.091H171.554C171.525 146.694 171.427 147.22 171.262 147.648C171.009 148.233 170.493 148.719 169.704 149.109L170.162 149.664C171.077 149.187 171.671 148.573 171.924 147.833C172.089 147.347 172.187 146.763 172.216 146.091H173.199V148.856C173.199 149.07 173.258 149.245 173.394 149.381C173.52 149.518 173.705 149.586 173.959 149.586H174.66C174.991 149.576 175.224 149.498 175.361 149.362C175.507 149.206 175.614 148.729 175.672 147.921L175.059 147.717C175.02 148.408 174.942 148.797 174.825 148.885C174.747 148.943 174.65 148.973 174.513 148.973H174.163C173.949 148.973 173.851 148.875 173.851 148.7V146.091H175.487V145.409H173.199V144.017H175.146V143.345H173.199V142.099H172.518ZM177.902 143.764V148.388C177.493 148.505 177.074 148.612 176.636 148.719L176.84 149.411C177.97 149.109 178.963 148.778 179.82 148.418V147.717C179.44 147.872 179.041 148.018 178.622 148.164V143.764H179.751V143.082H176.743V143.764H177.902ZM180.121 142.547V143.228H182.497C182.448 143.589 182.38 143.939 182.283 144.27H180.569V148.846H181.241V144.913H184.366V148.846H185.048V144.27H182.984C183.062 143.939 183.13 143.598 183.188 143.228H185.515V142.547H180.121ZM183.597 148.865L183.13 149.313C183.967 149.956 184.629 150.559 185.116 151.124L185.622 150.618C185.077 150.034 184.395 149.45 183.597 148.865ZM182.409 145.536V147.21C182.38 148.057 182.156 148.749 181.747 149.274C181.299 149.781 180.501 150.19 179.372 150.491L179.751 151.095C180.92 150.764 181.757 150.306 182.273 149.732C182.799 149.099 183.071 148.262 183.11 147.21V145.536H182.409ZM186.43 146.159V146.86H195.183V146.159H186.43Z" fill="#475569"/>
<path d="M208.66 143.337C208.66 141.545 210.113 140.092 211.906 140.092H218.396C220.189 140.092 221.642 141.545 221.642 143.337V149.828C221.642 151.62 220.189 153.073 218.396 153.073H211.906C210.113 153.073 208.66 151.62 208.66 149.828V143.337Z" fill="#375FF3"/>
<g clip-path="url(#clip5)">
<path d="M213.528 148.854L211.257 146.582L210.499 147.34L213.528 150.369L220.019 143.878L219.262 143.121L213.528 148.854Z" fill="white"/>
</g>
<path d="M229.359 142.284L228.882 142.742C229.573 143.287 230.118 143.803 230.517 144.29L231.004 143.803C230.556 143.297 230.011 142.79 229.359 142.284ZM235.015 150.881H237.274L237.449 150.18C237.186 150.199 236.816 150.209 236.349 150.219C235.862 150.228 235.385 150.238 234.918 150.238C234.159 150.238 233.516 150.228 233.01 150.219C232.426 150.199 231.987 150.121 231.686 149.985C231.413 149.859 231.16 149.654 230.926 149.372C230.848 149.284 230.77 149.206 230.693 149.148V145.507H228.658V146.149H230.04V149.109C229.631 149.284 229.174 149.79 228.648 150.618L229.174 151.095C229.719 150.18 230.108 149.732 230.352 149.732C230.469 149.732 230.595 149.81 230.732 149.975C231.033 150.326 231.374 150.569 231.754 150.686C232.143 150.793 232.659 150.852 233.282 150.861C233.905 150.871 234.49 150.881 235.015 150.881ZM234.178 142.099V143.345H232.893C233.01 143.034 233.117 142.712 233.214 142.372L232.542 142.235C232.309 143.112 231.929 143.92 231.403 144.65L232.017 145.03C232.231 144.718 232.426 144.387 232.601 144.017H234.178V145.409H231.647V146.091H233.214C233.185 146.694 233.088 147.22 232.922 147.648C232.669 148.233 232.153 148.719 231.364 149.109L231.822 149.664C232.737 149.187 233.331 148.573 233.584 147.833C233.75 147.347 233.847 146.763 233.876 146.091H234.86V148.856C234.86 149.07 234.918 149.245 235.054 149.381C235.181 149.518 235.366 149.586 235.619 149.586H236.32C236.651 149.576 236.885 149.498 237.021 149.362C237.167 149.206 237.274 148.729 237.332 147.921L236.719 147.717C236.68 148.408 236.602 148.797 236.485 148.885C236.408 148.943 236.31 148.973 236.174 148.973H235.823C235.609 148.973 235.512 148.875 235.512 148.7V146.091H237.147V145.409H234.86V144.017H236.807V143.345H234.86V142.099H234.178ZM239.562 143.764V148.388C239.153 148.505 238.734 148.612 238.296 148.719L238.501 149.411C239.63 149.109 240.623 148.778 241.48 148.418V147.717C241.1 147.872 240.701 148.018 240.282 148.164V143.764H241.412V143.082H238.403V143.764H239.562ZM241.782 142.547V143.228H244.157C244.109 143.589 244.04 143.939 243.943 144.27H242.23V148.846H242.901V144.913H246.027V148.846H246.708V144.27H244.644C244.722 143.939 244.79 143.598 244.849 143.228H247.175V142.547H241.782ZM245.257 148.865L244.79 149.313C245.627 149.956 246.289 150.559 246.776 151.124L247.282 150.618C246.737 150.034 246.056 149.45 245.257 148.865ZM244.07 145.536V147.21C244.04 148.057 243.817 148.749 243.408 149.274C242.96 149.781 242.161 150.19 241.032 150.491L241.412 151.095C242.58 150.764 243.417 150.306 243.933 149.732C244.459 149.099 244.732 148.262 244.771 147.21V145.536H244.07ZM249.015 143.209V143.9H255.928V143.209H249.015ZM248.12 149.333V150.043H256.814V149.333H248.12Z" fill="#475569"/>
<rect x="270.726" y="142.028" width="12.1698" height="12.1698" rx="2.83962" fill="white" stroke="#94A3B8" stroke-width="0.811321"/>
<path d="M291.019 143.815L290.542 144.272C291.233 144.818 291.779 145.334 292.178 145.82L292.665 145.334C292.217 144.827 291.671 144.321 291.019 143.815ZM296.676 152.412H298.934L299.11 151.711C298.847 151.73 298.477 151.74 298.01 151.75C297.523 151.759 297.046 151.769 296.578 151.769C295.819 151.769 295.176 151.759 294.67 151.75C294.086 151.73 293.648 151.652 293.346 151.516C293.073 151.389 292.82 151.185 292.587 150.903C292.509 150.815 292.431 150.737 292.353 150.679V147.037H290.318V147.68H291.701V150.64C291.292 150.815 290.834 151.321 290.308 152.149L290.834 152.626C291.379 151.711 291.769 151.263 292.012 151.263C292.129 151.263 292.256 151.341 292.392 151.506C292.694 151.857 293.035 152.1 293.414 152.217C293.804 152.324 294.32 152.382 294.943 152.392C295.566 152.402 296.15 152.412 296.676 152.412ZM295.838 143.63V144.876H294.553C294.67 144.564 294.777 144.243 294.875 143.902L294.203 143.766C293.969 144.642 293.589 145.45 293.064 146.181L293.677 146.56C293.891 146.249 294.086 145.918 294.261 145.548H295.838V146.94H293.307V147.622H294.875C294.845 148.225 294.748 148.751 294.583 149.179C294.329 149.763 293.813 150.25 293.025 150.64L293.482 151.195C294.398 150.718 294.991 150.104 295.245 149.364C295.41 148.877 295.507 148.293 295.537 147.622H296.52V150.387C296.52 150.601 296.578 150.776 296.715 150.912C296.841 151.049 297.026 151.117 297.279 151.117H297.98C298.311 151.107 298.545 151.029 298.681 150.893C298.827 150.737 298.934 150.26 298.993 149.452L298.379 149.247C298.341 149.939 298.263 150.328 298.146 150.416C298.068 150.474 297.971 150.503 297.834 150.503H297.484C297.27 150.503 297.172 150.406 297.172 150.231V147.622H298.808V146.94H296.52V145.548H298.467V144.876H296.52V143.63H295.838ZM301.222 145.295V149.919C300.813 150.036 300.395 150.143 299.957 150.25L300.161 150.941C301.291 150.64 302.284 150.309 303.14 149.948V149.247C302.761 149.403 302.361 149.549 301.943 149.695V145.295H303.072V144.613H300.064V145.295H301.222ZM303.442 144.078V144.759H305.818C305.769 145.119 305.701 145.47 305.603 145.801H303.89V150.377H304.562V146.443H307.687V150.377H308.368V145.801H306.304C306.382 145.47 306.451 145.129 306.509 144.759H308.836V144.078H303.442ZM306.918 150.396L306.451 150.844C307.288 151.487 307.95 152.09 308.437 152.655L308.943 152.149C308.398 151.565 307.716 150.98 306.918 150.396ZM305.73 147.067V148.741C305.701 149.588 305.477 150.279 305.068 150.805C304.62 151.311 303.822 151.72 302.692 152.022L303.072 152.626C304.24 152.295 305.078 151.837 305.594 151.263C306.12 150.63 306.392 149.793 306.431 148.741V147.067H305.73ZM310.462 144.399V145.08H317.822V144.399H310.462ZM311.114 147.768V148.449H317.16V147.768H311.114ZM309.741 151.37V152.071H318.523V151.37H309.741Z" fill="#475569"/>
<g filter="url(#filter6_d)">
<path d="M149 191.696C149 189.655 150.655 188 152.696 188H316.304C318.345 188 320 189.655 320 191.696V262.029C320 264.07 318.345 265.725 316.304 265.725H152.696C150.655 265.725 149 264.07 149 262.029V191.696Z" fill="white"/>
<rect width="171" height="11.3116" transform="translate(149 192.928)" fill="white"/>
<path d="M154.471 196.63L154.259 196.832C154.566 197.074 154.807 197.302 154.984 197.518L155.199 197.302C155.001 197.078 154.76 196.854 154.471 196.63ZM156.976 200.437H157.976L158.054 200.126C157.937 200.135 157.773 200.139 157.566 200.144C157.351 200.148 157.14 200.152 156.933 200.152C156.596 200.152 156.312 200.148 156.088 200.144C155.829 200.135 155.635 200.101 155.501 200.04C155.38 199.984 155.268 199.894 155.165 199.769C155.13 199.73 155.096 199.695 155.061 199.669V198.057H154.16V198.341H154.773V199.652C154.591 199.73 154.389 199.954 154.156 200.32L154.389 200.532C154.63 200.126 154.803 199.928 154.911 199.928C154.962 199.928 155.018 199.963 155.079 200.036C155.212 200.191 155.363 200.299 155.531 200.351C155.704 200.398 155.932 200.424 156.208 200.428C156.484 200.433 156.743 200.437 156.976 200.437ZM156.605 196.548V197.1H156.036C156.088 196.962 156.135 196.819 156.178 196.669L155.881 196.608C155.777 196.996 155.609 197.354 155.376 197.677L155.648 197.846C155.743 197.708 155.829 197.561 155.907 197.397H156.605V198.014H155.484V198.316H156.178C156.165 198.583 156.122 198.816 156.049 199.005C155.937 199.264 155.708 199.48 155.359 199.652L155.562 199.898C155.967 199.687 156.23 199.415 156.342 199.087C156.415 198.872 156.458 198.613 156.471 198.316H156.907V199.54C156.907 199.635 156.933 199.713 156.993 199.773C157.049 199.833 157.131 199.863 157.243 199.863H157.554C157.7 199.859 157.804 199.825 157.864 199.764C157.929 199.695 157.976 199.484 158.002 199.126L157.73 199.036C157.713 199.342 157.679 199.514 157.627 199.553C157.592 199.579 157.549 199.592 157.489 199.592H157.334C157.239 199.592 157.196 199.549 157.196 199.471V198.316H157.92V198.014H156.907V197.397H157.769V197.1H156.907V196.548H156.605ZM158.989 197.285V199.333C158.808 199.385 158.623 199.432 158.429 199.48L158.519 199.786C159.019 199.652 159.459 199.506 159.839 199.346V199.036C159.671 199.105 159.494 199.169 159.308 199.234V197.285H159.809V196.983H158.476V197.285H158.989ZM159.972 196.746V197.048H161.024C161.003 197.207 160.973 197.363 160.93 197.509H160.171V199.536H160.468V197.794H161.852V199.536H162.154V197.509H161.24C161.274 197.363 161.305 197.212 161.33 197.048H162.361V196.746H159.972ZM161.512 199.544L161.305 199.743C161.675 200.027 161.969 200.295 162.184 200.545L162.408 200.32C162.167 200.062 161.865 199.803 161.512 199.544ZM160.986 198.07V198.811C160.973 199.187 160.873 199.493 160.692 199.725C160.494 199.95 160.14 200.131 159.64 200.264L159.809 200.532C160.326 200.385 160.697 200.182 160.925 199.928C161.158 199.648 161.279 199.277 161.296 198.811V198.07H160.986ZM162.766 198.346V198.656H166.642V198.346H162.766Z" fill="#0F172A"/>
<rect width="171" height="11.3116" transform="translate(149 204.239)" fill="white"/>
<path d="M154.471 207.941L154.259 208.144C154.566 208.385 154.807 208.614 154.984 208.83L155.199 208.614C155.001 208.39 154.76 208.166 154.471 207.941ZM156.976 211.748H157.976L158.054 211.438C157.937 211.447 157.773 211.451 157.566 211.455C157.351 211.46 157.14 211.464 156.933 211.464C156.596 211.464 156.312 211.46 156.088 211.455C155.829 211.447 155.635 211.412 155.501 211.352C155.38 211.296 155.268 211.205 155.165 211.08C155.13 211.041 155.096 211.007 155.061 210.981V209.368H154.16V209.653H154.773V210.964C154.591 211.041 154.389 211.266 154.156 211.632L154.389 211.843C154.63 211.438 154.803 211.24 154.911 211.24C154.962 211.24 155.018 211.274 155.079 211.348C155.212 211.503 155.363 211.611 155.531 211.662C155.704 211.71 155.932 211.736 156.208 211.74C156.484 211.744 156.743 211.748 156.976 211.748ZM156.605 207.859V208.411H156.036C156.088 208.273 156.135 208.131 156.178 207.98L155.881 207.92C155.777 208.308 155.609 208.666 155.376 208.989L155.648 209.157C155.743 209.019 155.829 208.873 155.907 208.709H156.605V209.325H155.484V209.627H156.178C156.165 209.894 156.122 210.127 156.049 210.317C155.937 210.576 155.708 210.791 155.359 210.964L155.562 211.21C155.967 210.998 156.23 210.727 156.342 210.399C156.415 210.183 156.458 209.925 156.471 209.627H156.907V210.852C156.907 210.947 156.933 211.024 156.993 211.084C157.049 211.145 157.131 211.175 157.243 211.175H157.554C157.7 211.171 157.804 211.136 157.864 211.076C157.929 211.007 157.976 210.796 158.002 210.438L157.73 210.347C157.713 210.653 157.679 210.826 157.627 210.865C157.592 210.89 157.549 210.903 157.489 210.903H157.334C157.239 210.903 157.196 210.86 157.196 210.783V209.627H157.92V209.325H156.907V208.709H157.769V208.411H156.907V207.859H156.605ZM158.989 208.597V210.645C158.808 210.696 158.623 210.744 158.429 210.791L158.519 211.097C159.019 210.964 159.459 210.817 159.839 210.658V210.347C159.671 210.416 159.494 210.481 159.308 210.546V208.597H159.809V208.295H158.476V208.597H158.989ZM159.972 208.058V208.36H161.024C161.003 208.519 160.973 208.674 160.93 208.821H160.171V210.847H160.468V209.105H161.852V210.847H162.154V208.821H161.24C161.274 208.674 161.305 208.523 161.33 208.36H162.361V208.058H159.972ZM161.512 210.856L161.305 211.054C161.675 211.339 161.969 211.606 162.184 211.856L162.408 211.632C162.167 211.373 161.865 211.115 161.512 210.856ZM160.986 209.381V210.123C160.973 210.498 160.873 210.804 160.692 211.037C160.494 211.261 160.14 211.442 159.64 211.576L159.809 211.843C160.326 211.697 160.697 211.494 160.925 211.24C161.158 210.959 161.279 210.589 161.296 210.123V209.381H160.986Z" fill="#0F172A"/>
<rect width="171" height="11.3116" transform="translate(149 215.551)" fill="white"/>
<path d="M154.471 219.253L154.259 219.456C154.566 219.697 154.807 219.926 154.984 220.141L155.199 219.926C155.001 219.701 154.76 219.477 154.471 219.253ZM156.976 223.06H157.976L158.054 222.75C157.937 222.758 157.773 222.763 157.566 222.767C157.351 222.771 157.14 222.775 156.933 222.775C156.596 222.775 156.312 222.771 156.088 222.767C155.829 222.758 155.635 222.724 155.501 222.663C155.38 222.607 155.268 222.517 155.165 222.392C155.13 222.353 155.096 222.318 155.061 222.293V220.68H154.16V220.965H154.773V222.275C154.591 222.353 154.389 222.577 154.156 222.944L154.389 223.155C154.63 222.75 154.803 222.551 154.911 222.551C154.962 222.551 155.018 222.586 155.079 222.659C155.212 222.814 155.363 222.922 155.531 222.974C155.704 223.021 155.932 223.047 156.208 223.051C156.484 223.056 156.743 223.06 156.976 223.06ZM156.605 219.171V219.723H156.036C156.088 219.585 156.135 219.443 156.178 219.292L155.881 219.231C155.777 219.619 155.609 219.977 155.376 220.301L155.648 220.469C155.743 220.331 155.829 220.184 155.907 220.02H156.605V220.637H155.484V220.939H156.178C156.165 221.206 156.122 221.439 156.049 221.629C155.937 221.887 155.708 222.103 155.359 222.275L155.562 222.521C155.967 222.31 156.23 222.038 156.342 221.711C156.415 221.495 156.458 221.236 156.471 220.939H156.907V222.163C156.907 222.258 156.933 222.336 156.993 222.396C157.049 222.456 157.131 222.487 157.243 222.487H157.554C157.7 222.482 157.804 222.448 157.864 222.387C157.929 222.318 157.976 222.107 158.002 221.749L157.73 221.659C157.713 221.965 157.679 222.137 157.627 222.176C157.592 222.202 157.549 222.215 157.489 222.215H157.334C157.239 222.215 157.196 222.172 157.196 222.094V220.939H157.92V220.637H156.907V220.02H157.769V219.723H156.907V219.171H156.605ZM158.989 219.908V221.956C158.808 222.008 158.623 222.055 158.429 222.103L158.519 222.409C159.019 222.275 159.459 222.129 159.839 221.969V221.659C159.671 221.728 159.494 221.792 159.308 221.857V219.908H159.809V219.606H158.476V219.908H158.989ZM159.972 219.369V219.671H161.024C161.003 219.831 160.973 219.986 160.93 220.132H160.171V222.159H160.468V220.417H161.852V222.159H162.154V220.132H161.24C161.274 219.986 161.305 219.835 161.33 219.671H162.361V219.369H159.972ZM161.512 222.168L161.305 222.366C161.675 222.65 161.969 222.918 162.184 223.168L162.408 222.944C162.167 222.685 161.865 222.426 161.512 222.168ZM160.986 220.693V221.435C160.973 221.81 160.873 222.116 160.692 222.349C160.494 222.573 160.14 222.754 159.64 222.888L159.809 223.155C160.326 223.008 160.697 222.806 160.925 222.551C161.158 222.271 161.279 221.9 161.296 221.435V220.693H160.986Z" fill="#0F172A"/>
<rect width="171" height="11.3116" transform="translate(149 226.862)" fill="white"/>
<path d="M154.471 230.565L154.259 230.767C154.566 231.009 154.807 231.237 154.984 231.453L155.199 231.237C155.001 231.013 154.76 230.789 154.471 230.565ZM156.976 234.372H157.976L158.054 234.061C157.937 234.07 157.773 234.074 157.566 234.078C157.351 234.083 157.14 234.087 156.933 234.087C156.596 234.087 156.312 234.083 156.088 234.078C155.829 234.07 155.635 234.035 155.501 233.975C155.38 233.919 155.268 233.828 155.165 233.703C155.13 233.665 155.096 233.63 155.061 233.604V231.992H154.16V232.276H154.773V233.587C154.591 233.665 154.389 233.889 154.156 234.255L154.389 234.467C154.63 234.061 154.803 233.863 154.911 233.863C154.962 233.863 155.018 233.897 155.079 233.971C155.212 234.126 155.363 234.234 155.531 234.285C155.704 234.333 155.932 234.359 156.208 234.363C156.484 234.367 156.743 234.372 156.976 234.372ZM156.605 230.483V231.034H156.036C156.088 230.897 156.135 230.754 156.178 230.603L155.881 230.543C155.777 230.931 155.609 231.289 155.376 231.612L155.648 231.78C155.743 231.642 155.829 231.496 155.907 231.332H156.605V231.949H155.484V232.25H156.178C156.165 232.518 156.122 232.75 156.049 232.94C155.937 233.199 155.708 233.414 155.359 233.587L155.562 233.833C155.967 233.621 156.23 233.35 156.342 233.022C156.415 232.807 156.458 232.548 156.471 232.25H156.907V233.475C156.907 233.57 156.933 233.647 156.993 233.708C157.049 233.768 157.131 233.798 157.243 233.798H157.554C157.7 233.794 157.804 233.759 157.864 233.699C157.929 233.63 157.976 233.419 158.002 233.061L157.73 232.97C157.713 233.277 157.679 233.449 157.627 233.488C157.592 233.514 157.549 233.527 157.489 233.527H157.334C157.239 233.527 157.196 233.483 157.196 233.406V232.25H157.92V231.949H156.907V231.332H157.769V231.034H156.907V230.483H156.605ZM158.989 231.22V233.268C158.808 233.32 158.623 233.367 158.429 233.414L158.519 233.721C159.019 233.587 159.459 233.44 159.839 233.281V232.97C159.671 233.039 159.494 233.104 159.308 233.169V231.22H159.809V230.918H158.476V231.22H158.989ZM159.972 230.681V230.983H161.024C161.003 231.142 160.973 231.297 160.93 231.444H160.171V233.471H160.468V231.729H161.852V233.471H162.154V231.444H161.24C161.274 231.297 161.305 231.147 161.33 230.983H162.361V230.681H159.972ZM161.512 233.479L161.305 233.677C161.675 233.962 161.969 234.229 162.184 234.479L162.408 234.255C162.167 233.997 161.865 233.738 161.512 233.479ZM160.986 232.005V232.746C160.973 233.121 160.873 233.427 160.692 233.66C160.494 233.884 160.14 234.066 159.64 234.199L159.809 234.467C160.326 234.32 160.697 234.117 160.925 233.863C161.158 233.583 161.279 233.212 161.296 232.746V232.005H160.986Z" fill="#0F172A"/>
<rect width="171" height="11.3116" transform="translate(149 238.174)" fill="white"/>
<path d="M154.471 241.876L154.259 242.079C154.566 242.32 154.807 242.549 154.984 242.764L155.199 242.549C155.001 242.325 154.76 242.1 154.471 241.876ZM156.976 245.683H157.976L158.054 245.373C157.937 245.381 157.773 245.386 157.566 245.39C157.351 245.394 157.14 245.399 156.933 245.399C156.596 245.399 156.312 245.394 156.088 245.39C155.829 245.381 155.635 245.347 155.501 245.287C155.38 245.231 155.268 245.14 155.165 245.015C155.13 244.976 155.096 244.942 155.061 244.916V243.303H154.16V243.588H154.773V244.899C154.591 244.976 154.389 245.2 154.156 245.567L154.389 245.778C154.63 245.373 154.803 245.174 154.911 245.174C154.962 245.174 155.018 245.209 155.079 245.282C155.212 245.438 155.363 245.545 155.531 245.597C155.704 245.644 155.932 245.67 156.208 245.675C156.484 245.679 156.743 245.683 156.976 245.683ZM156.605 241.794V242.346H156.036C156.088 242.208 156.135 242.066 156.178 241.915L155.881 241.855C155.777 242.243 155.609 242.6 155.376 242.924L155.648 243.092C155.743 242.954 155.829 242.807 155.907 242.644H156.605V243.26H155.484V243.562H156.178C156.165 243.829 156.122 244.062 156.049 244.252C155.937 244.511 155.708 244.726 155.359 244.899L155.562 245.144C155.967 244.933 156.23 244.661 156.342 244.334C156.415 244.118 156.458 243.859 156.471 243.562H156.907V244.786C156.907 244.881 156.933 244.959 156.993 245.019C157.049 245.08 157.131 245.11 157.243 245.11H157.554C157.7 245.106 157.804 245.071 157.864 245.011C157.929 244.942 157.976 244.73 158.002 244.373L157.73 244.282C157.713 244.588 157.679 244.761 157.627 244.799C157.592 244.825 157.549 244.838 157.489 244.838H157.334C157.239 244.838 157.196 244.795 157.196 244.717V243.562H157.92V243.26H156.907V242.644H157.769V242.346H156.907V241.794H156.605ZM158.989 242.531V244.579C158.808 244.631 158.623 244.679 158.429 244.726L158.519 245.032C159.019 244.899 159.459 244.752 159.839 244.592V244.282C159.671 244.351 159.494 244.416 159.308 244.48V242.531H159.809V242.23H158.476V242.531H158.989ZM159.972 241.993V242.294H161.024C161.003 242.454 160.973 242.609 160.93 242.756H160.171V244.782H160.468V243.04H161.852V244.782H162.154V242.756H161.24C161.274 242.609 161.305 242.458 161.33 242.294H162.361V241.993H159.972ZM161.512 244.791L161.305 244.989C161.675 245.274 161.969 245.541 162.184 245.791L162.408 245.567C162.167 245.308 161.865 245.049 161.512 244.791ZM160.986 243.316V244.058C160.973 244.433 160.873 244.739 160.692 244.972C160.494 245.196 160.14 245.377 159.64 245.511L159.809 245.778C160.326 245.632 160.697 245.429 160.925 245.174C161.158 244.894 161.279 244.523 161.296 244.058V243.316H160.986Z" fill="#0F172A"/>
<rect width="171" height="11.3116" transform="translate(149 249.486)" fill="white"/>
<path d="M154.471 253.188L154.259 253.39C154.566 253.632 154.807 253.86 154.984 254.076L155.199 253.86C155.001 253.636 154.76 253.412 154.471 253.188ZM156.976 256.995H157.976L158.054 256.684C157.937 256.693 157.773 256.697 157.566 256.702C157.351 256.706 157.14 256.71 156.933 256.71C156.596 256.71 156.312 256.706 156.088 256.702C155.829 256.693 155.635 256.659 155.501 256.598C155.38 256.542 155.268 256.452 155.165 256.327C155.13 256.288 155.096 256.253 155.061 256.227V254.615H154.16V254.899H154.773V256.21C154.591 256.288 154.389 256.512 154.156 256.878L154.389 257.09C154.63 256.684 154.803 256.486 154.911 256.486C154.962 256.486 155.018 256.521 155.079 256.594C155.212 256.749 155.363 256.857 155.531 256.909C155.704 256.956 155.932 256.982 156.208 256.986C156.484 256.991 156.743 256.995 156.976 256.995ZM156.605 253.106V253.658H156.036C156.088 253.52 156.135 253.377 156.178 253.227L155.881 253.166C155.777 253.554 155.609 253.912 155.376 254.235L155.648 254.404C155.743 254.266 155.829 254.119 155.907 253.955H156.605V254.572H155.484V254.874H156.178C156.165 255.141 156.122 255.374 156.049 255.563C155.937 255.822 155.708 256.038 155.359 256.21L155.562 256.456C155.967 256.245 156.23 255.973 156.342 255.645C156.415 255.43 156.458 255.171 156.471 254.874H156.907V256.098C156.907 256.193 156.933 256.271 156.993 256.331C157.049 256.391 157.131 256.421 157.243 256.421H157.554C157.7 256.417 157.804 256.383 157.864 256.322C157.929 256.253 157.976 256.042 158.002 255.684L157.73 255.594C157.713 255.9 157.679 256.072 157.627 256.111C157.592 256.137 157.549 256.15 157.489 256.15H157.334C157.239 256.15 157.196 256.107 157.196 256.029V254.874H157.92V254.572H156.907V253.955H157.769V253.658H156.907V253.106H156.605ZM158.989 253.843V255.891C158.808 255.943 158.623 255.99 158.429 256.038L158.519 256.344C159.019 256.21 159.459 256.064 159.839 255.904V255.594C159.671 255.663 159.494 255.727 159.308 255.792V253.843H159.809V253.541H158.476V253.843H158.989ZM159.972 253.304V253.606H161.024C161.003 253.765 160.973 253.921 160.93 254.067H160.171V256.094H160.468V254.352H161.852V256.094H162.154V254.067H161.24C161.274 253.921 161.305 253.77 161.33 253.606H162.361V253.304H159.972ZM161.512 256.102L161.305 256.301C161.675 256.585 161.969 256.853 162.184 257.103L162.408 256.878C162.167 256.62 161.865 256.361 161.512 256.102ZM160.986 254.628V255.369C160.973 255.745 160.873 256.051 160.692 256.283C160.494 256.508 160.14 256.689 159.64 256.822L159.809 257.09C160.326 256.943 160.697 256.74 160.925 256.486C161.158 256.206 161.279 255.835 161.296 255.369V254.628H160.986Z" fill="#0F172A"/>
</g>
<path d="M148.5 168C148.5 167.172 149.172 166.5 150 166.5H315C316.933 166.5 318.5 168.067 318.5 170V180C318.5 181.933 316.933 183.5 315 183.5H152C150.067 183.5 148.5 181.933 148.5 180V168Z" fill="white"/>
<path d="M167.684 172.098V172.488H166.232V172.842H167.684V173.244H166.472V173.592H167.684V174H166.064V174.36H169.736V174H168.098V173.592H169.37V173.244H168.098V172.842H169.586V172.488H168.098V172.098H167.684ZM166.934 175.872H168.872V176.31H166.934V175.872ZM168.872 175.536H166.934V175.092H168.872V175.536ZM166.934 176.646H168.872V176.988C168.872 177.126 168.794 177.198 168.65 177.198L168.17 177.18L168.272 177.564H168.776C169.112 177.564 169.286 177.402 169.286 177.078V174.738H166.52V177.6H166.934V176.646ZM164.978 172.164L164.672 172.458C165.104 172.782 165.446 173.088 165.698 173.376L165.992 173.076C165.716 172.77 165.38 172.464 164.978 172.164ZM164.252 173.934V174.348H165.11V176.73C165.11 176.832 165.062 176.922 164.972 177.006L165.14 177.39C165.512 177.12 165.872 176.808 166.208 176.46L166.094 176.004C165.89 176.214 165.704 176.4 165.524 176.568V173.934H164.252ZM170.756 172.194L170.462 172.476C170.888 172.812 171.224 173.13 171.47 173.43L171.77 173.13C171.494 172.818 171.158 172.506 170.756 172.194ZM174.242 177.492H175.634L175.742 177.06C175.58 177.072 175.352 177.078 175.064 177.084C174.764 177.09 174.47 177.096 174.182 177.096C173.714 177.096 173.318 177.09 173.006 177.084C172.646 177.072 172.376 177.024 172.19 176.94C172.022 176.862 171.866 176.736 171.722 176.562C171.674 176.508 171.626 176.46 171.578 176.424V174.18H170.324V174.576H171.176V176.4C170.924 176.508 170.642 176.82 170.318 177.33L170.642 177.624C170.978 177.06 171.218 176.784 171.368 176.784C171.44 176.784 171.518 176.832 171.602 176.934C171.788 177.15 171.998 177.3 172.232 177.372C172.472 177.438 172.79 177.474 173.174 177.48C173.558 177.486 173.918 177.492 174.242 177.492ZM173.726 172.08V172.848H172.934C173.006 172.656 173.072 172.458 173.132 172.248L172.718 172.164C172.574 172.704 172.34 173.202 172.016 173.652L172.394 173.886C172.526 173.694 172.646 173.49 172.754 173.262H173.726V174.12H172.166V174.54H173.132C173.114 174.912 173.054 175.236 172.952 175.5C172.796 175.86 172.478 176.16 171.992 176.4L172.274 176.742C172.838 176.448 173.204 176.07 173.36 175.614C173.462 175.314 173.522 174.954 173.54 174.54H174.146V176.244C174.146 176.376 174.182 176.484 174.266 176.568C174.344 176.652 174.458 176.694 174.614 176.694H175.046C175.25 176.688 175.394 176.64 175.478 176.556C175.568 176.46 175.634 176.166 175.67 175.668L175.292 175.542C175.268 175.968 175.22 176.208 175.148 176.262C175.1 176.298 175.04 176.316 174.956 176.316H174.74C174.608 176.316 174.548 176.256 174.548 176.148V174.54H175.556V174.12H174.146V173.262H175.346V172.848H174.146V172.08H173.726ZM178.478 172.338V172.728H178.778C178.946 173.184 179.216 173.562 179.594 173.868C179.222 174.048 178.778 174.192 178.268 174.312L178.472 174.678C179.054 174.534 179.558 174.354 179.978 174.126C180.41 174.378 180.962 174.552 181.622 174.642L181.778 174.258C181.232 174.186 180.764 174.06 180.38 173.88C180.836 173.556 181.148 173.166 181.322 172.698V172.338H178.478ZM179.204 172.728H180.866C180.68 173.088 180.386 173.394 179.978 173.652C179.624 173.412 179.366 173.1 179.204 172.728ZM176.972 177.546C177.326 177.546 177.506 177.372 177.506 177.024V175.302C177.74 175.206 177.968 175.104 178.19 174.996V174.558C177.962 174.672 177.734 174.78 177.506 174.876V173.664H178.178V173.25H177.506V172.116H177.062V173.25H176.33V173.664H177.062V175.038C176.792 175.128 176.516 175.206 176.234 175.272L176.342 175.704C176.582 175.632 176.822 175.554 177.062 175.47V176.91C177.062 177.066 176.978 177.15 176.822 177.15C176.672 177.15 176.516 177.138 176.36 177.126L176.45 177.546H176.972ZM178.58 175.11V175.506H179.78V176.19H178.274V176.592H179.78V177.54H180.2V176.592H181.688V176.19H180.2V175.506H181.382V175.11H180.2V174.582H179.78V175.11H178.58Z" fill="#94A3B8"/>
<path d="M294.705 176.705L297 174.415L299.295 176.705L300 176L297 173L294 176L294.705 176.705Z" fill="#475569"/>
<path d="M148.5 168C148.5 167.172 149.172 166.5 150 166.5H315C316.933 166.5 318.5 168.067 318.5 170V180C318.5 181.933 316.933 183.5 315 183.5H152C150.067 183.5 148.5 181.933 148.5 180V168Z" stroke="#375FF3"/>
<path d="M235.273 278.961L206.388 250.893L200.643 256.805L229.482 284.89C229.482 284.89 229.482 284.89 229.483 284.891C231.137 286.476 233.741 286.435 235.341 284.826C236.924 283.17 236.883 280.563 235.274 278.962C235.274 278.962 235.274 278.961 235.273 278.961Z" fill="#375FF3" stroke="#10B981" stroke-width="0.535364"/>
<g filter="url(#filter7_b)">
<rect x="140.781" y="191.383" width="70.5683" height="70.5683" rx="35.2841" fill="#B5CCFF" fill-opacity="0.5"/>
</g>
<path d="M140.486 214.122C133.819 233.866 144.389 255.273 164.092 261.946C183.796 268.619 205.262 258.031 211.945 238.333C218.611 218.589 208.042 197.182 188.338 190.509C184.363 189.166 180.154 188.48 175.944 188.524C159.848 188.591 145.632 198.884 140.486 214.122Z" stroke="#375FF3" stroke-width="4.86678" stroke-miterlimit="10" stroke-dasharray="7.5 7.5"/>
<path d="M154.683 196.277L154.389 196.559C154.815 196.895 155.151 197.213 155.397 197.513L155.697 197.213C155.421 196.901 155.085 196.589 154.683 196.277ZM158.169 201.575H159.561L159.669 201.143C159.507 201.155 159.279 201.161 158.991 201.167C158.691 201.173 158.397 201.179 158.109 201.179C157.641 201.179 157.245 201.173 156.933 201.167C156.573 201.155 156.303 201.107 156.117 201.023C155.949 200.945 155.793 200.819 155.649 200.645C155.601 200.591 155.553 200.543 155.505 200.507V198.263H154.251V198.659H155.103V200.483C154.851 200.591 154.569 200.903 154.245 201.413L154.569 201.707C154.905 201.143 155.145 200.867 155.295 200.867C155.367 200.867 155.445 200.915 155.529 201.017C155.715 201.233 155.925 201.383 156.159 201.455C156.399 201.521 156.717 201.557 157.101 201.563C157.485 201.569 157.845 201.575 158.169 201.575ZM157.653 196.163V196.931H156.861C156.933 196.739 156.999 196.541 157.059 196.331L156.645 196.247C156.501 196.787 156.267 197.285 155.943 197.735L156.321 197.969C156.453 197.777 156.573 197.573 156.681 197.345H157.653V198.203H156.093V198.623H157.059C157.041 198.995 156.981 199.319 156.879 199.583C156.723 199.943 156.405 200.243 155.919 200.483L156.201 200.825C156.765 200.531 157.131 200.153 157.287 199.697C157.389 199.397 157.449 199.037 157.467 198.623H158.073V200.327C158.073 200.459 158.109 200.567 158.193 200.651C158.271 200.735 158.385 200.777 158.541 200.777H158.973C159.177 200.771 159.321 200.723 159.405 200.639C159.495 200.543 159.561 200.249 159.597 199.751L159.219 199.625C159.195 200.051 159.147 200.291 159.075 200.345C159.027 200.381 158.967 200.399 158.883 200.399H158.667C158.535 200.399 158.475 200.339 158.475 200.231V198.623H159.483V198.203H158.073V197.345H159.273V196.931H158.073V196.163H157.653ZM160.971 197.189V200.039C160.719 200.111 160.461 200.177 160.191 200.243L160.317 200.669C161.013 200.483 161.625 200.279 162.153 200.057V199.625C161.919 199.721 161.673 199.811 161.415 199.901V197.189H162.111V196.769H160.257V197.189H160.971ZM162.339 196.439V196.859H163.803C163.773 197.081 163.731 197.297 163.671 197.501H162.615V200.321H163.029V197.897H164.955V200.321H165.375V197.501H164.103C164.151 197.297 164.193 197.087 164.229 196.859H165.663V196.439H162.339ZM164.481 200.333L164.193 200.609C164.709 201.005 165.117 201.377 165.417 201.725L165.729 201.413C165.393 201.053 164.973 200.693 164.481 200.333ZM163.749 198.281V199.313C163.731 199.835 163.593 200.261 163.341 200.585C163.065 200.897 162.573 201.149 161.877 201.335L162.111 201.707C162.831 201.503 163.347 201.221 163.665 200.867C163.989 200.477 164.157 199.961 164.181 199.313V198.281H163.749ZM166.227 198.665V199.097H171.621V198.665H166.227Z" fill="#0F172A"/>
<path d="M154.683 207.589L154.389 207.871C154.815 208.207 155.151 208.525 155.397 208.825L155.697 208.525C155.421 208.213 155.085 207.901 154.683 207.589ZM158.169 212.887H159.561L159.669 212.455C159.507 212.467 159.279 212.473 158.991 212.479C158.691 212.485 158.397 212.491 158.109 212.491C157.641 212.491 157.245 212.485 156.933 212.479C156.573 212.467 156.303 212.419 156.117 212.335C155.949 212.257 155.793 212.131 155.649 211.957C155.601 211.903 155.553 211.855 155.505 211.819V209.575H154.251V209.971H155.103V211.795C154.851 211.903 154.569 212.215 154.245 212.725L154.569 213.019C154.905 212.455 155.145 212.179 155.295 212.179C155.367 212.179 155.445 212.227 155.529 212.329C155.715 212.545 155.925 212.695 156.159 212.767C156.399 212.833 156.717 212.869 157.101 212.875C157.485 212.881 157.845 212.887 158.169 212.887ZM157.653 207.475V208.243H156.861C156.933 208.051 156.999 207.853 157.059 207.643L156.645 207.559C156.501 208.099 156.267 208.597 155.943 209.047L156.321 209.281C156.453 209.089 156.573 208.885 156.681 208.657H157.653V209.515H156.093V209.935H157.059C157.041 210.307 156.981 210.631 156.879 210.895C156.723 211.255 156.405 211.555 155.919 211.795L156.201 212.137C156.765 211.843 157.131 211.465 157.287 211.009C157.389 210.709 157.449 210.349 157.467 209.935H158.073V211.639C158.073 211.771 158.109 211.879 158.193 211.963C158.271 212.047 158.385 212.089 158.541 212.089H158.973C159.177 212.083 159.321 212.035 159.405 211.951C159.495 211.855 159.561 211.561 159.597 211.063L159.219 210.937C159.195 211.363 159.147 211.603 159.075 211.657C159.027 211.693 158.967 211.711 158.883 211.711H158.667C158.535 211.711 158.475 211.651 158.475 211.543V209.935H159.483V209.515H158.073V208.657H159.273V208.243H158.073V207.475H157.653ZM160.971 208.501V211.351C160.719 211.423 160.461 211.489 160.191 211.555L160.317 211.981C161.013 211.795 161.625 211.591 162.153 211.369V210.937C161.919 211.033 161.673 211.123 161.415 211.213V208.501H162.111V208.081H160.257V208.501H160.971ZM162.339 207.751V208.171H163.803C163.773 208.393 163.731 208.609 163.671 208.813H162.615V211.633H163.029V209.209H164.955V211.633H165.375V208.813H164.103C164.151 208.609 164.193 208.399 164.229 208.171H165.663V207.751H162.339ZM164.481 211.645L164.193 211.921C164.709 212.317 165.117 212.689 165.417 213.037L165.729 212.725C165.393 212.365 164.973 212.005 164.481 211.645ZM163.749 209.593V210.625C163.731 211.147 163.593 211.573 163.341 211.897C163.065 212.209 162.573 212.461 161.877 212.647L162.111 213.019C162.831 212.815 163.347 212.533 163.665 212.179C163.989 211.789 164.157 211.273 164.181 210.625V209.593H163.749ZM166.797 208.159V208.585H171.057V208.159H166.797ZM166.245 211.933V212.371H171.603V211.933H166.245Z" fill="#0F172A"/>
<path d="M154.683 218.901L154.389 219.183C154.815 219.519 155.151 219.837 155.397 220.137L155.697 219.837C155.421 219.525 155.085 219.213 154.683 218.901ZM158.169 224.199H159.561L159.669 223.767C159.507 223.779 159.279 223.785 158.991 223.791C158.691 223.797 158.397 223.803 158.109 223.803C157.641 223.803 157.245 223.797 156.933 223.791C156.573 223.779 156.303 223.731 156.117 223.647C155.949 223.569 155.793 223.443 155.649 223.269C155.601 223.215 155.553 223.167 155.505 223.131V220.887H154.251V221.283H155.103V223.107C154.851 223.215 154.569 223.527 154.245 224.037L154.569 224.331C154.905 223.767 155.145 223.491 155.295 223.491C155.367 223.491 155.445 223.539 155.529 223.641C155.715 223.857 155.925 224.007 156.159 224.079C156.399 224.145 156.717 224.181 157.101 224.187C157.485 224.193 157.845 224.199 158.169 224.199ZM157.653 218.787V219.555H156.861C156.933 219.363 156.999 219.165 157.059 218.955L156.645 218.871C156.501 219.411 156.267 219.909 155.943 220.359L156.321 220.593C156.453 220.401 156.573 220.197 156.681 219.969H157.653V220.827H156.093V221.247H157.059C157.041 221.619 156.981 221.943 156.879 222.207C156.723 222.567 156.405 222.867 155.919 223.107L156.201 223.449C156.765 223.155 157.131 222.777 157.287 222.321C157.389 222.021 157.449 221.661 157.467 221.247H158.073V222.951C158.073 223.083 158.109 223.191 158.193 223.275C158.271 223.359 158.385 223.401 158.541 223.401H158.973C159.177 223.395 159.321 223.347 159.405 223.263C159.495 223.167 159.561 222.873 159.597 222.375L159.219 222.249C159.195 222.675 159.147 222.915 159.075 222.969C159.027 223.005 158.967 223.023 158.883 223.023H158.667C158.535 223.023 158.475 222.963 158.475 222.855V221.247H159.483V220.827H158.073V219.969H159.273V219.555H158.073V218.787H157.653ZM160.971 219.813V222.663C160.719 222.735 160.461 222.801 160.191 222.867L160.317 223.293C161.013 223.107 161.625 222.903 162.153 222.681V222.249C161.919 222.345 161.673 222.435 161.415 222.525V219.813H162.111V219.393H160.257V219.813H160.971ZM162.339 219.063V219.483H163.803C163.773 219.705 163.731 219.921 163.671 220.125H162.615V222.945H163.029V220.521H164.955V222.945H165.375V220.125H164.103C164.151 219.921 164.193 219.711 164.229 219.483H165.663V219.063H162.339ZM164.481 222.957L164.193 223.233C164.709 223.629 165.117 224.001 165.417 224.349L165.729 224.037C165.393 223.677 164.973 223.317 164.481 222.957ZM163.749 220.905V221.937C163.731 222.459 163.593 222.885 163.341 223.209C163.065 223.521 162.573 223.773 161.877 223.959L162.111 224.331C162.831 224.127 163.347 223.845 163.665 223.491C163.989 223.101 164.157 222.585 164.181 221.937V220.905H163.749ZM166.665 219.261V219.681H171.201V219.261H166.665ZM167.067 221.337V221.757H170.793V221.337H167.067ZM166.221 223.557V223.989H171.633V223.557H166.221Z" fill="#0F172A"/>
<path d="M154.683 230.212L154.389 230.494C154.815 230.83 155.151 231.148 155.397 231.448L155.697 231.148C155.421 230.836 155.085 230.524 154.683 230.212ZM158.169 235.51H159.561L159.669 235.078C159.507 235.09 159.279 235.096 158.991 235.102C158.691 235.108 158.397 235.114 158.109 235.114C157.641 235.114 157.245 235.108 156.933 235.102C156.573 235.09 156.303 235.042 156.117 234.958C155.949 234.88 155.793 234.754 155.649 234.58C155.601 234.526 155.553 234.478 155.505 234.442V232.198H154.251V232.594H155.103V234.418C154.851 234.526 154.569 234.838 154.245 235.348L154.569 235.642C154.905 235.078 155.145 234.802 155.295 234.802C155.367 234.802 155.445 234.85 155.529 234.952C155.715 235.168 155.925 235.318 156.159 235.39C156.399 235.456 156.717 235.492 157.101 235.498C157.485 235.504 157.845 235.51 158.169 235.51ZM157.653 230.098V230.866H156.861C156.933 230.674 156.999 230.476 157.059 230.266L156.645 230.182C156.501 230.722 156.267 231.22 155.943 231.67L156.321 231.904C156.453 231.712 156.573 231.508 156.681 231.28H157.653V232.138H156.093V232.558H157.059C157.041 232.93 156.981 233.254 156.879 233.518C156.723 233.878 156.405 234.178 155.919 234.418L156.201 234.76C156.765 234.466 157.131 234.088 157.287 233.632C157.389 233.332 157.449 232.972 157.467 232.558H158.073V234.262C158.073 234.394 158.109 234.502 158.193 234.586C158.271 234.67 158.385 234.712 158.541 234.712H158.973C159.177 234.706 159.321 234.658 159.405 234.574C159.495 234.478 159.561 234.184 159.597 233.686L159.219 233.56C159.195 233.986 159.147 234.226 159.075 234.28C159.027 234.316 158.967 234.334 158.883 234.334H158.667C158.535 234.334 158.475 234.274 158.475 234.166V232.558H159.483V232.138H158.073V231.28H159.273V230.866H158.073V230.098H157.653ZM160.971 231.124V233.974C160.719 234.046 160.461 234.112 160.191 234.178L160.317 234.604C161.013 234.418 161.625 234.214 162.153 233.992V233.56C161.919 233.656 161.673 233.746 161.415 233.836V231.124H162.111V230.704H160.257V231.124H160.971ZM162.339 230.374V230.794H163.803C163.773 231.016 163.731 231.232 163.671 231.436H162.615V234.256H163.029V231.832H164.955V234.256H165.375V231.436H164.103C164.151 231.232 164.193 231.022 164.229 230.794H165.663V230.374H162.339ZM164.481 234.268L164.193 234.544C164.709 234.94 165.117 235.312 165.417 235.66L165.729 235.348C165.393 234.988 164.973 234.628 164.481 234.268ZM163.749 232.216V233.248C163.731 233.77 163.593 234.196 163.341 234.52C163.065 234.832 162.573 235.084 161.877 235.27L162.111 235.642C162.831 235.438 163.347 235.156 163.665 234.802C163.989 234.412 164.157 233.896 164.181 233.248V232.216H163.749ZM171.393 230.5H166.461V235.528H166.899V235.18H170.955V235.528H171.393V230.5ZM166.899 234.79V230.89H168.045V232.192C168.033 232.9 167.721 233.41 167.109 233.734L167.439 234.022C168.111 233.638 168.453 233.026 168.465 232.192V230.89H169.359V233.272C169.359 233.596 169.533 233.764 169.893 233.764H170.745V233.368H170.007C169.851 233.368 169.773 233.302 169.773 233.182V230.89H170.955V234.79H166.899Z" fill="#0F172A"/>
<path d="M154.683 241.524L154.389 241.806C154.815 242.142 155.151 242.46 155.397 242.76L155.697 242.46C155.421 242.148 155.085 241.836 154.683 241.524ZM158.169 246.822H159.561L159.669 246.39C159.507 246.402 159.279 246.408 158.991 246.414C158.691 246.42 158.397 246.426 158.109 246.426C157.641 246.426 157.245 246.42 156.933 246.414C156.573 246.402 156.303 246.354 156.117 246.27C155.949 246.192 155.793 246.066 155.649 245.892C155.601 245.838 155.553 245.79 155.505 245.754V243.51H154.251V243.906H155.103V245.73C154.851 245.838 154.569 246.15 154.245 246.66L154.569 246.954C154.905 246.39 155.145 246.114 155.295 246.114C155.367 246.114 155.445 246.162 155.529 246.264C155.715 246.48 155.925 246.63 156.159 246.702C156.399 246.768 156.717 246.804 157.101 246.81C157.485 246.816 157.845 246.822 158.169 246.822ZM157.653 241.41V242.178H156.861C156.933 241.986 156.999 241.788 157.059 241.578L156.645 241.494C156.501 242.034 156.267 242.532 155.943 242.982L156.321 243.216C156.453 243.024 156.573 242.82 156.681 242.592H157.653V243.45H156.093V243.87H157.059C157.041 244.242 156.981 244.566 156.879 244.83C156.723 245.19 156.405 245.49 155.919 245.73L156.201 246.072C156.765 245.778 157.131 245.4 157.287 244.944C157.389 244.644 157.449 244.284 157.467 243.87H158.073V245.574C158.073 245.706 158.109 245.814 158.193 245.898C158.271 245.982 158.385 246.024 158.541 246.024H158.973C159.177 246.018 159.321 245.97 159.405 245.886C159.495 245.79 159.561 245.496 159.597 244.998L159.219 244.872C159.195 245.298 159.147 245.538 159.075 245.592C159.027 245.628 158.967 245.646 158.883 245.646H158.667C158.535 245.646 158.475 245.586 158.475 245.478V243.87H159.483V243.45H158.073V242.592H159.273V242.178H158.073V241.41H157.653ZM160.971 242.436V245.286C160.719 245.358 160.461 245.424 160.191 245.49L160.317 245.916C161.013 245.73 161.625 245.526 162.153 245.304V244.872C161.919 244.968 161.673 245.058 161.415 245.148V242.436H162.111V242.016H160.257V242.436H160.971ZM162.339 241.686V242.106H163.803C163.773 242.328 163.731 242.544 163.671 242.748H162.615V245.568H163.029V243.144H164.955V245.568H165.375V242.748H164.103C164.151 242.544 164.193 242.334 164.229 242.106H165.663V241.686H162.339ZM164.481 245.58L164.193 245.856C164.709 246.252 165.117 246.624 165.417 246.972L165.729 246.66C165.393 246.3 164.973 245.94 164.481 245.58ZM163.749 243.528V244.56C163.731 245.082 163.593 245.508 163.341 245.832C163.065 246.144 162.573 246.396 161.877 246.582L162.111 246.954C162.831 246.75 163.347 246.468 163.665 246.114C163.989 245.724 164.157 245.208 164.181 244.56V243.528H163.749ZM166.797 243.672V244.092H168.069L167.619 246.246H166.263V246.672H171.597V246.246H170.613V243.672H168.591L168.903 242.196H171.369V241.776H166.491V242.196H168.471L168.159 243.672H166.797ZM168.051 246.246L168.501 244.092H170.175V246.246H168.051Z" fill="#0F172A"/>
<path d="M154.683 252.835L154.389 253.117C154.815 253.453 155.151 253.771 155.397 254.071L155.697 253.771C155.421 253.459 155.085 253.147 154.683 252.835ZM158.169 258.133H159.561L159.669 257.701C159.507 257.713 159.279 257.719 158.991 257.725C158.691 257.731 158.397 257.737 158.109 257.737C157.641 257.737 157.245 257.731 156.933 257.725C156.573 257.713 156.303 257.665 156.117 257.581C155.949 257.503 155.793 257.377 155.649 257.203C155.601 257.149 155.553 257.101 155.505 257.065V254.821H154.251V255.217H155.103V257.041C154.851 257.149 154.569 257.461 154.245 257.971L154.569 258.265C154.905 257.701 155.145 257.425 155.295 257.425C155.367 257.425 155.445 257.473 155.529 257.575C155.715 257.791 155.925 257.941 156.159 258.013C156.399 258.079 156.717 258.115 157.101 258.121C157.485 258.127 157.845 258.133 158.169 258.133ZM157.653 252.721V253.489H156.861C156.933 253.297 156.999 253.099 157.059 252.889L156.645 252.805C156.501 253.345 156.267 253.843 155.943 254.293L156.321 254.527C156.453 254.335 156.573 254.131 156.681 253.903H157.653V254.761H156.093V255.181H157.059C157.041 255.553 156.981 255.877 156.879 256.141C156.723 256.501 156.405 256.801 155.919 257.041L156.201 257.383C156.765 257.089 157.131 256.711 157.287 256.255C157.389 255.955 157.449 255.595 157.467 255.181H158.073V256.885C158.073 257.017 158.109 257.125 158.193 257.209C158.271 257.293 158.385 257.335 158.541 257.335H158.973C159.177 257.329 159.321 257.281 159.405 257.197C159.495 257.101 159.561 256.807 159.597 256.309L159.219 256.183C159.195 256.609 159.147 256.849 159.075 256.903C159.027 256.939 158.967 256.957 158.883 256.957H158.667C158.535 256.957 158.475 256.897 158.475 256.789V255.181H159.483V254.761H158.073V253.903H159.273V253.489H158.073V252.721H157.653ZM160.971 253.747V256.597C160.719 256.669 160.461 256.735 160.191 256.801L160.317 257.227C161.013 257.041 161.625 256.837 162.153 256.615V256.183C161.919 256.279 161.673 256.369 161.415 256.459V253.747H162.111V253.327H160.257V253.747H160.971ZM162.339 252.997V253.417H163.803C163.773 253.639 163.731 253.855 163.671 254.059H162.615V256.879H163.029V254.455H164.955V256.879H165.375V254.059H164.103C164.151 253.855 164.193 253.645 164.229 253.417H165.663V252.997H162.339ZM164.481 256.891L164.193 257.167C164.709 257.563 165.117 257.935 165.417 258.283L165.729 257.971C165.393 257.611 164.973 257.251 164.481 256.891ZM163.749 254.839V255.871C163.731 256.393 163.593 256.819 163.341 257.143C163.065 257.455 162.573 257.707 161.877 257.893L162.111 258.265C162.831 258.061 163.347 257.779 163.665 257.425C163.989 257.035 164.157 256.519 164.181 255.871V254.839H163.749ZM169.935 255.349L169.563 255.583C170.229 256.543 170.757 257.413 171.141 258.193L171.525 257.929C171.159 257.197 170.631 256.333 169.935 255.349ZM167.871 255.385C167.511 256.417 166.977 257.239 166.257 257.845L166.623 258.157C167.313 257.557 167.871 256.693 168.291 255.553L167.871 255.385ZM166.263 254.347V254.767H171.591V254.347H166.263ZM168.369 252.787L168.069 253.069C168.579 253.441 168.975 253.789 169.263 254.119L169.581 253.801C169.251 253.465 168.849 253.123 168.369 252.787Z" fill="#0F172A"/>
<path opacity="0.65" d="M153.1 32.1C156.5 31.2 159.8 29.8 162.8 28C159.8 26.1 156.5 24.7 153.1 23.8C149.6 22.9 146.9 20.2 146 16.7C145.1 13.3 143.8 10 141.9 7C140 10 138.6 13.3 137.8 16.7C136.9 20.2 134.2 22.9 130.7 23.8C127.3 24.7 124 26.1 121 27.9C124 29.8 127.3 31.2 130.7 32C134.2 32.9 136.9 35.6 137.8 39.1C138.7 42.5 140.1 45.8 141.9 48.8C143.8 45.8 145.2 42.5 146.1 39.1C147 35.7 149.6 33 153.1 32.1Z" fill="url(#paint2_linear)"/>
<path opacity="0.32" d="M358.117 54.2938C360.459 53.6737 362.733 52.7091 364.8 51.4689C362.733 50.1598 360.459 49.1952 358.117 48.5751C355.705 47.955 353.845 46.0947 353.225 43.6833C352.605 41.3407 351.709 39.067 350.4 37C349.091 39.067 348.126 41.3407 347.575 43.6833C346.955 46.0947 345.095 47.955 342.683 48.5751C340.341 49.1952 338.067 50.1598 336 51.4C338.067 52.7091 340.341 53.6737 342.683 54.2249C345.095 54.845 346.955 56.7053 347.575 59.1168C348.195 61.4593 349.16 63.733 350.4 65.8C351.709 63.733 352.674 61.4593 353.294 59.1168C353.914 56.7742 355.705 54.9139 358.117 54.2938Z" fill="url(#paint3_linear)"/>
<path d="M66.9386 274.237L80.8262 290.916L68.3703 291.203L66.9386 274.237Z" fill="#64748B"/>
<g filter="url(#filter8_d)">
<path d="M67.5825 309.242C68.2983 309.6 69.2289 309.314 69.5869 308.598C69.73 308.383 69.8016 308.097 69.73 307.811L68.3699 291.274L66.9382 274.309C66.8666 273.521 66.1507 272.877 65.3633 273.02C65.1485 273.02 65.0054 273.092 64.7906 273.163L49.9008 281.467L35.3689 289.556C34.6531 289.914 34.3667 290.845 34.7962 291.561C34.9394 291.847 35.1542 291.99 35.3689 292.133L42.6706 296.071L30.95 317.856C30.4257 318.831 30.7924 320.046 31.7682 320.568L45.7748 328.057C46.7489 328.578 47.9607 328.21 48.4816 327.236L60.2091 305.305L67.5825 309.242Z" fill="url(#paint4_linear)"/>
</g>
<path d="M436.185 308.278C439.217 306.495 442.017 304.257 444.421 301.715C441.02 300.694 437.464 300.236 433.948 300.286C430.335 300.362 427.007 298.49 425.197 295.362C423.413 292.331 421.272 289.503 418.634 287.126C417.613 290.528 417.154 294.083 417.3 297.573C417.377 301.186 415.505 304.513 412.377 306.324C409.345 308.107 406.545 310.344 404.141 312.886C407.542 313.907 411.097 314.366 414.587 314.22C418.2 314.143 421.528 316.016 423.338 319.143C425.121 322.175 427.359 324.975 429.901 327.379C430.922 323.978 431.381 320.423 431.331 316.906C431.281 313.389 433.057 310.088 436.185 308.278Z" fill="url(#paint5_linear)"/>
<g filter="url(#filter9_b)">
<path d="M436.185 308.278C439.217 306.495 442.017 304.257 444.421 301.715C441.02 300.694 437.464 300.236 433.948 300.286C430.335 300.362 427.007 298.49 425.197 295.362C423.413 292.331 421.272 289.503 418.634 287.126C417.613 290.528 417.154 294.083 417.3 297.573C417.377 301.186 415.505 304.513 412.377 306.324C409.345 308.107 406.545 310.344 404.141 312.886C407.542 313.907 411.097 314.366 414.587 314.22C418.2 314.143 421.528 316.016 423.338 319.143C425.121 322.175 427.359 324.975 429.901 327.379C430.922 323.978 431.381 320.423 431.331 316.906C431.281 313.389 433.057 310.088 436.185 308.278Z" fill="url(#paint6_linear)" fill-opacity="0.33"/>
</g>
<defs>
<filter id="filter0_d" x="8.96987" y="23.407" width="454.06" height="327.574" filterUnits="userSpaceOnUse" color-interpolation-filters="sRGB">
<feFlood flood-opacity="0" result="BackgroundImageFix"/>
<feColorMatrix in="SourceAlpha" type="matrix" values="0 0 0 0 0 0 0 0 0 0 0 0 0 0 0 0 0 0 127 0" result="hardAlpha"/>
<feMorphology radius="6.71859" operator="dilate" in="SourceAlpha" result="effect1_dropShadow"/>
<feOffset dy="13.4372"/>
<feGaussianBlur stdDeviation="20.1558"/>
<feColorMatrix type="matrix" values="0 0 0 0 0.580392 0 0 0 0 0.639216 0 0 0 0 0.721569 0 0 0 0.25 0"/>
<feBlend mode="normal" in2="BackgroundImageFix" result="effect1_dropShadow"/>
<feBlend mode="normal" in="SourceGraphic" in2="effect1_dropShadow" result="shape"/>
</filter>
<filter id="filter1_d" x="0.25" y="19.8333" width="471.5" height="127.666" filterUnits="userSpaceOnUse" color-interpolation-filters="sRGB">
<feFlood flood-opacity="0" result="BackgroundImageFix"/>
<feColorMatrix in="SourceAlpha" type="matrix" values="0 0 0 0 0 0 0 0 0 0 0 0 0 0 0 0 0 0 127 0" result="hardAlpha"/>
<feOffset dy="18.5833"/>
<feGaussianBlur stdDeviation="27.875"/>
<feComposite in2="hardAlpha" operator="out"/>
<feColorMatrix type="matrix" values="0 0 0 0 0.215686 0 0 0 0 0.372549 0 0 0 0 0.952941 0 0 0 0.25 0"/>
<feBlend mode="normal" in2="BackgroundImageFix" result="effect1_dropShadow"/>
<feBlend mode="normal" in="SourceGraphic" in2="effect1_dropShadow" result="shape"/>
</filter>
<filter id="filter2_d" x="37" y="65" width="135.222" height="76.4445" filterUnits="userSpaceOnUse" color-interpolation-filters="sRGB">
<feFlood flood-opacity="0" result="BackgroundImageFix"/>
<feColorMatrix in="SourceAlpha" type="matrix" values="0 0 0 0 0 0 0 0 0 0 0 0 0 0 0 0 0 0 127 0" result="hardAlpha"/>
<feMorphology radius="4" operator="dilate" in="SourceAlpha" result="effect1_dropShadow"/>
<feOffset dy="8"/>
<feGaussianBlur stdDeviation="12"/>
<feColorMatrix type="matrix" values="0 0 0 0 0.580392 0 0 0 0 0.639216 0 0 0 0 0.721569 0 0 0 0.25 0"/>
<feBlend mode="normal" in2="BackgroundImageFix" result="effect1_dropShadow"/>
<feBlend mode="normal" in="SourceGraphic" in2="effect1_dropShadow" result="shape"/>
</filter>
<filter id="filter3_d" x="28" y="157" width="135.222" height="76.4445" filterUnits="userSpaceOnUse" color-interpolation-filters="sRGB">
<feFlood flood-opacity="0" result="BackgroundImageFix"/>
<feColorMatrix in="SourceAlpha" type="matrix" values="0 0 0 0 0 0 0 0 0 0 0 0 0 0 0 0 0 0 127 0" result="hardAlpha"/>
<feMorphology radius="4" operator="dilate" in="SourceAlpha" result="effect1_dropShadow"/>
<feOffset dy="8"/>
<feGaussianBlur stdDeviation="12"/>
<feColorMatrix type="matrix" values="0 0 0 0 0.580392 0 0 0 0 0.639216 0 0 0 0 0.721569 0 0 0 0.25 0"/>
<feBlend mode="normal" in2="BackgroundImageFix" result="effect1_dropShadow"/>
<feBlend mode="normal" in="SourceGraphic" in2="effect1_dropShadow" result="shape"/>
</filter>
<filter id="filter4_d" x="301" y="126" width="135.222" height="76.4445" filterUnits="userSpaceOnUse" color-interpolation-filters="sRGB">
<feFlood flood-opacity="0" result="BackgroundImageFix"/>
<feColorMatrix in="SourceAlpha" type="matrix" values="0 0 0 0 0 0 0 0 0 0 0 0 0 0 0 0 0 0 127 0" result="hardAlpha"/>
<feMorphology radius="4" operator="dilate" in="SourceAlpha" result="effect1_dropShadow"/>
<feOffset dy="8"/>
<feGaussianBlur stdDeviation="12"/>
<feColorMatrix type="matrix" values="0 0 0 0 0.580392 0 0 0 0 0.639216 0 0 0 0 0.721569 0 0 0 0.25 0"/>
<feBlend mode="normal" in2="BackgroundImageFix" result="effect1_dropShadow"/>
<feBlend mode="normal" in="SourceGraphic" in2="effect1_dropShadow" result="shape"/>
</filter>
<filter id="filter5_d" x="322" y="193" width="135.222" height="76.4445" filterUnits="userSpaceOnUse" color-interpolation-filters="sRGB">
<feFlood flood-opacity="0" result="BackgroundImageFix"/>
<feColorMatrix in="SourceAlpha" type="matrix" values="0 0 0 0 0 0 0 0 0 0 0 0 0 0 0 0 0 0 127 0" result="hardAlpha"/>
<feMorphology radius="4" operator="dilate" in="SourceAlpha" result="effect1_dropShadow"/>
<feOffset dy="8"/>
<feGaussianBlur stdDeviation="12"/>
<feColorMatrix type="matrix" values="0 0 0 0 0.580392 0 0 0 0 0.639216 0 0 0 0 0.721569 0 0 0 0.25 0"/>
<feBlend mode="normal" in2="BackgroundImageFix" result="effect1_dropShadow"/>
<feBlend mode="normal" in="SourceGraphic" in2="effect1_dropShadow" result="shape"/>
</filter>
<filter id="filter6_d" x="121" y="168" width="227" height="133.725" filterUnits="userSpaceOnUse" color-interpolation-filters="sRGB">
<feFlood flood-opacity="0" result="BackgroundImageFix"/>
<feColorMatrix in="SourceAlpha" type="matrix" values="0 0 0 0 0 0 0 0 0 0 0 0 0 0 0 0 0 0 127 0" result="hardAlpha"/>
<feMorphology radius="4" operator="dilate" in="SourceAlpha" result="effect1_dropShadow"/>
<feOffset dy="8"/>
<feGaussianBlur stdDeviation="12"/>
<feColorMatrix type="matrix" values="0 0 0 0 0.580392 0 0 0 0 0.639216 0 0 0 0 0.721569 0 0 0 0.25 0"/>
<feBlend mode="normal" in2="BackgroundImageFix" result="effect1_dropShadow"/>
<feBlend mode="normal" in="SourceGraphic" in2="effect1_dropShadow" result="shape"/>
</filter>
<filter id="filter7_b" x="118.781" y="169.383" width="114.568" height="114.568" filterUnits="userSpaceOnUse" color-interpolation-filters="sRGB">
<feFlood flood-opacity="0" result="BackgroundImageFix"/>
<feGaussianBlur in="BackgroundImage" stdDeviation="11"/>
<feComposite in2="SourceAlpha" operator="in" result="effect1_backgroundBlur"/>
<feBlend mode="normal" in="SourceGraphic" in2="effect1_backgroundBlur" result="shape"/>
</filter>
<filter id="filter8_d" x="2.71094" y="253" width="95.0472" height="111.294" filterUnits="userSpaceOnUse" color-interpolation-filters="sRGB">
<feFlood flood-opacity="0" result="BackgroundImageFix"/>
<feColorMatrix in="SourceAlpha" type="matrix" values="0 0 0 0 0 0 0 0 0 0 0 0 0 0 0 0 0 0 127 0" result="hardAlpha"/>
<feMorphology radius="4" operator="dilate" in="SourceAlpha" result="effect1_dropShadow"/>
<feOffset dy="8"/>
<feGaussianBlur stdDeviation="12"/>
<feColorMatrix type="matrix" values="0 0 0 0 0.580392 0 0 0 0 0.639216 0 0 0 0 0.721569 0 0 0 0.25 0"/>
<feBlend mode="normal" in2="BackgroundImageFix" result="effect1_dropShadow"/>
<feBlend mode="normal" in="SourceGraphic" in2="effect1_dropShadow" result="shape"/>
</filter>
<filter id="filter9_b" x="376.507" y="259.493" width="95.5203" height="95.5202" filterUnits="userSpaceOnUse" color-interpolation-filters="sRGB">
<feFlood flood-opacity="0" result="BackgroundImageFix"/>
<feGaussianBlur in="BackgroundImage" stdDeviation="11"/>
<feComposite in2="SourceAlpha" operator="in" result="effect1_backgroundBlur"/>
<feBlend mode="normal" in="SourceGraphic" in2="effect1_backgroundBlur" result="shape"/>
</filter>
<linearGradient id="paint0_linear" x1="56" y1="65.0831" x2="416" y2="65.0831" gradientUnits="userSpaceOnUse">
<stop stop-color="#638AFF"/>
<stop offset="1" stop-color="#375FF3"/>
</linearGradient>
<radialGradient id="paint1_radial" cx="0" cy="0" r="1" gradientUnits="userSpaceOnUse" gradientTransform="translate(231.611 82.0075) rotate(88.7388) scale(199.425 295.918)">
<stop offset="0.392276" stop-color="#E6ECF9" stop-opacity="0.65"/>
<stop offset="1" stop-color="#E6ECF9" stop-opacity="0.15"/>
</radialGradient>
<linearGradient id="paint2_linear" x1="141.9" y1="7" x2="141.9" y2="48.8" gradientUnits="userSpaceOnUse">
<stop stop-color="#A5B4FC"/>
<stop offset="1" stop-color="#818CF8"/>
</linearGradient>
<linearGradient id="paint3_linear" x1="350.4" y1="37" x2="350.4" y2="65.8" gradientUnits="userSpaceOnUse">
<stop stop-color="#F0ABFC"/>
<stop offset="1" stop-color="#E879F9"/>
</linearGradient>
<linearGradient id="paint4_linear" x1="49.8791" y1="273" x2="49.8791" y2="329" gradientUnits="userSpaceOnUse">
<stop stop-color="#6EE7B7"/>
<stop offset="1" stop-color="#34D399"/>
</linearGradient>
<linearGradient id="paint5_linear" x1="418.634" y1="287.126" x2="429.901" y2="327.379" gradientUnits="userSpaceOnUse">
<stop stop-color="#FCA5A5"/>
<stop offset="1" stop-color="#F87171"/>
</linearGradient>
<linearGradient id="paint6_linear" x1="418.634" y1="287.126" x2="429.901" y2="327.379" gradientUnits="userSpaceOnUse">
<stop stop-color="#FCA5A5"/>
<stop offset="1" stop-color="#F87171"/>
</linearGradient>
<clipPath id="clip0">
<rect width="10.2222" height="10.2222" fill="white" transform="translate(70.1111 90.1111)"/>
</clipPath>
<clipPath id="clip1">
<rect width="10.2222" height="10.2222" fill="white" transform="translate(61.1111 182.111)"/>
</clipPath>
<clipPath id="clip2">
<rect width="10.2222" height="10.2222" fill="white" transform="translate(334.111 151.111)"/>
</clipPath>
<clipPath id="clip3">
<rect width="10.2222" height="10.2222" fill="white" transform="translate(355.111 218.111)"/>
</clipPath>
<clipPath id="clip4">
<rect width="12.9811" height="12.9811" fill="white" transform="translate(147 140.092)"/>
</clipPath>
<clipPath id="clip5">
<rect width="12.9811" height="12.9811" fill="white" transform="translate(208.66 140.092)"/>
</clipPath>
</defs>
</svg>
