<svg width="120" height="120" viewBox="0 0 120 120" fill="none" xmlns="http://www.w3.org/2000/svg">
<rect x="20.75" y="28.75" width="70.5" height="78.5" rx="3.25" fill="white" stroke="#CBD5E1" stroke-width="1.5"/>
<rect x="28" y="47" width="56" height="10" rx="1" fill="#E5E9FC"/>
<rect x="28" y="36" width="35" height="7" rx="1" fill="#FCD34D"/>
<rect x="71" y="36" width="13" height="7" rx="1" fill="#FCD34D"/>
<rect x="28" y="61" width="56" height="11" rx="1" fill="#E5E9FC"/>
<rect x="28" y="76" width="56" height="10" rx="1" fill="#E5E9FC"/>
<rect x="28" y="91" width="56" height="9" rx="1" fill="#E5E9FC"/>
<rect x="71" y="93" width="25" height="18" fill="white"/>
<path d="M71.2476 111H75.5436V104.184H81.6396V100.608H75.5436V96.696H82.6476V93.12H71.2476V111ZM82.8567 111H87.2967L88.2327 108.84C88.5687 108.048 88.9047 107.256 89.2407 106.512H89.3607C89.7927 107.256 90.2007 108.072 90.6087 108.84L91.8567 111H96.4407L92.2647 104.376L96.2007 97.344H91.7847L90.9447 99.432C90.6567 100.224 90.3207 101.016 90.0567 101.784H89.9367C89.5527 101.016 89.1687 100.224 88.8087 99.432L87.6807 97.344H83.0967L87.0327 103.896L82.8567 111Z" fill="#B5CCFF"/>
</svg>
