<svg width="238" height="178" viewBox="0 0 238 178" fill="none" xmlns="http://www.w3.org/2000/svg">
<path d="M0 8C0 3.58172 3.58172 0 8 0H230C234.418 0 238 3.58172 238 8V178H0V8Z" fill="#F8FAFC"/>
<path d="M195.542 97.4577L198.868 98.3283L199.753 101.633L197.315 104.073L193.957 103.184L193.072 99.8824L195.542 97.4577Z" stroke="#E2E8F0"/>
<path fill-rule="evenodd" clip-rule="evenodd" d="M208.82 44.3997C210.113 43.6886 211.627 44.3157 212.857 45.2879L212.851 45.2959C213.86 46.049 214.297 45.9021 214.332 45.883C214.366 45.8642 214.752 45.5544 214.608 44.1677L216.811 43.9384C216.973 45.4982 216.692 47.1126 215.4 47.8237C214.109 48.5337 212.594 47.911 211.358 46.9424L211.365 46.9338C210.356 46.1735 209.921 46.3224 209.888 46.3405C209.852 46.3604 209.466 46.674 209.605 48.0641L209.604 48.0642C209.76 49.6256 209.474 51.2377 208.184 51.9474C206.944 52.6299 205.499 52.0796 204.297 51.1746L204.296 51.1763C203.196 50.3142 202.725 50.4726 202.688 50.4925C202.654 50.5113 202.269 50.8211 202.413 52.2077L202.41 52.2081C202.509 53.6838 202.186 55.1569 200.968 55.8265C199.676 56.5377 198.162 55.9105 196.931 54.9384L198.304 53.2003C199.398 54.0645 199.867 53.9046 199.901 53.8858C199.937 53.8659 200.323 53.5523 200.184 52.1621L200.186 52.1619C200.084 50.6907 200.404 49.2211 201.621 48.5518C202.862 47.869 204.311 48.4186 205.519 49.3231L205.521 49.3211C206.614 50.1853 207.083 50.0254 207.117 50.0066C207.153 49.9867 207.539 49.6731 207.4 48.2829L207.401 48.2828C207.245 46.7215 207.53 45.1094 208.82 44.3997Z" fill="#F1F5F9"/>
<path fill-rule="evenodd" clip-rule="evenodd" d="M39.2175 59.1256C40.3314 59.7687 40.5399 61.1757 40.3735 62.5068L40.365 62.5057C40.3201 62.9775 40.3553 63.3122 40.4186 63.5284C40.4849 63.7553 40.5636 63.8006 40.5698 63.8042L40.5699 63.8042L40.5701 63.8043C40.5761 63.8079 40.6536 63.8528 40.8808 63.7969C41.1183 63.7385 41.4614 63.5803 41.8971 63.2505L43.0889 64.8247C42.0193 65.6344 40.6966 66.1573 39.5827 65.5142C38.4705 64.8721 38.258 63.4659 38.4196 62.1328L38.4287 62.1339C38.4763 61.6598 38.442 61.3244 38.3793 61.1084C38.3141 60.8837 38.2365 60.8391 38.2304 60.8356L38.2302 60.8355L38.2301 60.8355C38.2239 60.8319 38.1454 60.7864 37.9157 60.8424C37.6764 60.9007 37.3314 61.0587 36.8934 61.3877L36.8929 61.387C35.8195 62.1928 34.4963 62.7109 33.3847 62.0691C32.3154 61.4518 32.0804 60.1305 32.2106 58.8482L32.2088 58.848C32.2747 58.3042 32.2391 57.9264 32.17 57.69C32.1036 57.4631 32.025 57.4178 32.0187 57.4143L32.0186 57.4142L32.0185 57.4141C32.0124 57.4106 31.9349 57.3656 31.7078 57.4215C31.4702 57.4799 31.1271 57.6381 30.6914 57.968L30.69 57.9661C29.6518 58.6936 28.4141 59.1211 27.3649 58.5154C26.251 57.8723 26.0425 56.4653 26.2089 55.1342L28.1682 55.3792C28.1004 55.9214 28.1349 56.2977 28.2031 56.5326C28.2683 56.7573 28.3459 56.8019 28.352 56.8054L28.3522 56.8055L28.3523 56.8055C28.3585 56.8091 28.437 56.8546 28.6667 56.7986C28.906 56.7403 29.251 56.5823 29.689 56.2533L29.69 56.2547C30.7234 55.5268 31.9571 55.0988 33.0058 55.7043C34.0755 56.3218 34.313 57.6462 34.1858 58.9326L34.1879 58.9329C34.1201 59.4752 34.1547 59.8514 34.2228 60.0863C34.288 60.311 34.3657 60.3556 34.3718 60.3591L34.3719 60.3592L34.3721 60.3593C34.3783 60.3628 34.4568 60.4083 34.6865 60.3523C34.9258 60.294 35.2708 60.136 35.7087 59.807L35.7093 59.8077C36.7827 59.002 38.1059 58.4839 39.2175 59.1256Z" fill="#E2E8F0"/>
<g filter="url(#filter0_d_6879_13220)">
<path d="M187.215 41H50.7846C47.5899 41 45 43.5899 45 46.7846V131.215C45 134.41 47.5899 137 50.7846 137H187.215C190.41 137 193 134.41 193 131.215V46.7846C193 43.5899 190.41 41 187.215 41Z" fill="#E2E8F0"/>
</g>
<path d="M190.831 41H46.4462C45.6475 41 45 41.6475 45 42.4462V47.6462H193V43.1692C193 41.9712 192.029 41 190.831 41Z" fill="#94A3B8"/>
<path d="M49.6019 45.4302C50.2029 45.4302 50.6901 44.9343 50.6901 44.3225C50.6901 43.7108 50.2029 43.2148 49.6019 43.2148C49.0009 43.2148 48.5137 43.7108 48.5137 44.3225C48.5137 44.9343 49.0009 45.4302 49.6019 45.4302Z" fill="#E2E8F0"/>
<path d="M54.0335 45.4302C54.6346 45.4302 55.1218 44.9343 55.1218 44.3225C55.1218 43.7108 54.6346 43.2148 54.0335 43.2148C53.4325 43.2148 52.9453 43.7108 52.9453 44.3225C52.9453 44.9343 53.4325 45.4302 54.0335 45.4302Z" fill="#E2E8F0"/>
<path d="M58.4632 45.4302C59.0643 45.4302 59.5515 44.9343 59.5515 44.3225C59.5515 43.7108 59.0643 43.2148 58.4632 43.2148C57.8622 43.2148 57.375 43.7108 57.375 44.3225C57.375 44.9343 57.8622 45.4302 58.4632 45.4302Z" fill="#E2E8F0"/>
<path d="M185.946 51H52.4462C51.6475 51 51 51.6475 51 52.4462V131.523C51 132.322 51.6475 132.969 52.4462 132.969H185.946C186.745 132.969 187.392 132.322 187.392 131.523V52.4462C187.392 51.6475 186.745 51 185.946 51Z" fill="white"/>
<rect x="54" y="57" width="64" height="14" rx="2" fill="#F8FAFC"/>
<rect x="56" y="59" width="10" height="10" rx="3" fill="#E2E8F0"/>
<g filter="url(#filter1_d_6879_13220)">
<path d="M60.8089 62.6184C60.867 62.4304 61.133 62.4304 61.1911 62.6184L61.4286 63.3869C61.4545 63.4707 61.532 63.5279 61.6197 63.5279H62.4087C62.6 63.5279 62.6822 63.7707 62.5302 63.8868L61.8748 64.3874C61.8082 64.4383 61.7804 64.5253 61.8051 64.6054L62.0513 65.4022C62.1088 65.5882 61.8936 65.7384 61.7388 65.6201L61.1214 65.1485C61.0497 65.0937 60.9503 65.0937 60.8786 65.1485L60.2612 65.6201C60.1064 65.7384 59.8912 65.5882 59.9487 65.4022L60.1949 64.6054C60.2196 64.5253 60.1918 64.4383 60.1252 64.3874L59.4698 63.8868C59.3178 63.7707 59.4 63.5279 59.5913 63.5279H60.3803C60.468 63.5279 60.5455 63.4707 60.5714 63.3869L60.8089 62.6184Z" fill="white"/>
</g>
<rect x="68" y="60.0468" width="48" height="3" rx="1.5" fill="#E2E8F0"/>
<path d="M69 65.9532H112" stroke="#E2E8F0" stroke-linecap="round"/>
<path d="M69 67.9532H97" stroke="#E2E8F0" stroke-linecap="round"/>
<rect x="120" y="57" width="64" height="14" rx="2" fill="#F8FAFC"/>
<rect x="122" y="59" width="10" height="10" rx="3" fill="#E2E8F0"/>
<g filter="url(#filter2_d_6879_13220)">
<path d="M127 62L128.732 63V65L127 66L125.268 65V63L127 62Z" fill="white"/>
</g>
<rect x="134" y="60.1869" width="48" height="3" rx="1.5" fill="#E2E8F0"/>
<path d="M135 66.1183H177" stroke="#E2E8F0" stroke-linecap="round"/>
<path d="M135 67.8131H163" stroke="#E2E8F0" stroke-linecap="round"/>
<rect x="54" y="77" width="64" height="14" rx="2" fill="#F8FAFC"/>
<rect x="56" y="79" width="10" height="10" rx="3" fill="#E2E8F0"/>
<g filter="url(#filter3_d_6879_13220)">
<path d="M61 82L62.5637 82.753L62.9499 84.445L61.8678 85.8019H60.1322L59.0501 84.445L59.4363 82.753L61 82Z" fill="white"/>
</g>
<rect x="68" y="80.1869" width="48" height="3" rx="1.5" fill="#E2E8F0"/>
<path d="M69 86.1183H111" stroke="#E2E8F0" stroke-linecap="round"/>
<path d="M69 87.8131H97" stroke="#E2E8F0" stroke-linecap="round"/>
<rect x="54" y="97" width="130" height="12" rx="2" fill="#F8FAFC"/>
<path d="M62.9907 100L65.3756 101.377V104.131L62.9907 105.508L60.6057 104.131V101.377L62.9907 100Z" fill="#E2E8F0"/>
<path d="M68.2866 101.271H74.6417" stroke="#E2E8F0" stroke-width="0.58718" stroke-linecap="round"/>
<path d="M68.2866 102.966H93.7071" stroke="#E2E8F0" stroke-width="0.58718" stroke-linecap="round"/>
<path d="M68.2866 104.66H84.8099" stroke="#E2E8F0" stroke-width="0.58718" stroke-linecap="round"/>
<path d="M104.087 100L106.472 101.377V104.131L104.087 105.508L101.702 104.131V101.377L104.087 100Z" fill="#E2E8F0"/>
<path d="M109.383 101.271H115.738" stroke="#E2E8F0" stroke-width="0.58718" stroke-linecap="round"/>
<path d="M109.383 102.966H134.804" stroke="#E2E8F0" stroke-width="0.58718" stroke-linecap="round"/>
<path d="M109.383 104.66H125.907" stroke="#E2E8F0" stroke-width="0.58718" stroke-linecap="round"/>
<path d="M148.573 100L150.958 101.377V104.131L148.573 105.508L146.188 104.131V101.377L148.573 100Z" fill="#E2E8F0"/>
<path d="M153.869 101.271H160.224" stroke="#E2E8F0" stroke-width="0.58718" stroke-linecap="round"/>
<path d="M153.869 102.966H179.29" stroke="#E2E8F0" stroke-width="0.58718" stroke-linecap="round"/>
<path d="M153.869 104.66H170.393" stroke="#E2E8F0" stroke-width="0.58718" stroke-linecap="round"/>
<rect x="54" y="115" width="130" height="12" rx="2" fill="#F8FAFC"/>
<path d="M62.9907 118L65.3756 119.377V122.131L62.9907 123.508L60.6057 122.131V119.377L62.9907 118Z" fill="#E2E8F0"/>
<path d="M68.2866 119.271H74.6417" stroke="#E2E8F0" stroke-width="0.58718" stroke-linecap="round"/>
<path d="M68.2866 120.966H93.7071" stroke="#E2E8F0" stroke-width="0.58718" stroke-linecap="round"/>
<path d="M68.2866 122.66H84.8099" stroke="#E2E8F0" stroke-width="0.58718" stroke-linecap="round"/>
<path d="M104.087 118L106.472 119.377V122.131L104.087 123.508L101.702 122.131V119.377L104.087 118Z" fill="#E2E8F0"/>
<path d="M109.383 119.271H115.738" stroke="#E2E8F0" stroke-width="0.58718" stroke-linecap="round"/>
<path d="M109.383 120.966H134.804" stroke="#E2E8F0" stroke-width="0.58718" stroke-linecap="round"/>
<path d="M109.383 122.66H125.907" stroke="#E2E8F0" stroke-width="0.58718" stroke-linecap="round"/>
<path d="M148.573 118L150.958 119.377V122.131L148.573 123.508L146.188 122.131V119.377L148.573 118Z" fill="#E2E8F0"/>
<path d="M153.869 119.271H160.224" stroke="#E2E8F0" stroke-width="0.58718" stroke-linecap="round"/>
<path d="M153.869 120.966H179.29" stroke="#E2E8F0" stroke-width="0.58718" stroke-linecap="round"/>
<path d="M153.869 122.66H170.393" stroke="#E2E8F0" stroke-width="0.58718" stroke-linecap="round"/>
<rect x="120.2" y="77.2" width="63.6" height="13.6" rx="1.8" stroke="#CBD5E1" stroke-width="0.4" stroke-dasharray="0.4 0.4"/>
<g filter="url(#filter4_d_6879_13220)">
<rect x="129" y="79" width="64" height="14" rx="2" fill="white"/>
<rect x="131" y="81" width="10" height="10" rx="3" fill="#E2E8F0"/>
<g filter="url(#filter5_d_6879_13220)">
<path d="M136 84L137.902 85.382L137.176 87.618H134.824L134.098 85.382L136 84Z" fill="white"/>
</g>
<rect x="143" y="82.0468" width="48" height="3" rx="1.5" fill="#E2E8F0"/>
<path d="M144 87.9532H187" stroke="#E2E8F0" stroke-linecap="round"/>
<path d="M144 89.9532H172" stroke="#E2E8F0" stroke-linecap="round"/>
<rect x="129.2" y="79.2" width="63.6" height="13.6" rx="1.8" stroke="#E2E8F0" stroke-width="0.4"/>
</g>
<g filter="url(#filter6_d_6879_13220)">
<path d="M167 125.073C167 120.614 170.614 117 175.073 117H190.93C195.387 117 199 120.613 199 125.07V140.927C199 145.386 195.386 149 190.927 149H175.073C170.614 149 167 145.386 167 140.927V125.073Z" fill="white"/>
<mask id="mask0_6879_13220" style="mask-type:alpha" maskUnits="userSpaceOnUse" x="167" y="117" width="32" height="32">
<path d="M167 125.073C167 120.614 170.614 117 175.073 117H190.93C195.387 117 199 120.613 199 125.07V140.927C199 145.386 195.386 149 190.927 149H175.073C170.614 149 167 145.386 167 140.927V125.073Z" fill="white"/>
</mask>
<g mask="url(#mask0_6879_13220)">
</g>
</g>
<path d="M175.5 126.333C175.5 125.873 175.873 125.5 176.333 125.5H182.375V140.5H176.333C175.873 140.5 175.5 140.127 175.5 139.667V126.333Z" fill="#475569"/>
<path d="M183.625 129.875V125.5H189.667C190.127 125.5 190.5 125.873 190.5 126.333V129.875H183.625Z" fill="#475569"/>
<path d="M183.625 131.125V140.5H189.667C190.127 140.5 190.5 140.127 190.5 139.667V131.125H183.625Z" fill="#475569"/>
<path d="M12 12H40C41.6569 12 43 13.3431 43 15V26H15C13.3431 26 12 24.6569 12 23V12Z" fill="#E2E8F0"/>
<path d="M22.9735 22.2915H21.7464L19.9963 18.0957L19.2661 22.2915H18L19.0932 16H20.3161L22.0704 20.2044L22.8007 16H24.0624L22.9735 22.2915Z" fill="white"/>
<path d="M28.2625 19.5649H25.8514L25.5575 21.2501H28.3921L28.2106 22.2915H24.11L25.2032 16H29.2952L29.1094 17.05H26.2878L26.0242 18.5494H28.444L28.2625 19.5649Z" fill="white"/>
<path d="M34.057 20.4636L35.5737 16H36.8657L34.528 22.2915H33.2533L32.9206 18.1L31.2743 22.2915H29.9996L29.628 16H30.8638L30.9891 20.442L32.6829 16H33.7589L34.057 20.4636Z" fill="white"/>
<path d="M43.614 124.871L45.6611 137.796L34.0013 143.737L24.748 134.484L30.689 122.824L43.614 124.871Z" fill="#F1F5F9"/>
<defs>
<filter id="filter0_d_6879_13220" x="24.7538" y="26.5385" width="188.492" height="136.492" filterUnits="userSpaceOnUse" color-interpolation-filters="sRGB">
<feFlood flood-opacity="0" result="BackgroundImageFix"/>
<feColorMatrix in="SourceAlpha" type="matrix" values="0 0 0 0 0 0 0 0 0 0 0 0 0 0 0 0 0 0 127 0" result="hardAlpha"/>
<feMorphology radius="2.89231" operator="dilate" in="SourceAlpha" result="effect1_dropShadow_6879_13220"/>
<feOffset dy="5.78462"/>
<feGaussianBlur stdDeviation="8.67692"/>
<feColorMatrix type="matrix" values="0 0 0 0 0.580392 0 0 0 0 0.639216 0 0 0 0 0.721569 0 0 0 0.25 0"/>
<feBlend mode="normal" in2="BackgroundImageFix" result="effect1_dropShadow_6879_13220"/>
<feBlend mode="normal" in="SourceGraphic" in2="effect1_dropShadow_6879_13220" result="shape"/>
</filter>
<filter id="filter1_d_6879_13220" x="31.3909" y="42.4774" width="59.2183" height="59.1847" filterUnits="userSpaceOnUse" color-interpolation-filters="sRGB">
<feFlood flood-opacity="0" result="BackgroundImageFix"/>
<feColorMatrix in="SourceAlpha" type="matrix" values="0 0 0 0 0 0 0 0 0 0 0 0 0 0 0 0 0 0 127 0" result="hardAlpha"/>
<feMorphology radius="4" operator="dilate" in="SourceAlpha" result="effect1_dropShadow_6879_13220"/>
<feOffset dy="8"/>
<feGaussianBlur stdDeviation="12"/>
<feColorMatrix type="matrix" values="0 0 0 0 0.580392 0 0 0 0 0.639216 0 0 0 0 0.721569 0 0 0 0.25 0"/>
<feBlend mode="normal" in2="BackgroundImageFix" result="effect1_dropShadow_6879_13220"/>
<feBlend mode="normal" in="SourceGraphic" in2="effect1_dropShadow_6879_13220" result="shape"/>
</filter>
<filter id="filter2_d_6879_13220" x="97.2679" y="42" width="59.4641" height="60" filterUnits="userSpaceOnUse" color-interpolation-filters="sRGB">
<feFlood flood-opacity="0" result="BackgroundImageFix"/>
<feColorMatrix in="SourceAlpha" type="matrix" values="0 0 0 0 0 0 0 0 0 0 0 0 0 0 0 0 0 0 127 0" result="hardAlpha"/>
<feMorphology radius="4" operator="dilate" in="SourceAlpha" result="effect1_dropShadow_6879_13220"/>
<feOffset dy="8"/>
<feGaussianBlur stdDeviation="12"/>
<feColorMatrix type="matrix" values="0 0 0 0 0.580392 0 0 0 0 0.639216 0 0 0 0 0.721569 0 0 0 0.25 0"/>
<feBlend mode="normal" in2="BackgroundImageFix" result="effect1_dropShadow_6879_13220"/>
<feBlend mode="normal" in="SourceGraphic" in2="effect1_dropShadow_6879_13220" result="shape"/>
</filter>
<filter id="filter3_d_6879_13220" x="31.0501" y="62" width="59.8997" height="59.8019" filterUnits="userSpaceOnUse" color-interpolation-filters="sRGB">
<feFlood flood-opacity="0" result="BackgroundImageFix"/>
<feColorMatrix in="SourceAlpha" type="matrix" values="0 0 0 0 0 0 0 0 0 0 0 0 0 0 0 0 0 0 127 0" result="hardAlpha"/>
<feMorphology radius="4" operator="dilate" in="SourceAlpha" result="effect1_dropShadow_6879_13220"/>
<feOffset dy="8"/>
<feGaussianBlur stdDeviation="12"/>
<feColorMatrix type="matrix" values="0 0 0 0 0.580392 0 0 0 0 0.639216 0 0 0 0 0.721569 0 0 0 0.25 0"/>
<feBlend mode="normal" in2="BackgroundImageFix" result="effect1_dropShadow_6879_13220"/>
<feBlend mode="normal" in="SourceGraphic" in2="effect1_dropShadow_6879_13220" result="shape"/>
</filter>
<filter id="filter4_d_6879_13220" x="101" y="59" width="120" height="70" filterUnits="userSpaceOnUse" color-interpolation-filters="sRGB">
<feFlood flood-opacity="0" result="BackgroundImageFix"/>
<feColorMatrix in="SourceAlpha" type="matrix" values="0 0 0 0 0 0 0 0 0 0 0 0 0 0 0 0 0 0 127 0" result="hardAlpha"/>
<feMorphology radius="4" operator="dilate" in="SourceAlpha" result="effect1_dropShadow_6879_13220"/>
<feOffset dy="8"/>
<feGaussianBlur stdDeviation="12"/>
<feColorMatrix type="matrix" values="0 0 0 0 0.580392 0 0 0 0 0.639216 0 0 0 0 0.721569 0 0 0 0.25 0"/>
<feBlend mode="normal" in2="BackgroundImageFix" result="effect1_dropShadow_6879_13220"/>
<feBlend mode="normal" in="SourceGraphic" in2="effect1_dropShadow_6879_13220" result="shape"/>
</filter>
<filter id="filter5_d_6879_13220" x="106.098" y="64" width="59.8042" height="59.618" filterUnits="userSpaceOnUse" color-interpolation-filters="sRGB">
<feFlood flood-opacity="0" result="BackgroundImageFix"/>
<feColorMatrix in="SourceAlpha" type="matrix" values="0 0 0 0 0 0 0 0 0 0 0 0 0 0 0 0 0 0 127 0" result="hardAlpha"/>
<feMorphology radius="4" operator="dilate" in="SourceAlpha" result="effect1_dropShadow_6879_13220"/>
<feOffset dy="8"/>
<feGaussianBlur stdDeviation="12"/>
<feColorMatrix type="matrix" values="0 0 0 0 0.580392 0 0 0 0 0.639216 0 0 0 0 0.721569 0 0 0 0.25 0"/>
<feBlend mode="normal" in2="BackgroundImageFix" result="effect1_dropShadow_6879_13220"/>
<feBlend mode="normal" in="SourceGraphic" in2="effect1_dropShadow_6879_13220" result="shape"/>
</filter>
<filter id="filter6_d_6879_13220" x="148.164" y="103.545" width="69.6727" height="69.6727" filterUnits="userSpaceOnUse" color-interpolation-filters="sRGB">
<feFlood flood-opacity="0" result="BackgroundImageFix"/>
<feColorMatrix in="SourceAlpha" type="matrix" values="0 0 0 0 0 0 0 0 0 0 0 0 0 0 0 0 0 0 127 0" result="hardAlpha"/>
<feMorphology radius="2.69091" operator="dilate" in="SourceAlpha" result="effect1_dropShadow_6879_13220"/>
<feOffset dy="5.38182"/>
<feGaussianBlur stdDeviation="8.07273"/>
<feColorMatrix type="matrix" values="0 0 0 0 0.580392 0 0 0 0 0.639216 0 0 0 0 0.721569 0 0 0 0.25 0"/>
<feBlend mode="normal" in2="BackgroundImageFix" result="effect1_dropShadow_6879_13220"/>
<feBlend mode="normal" in="SourceGraphic" in2="effect1_dropShadow_6879_13220" result="shape"/>
</filter>
</defs>
</svg>
