<svg width="150" height="46" viewBox="0 0 150 46" fill="none" xmlns="http://www.w3.org/2000/svg">
<path fill-rule="evenodd" clip-rule="evenodd" d="M39 8C47.2843 8 54 14.7157 54 23C54 31.2843 47.2843 38 39 38C37.6034 38 36.2515 37.8091 34.9687 37.4521L36.2017 34.0182C36.309 33.7207 36.5995 33.5307 36.9129 33.5526L36.9491 33.5561C37.0103 33.5634 37.0703 33.5688 37.1292 33.5739L37.2712 33.588C38.2102 33.6851 39.0337 33.3757 39.5922 32.7119C40.167 32.0281 40.3718 31.0672 40.1266 30.2041L40.1056 30.1332C39.9105 29.5067 39.4645 29.0137 38.8479 28.7421C38.2015 28.4572 37.4661 28.4648 36.8303 28.7633C36.0799 29.1159 35.4964 29.575 35.0963 30.1281C34.9854 30.2814 34.8176 30.3836 34.6309 30.4121C34.4449 30.4401 34.2532 30.3933 34.1021 30.2794C31.2481 28.1433 31.3898 25.4987 31.8823 24.3328L31.9038 24.2833C32.2927 24.5626 32.7056 24.8083 33.1373 25.0178C34.2803 25.5726 35.5552 25.8739 36.8674 25.8739C37.7275 25.8739 38.6035 25.7445 39.4692 25.472C41.6762 24.7779 43.4805 23.2655 44.55 21.2138C45.6195 19.162 45.8263 16.8163 45.1321 14.6091C44.5146 12.6449 43.2145 10.9618 41.4722 9.86972C41.1418 9.66273 40.7069 9.76276 40.4991 10.0932C40.2924 10.4232 40.3926 10.8588 40.7226 11.0658C42.1807 11.9797 43.2686 13.3885 43.7861 15.0328C44.367 16.8805 44.1939 18.8439 43.2985 20.5613C42.4035 22.2787 40.8929 23.5444 39.0456 24.1258C35.7808 25.1509 31.4612 23.6165 30.2283 19.6959C30.1114 19.3243 29.7155 19.1163 29.3433 19.2343C29.1994 19.2796 29.0802 19.3668 28.995 19.4781C28.9438 19.524 28.8985 19.5783 28.8612 19.6404C27.4356 22.0111 27.13 24.9992 28.0232 27.8385C28.0762 28.0071 28.1316 28.1728 28.1895 28.3354L28.2481 28.4972L25.8686 30.2559C24.6779 28.1057 24 25.632 24 23C24 14.7157 30.7157 8 39 8ZM31.8027 33.2442C32.0694 33.4172 32.3465 33.5727 32.6335 33.7105L32.7778 33.7779L31.5728 36.035C31.1207 35.7768 30.6833 35.4958 30.2622 35.1936L31.8027 33.2442ZM29.9853 31.6077C30.2193 31.8924 30.4669 32.157 30.7276 32.4013L30.8401 32.5047L29.3054 34.4468C28.904 34.1065 28.5207 33.7454 28.1572 33.3653L29.9853 31.6077ZM28.7373 29.6443C28.8753 29.9267 29.0221 30.1976 29.1774 30.4568L29.2716 30.611L27.3539 32.4545C27.0519 32.083 26.7674 31.6968 26.5015 31.297L28.7373 29.6443ZM36.6065 10.9234C35.8542 11.1601 35.4362 11.9621 35.6729 12.7144C35.9096 13.4667 36.7113 13.885 37.4637 13.648C38.2163 13.4113 38.6343 12.6096 38.3976 11.8573C38.1609 11.105 37.3592 10.6867 36.6065 10.9234Z" fill="#375FF3"/>
<path fill-rule="evenodd" clip-rule="evenodd" d="M49.0046 37.0328C47.7927 37.0328 46.656 36.4294 45.885 35.3298C45.7119 35.0824 45.7719 34.741 46.0193 34.5676C46.2669 34.3946 46.6078 34.4541 46.7814 34.7017C47.5105 35.7424 48.6289 36.1621 49.773 35.8251C49.9946 35.7599 50.2062 35.6674 50.4027 35.5503C50.6628 35.3958 50.9987 35.4808 51.1528 35.7401C51.3077 35.9996 51.2228 36.3353 50.9635 36.4901C50.6882 36.6542 50.3916 36.7835 50.0819 36.8748C49.7212 36.981 49.3596 37.0328 49.0046 37.0328Z" fill="#375FF3"/>
<path fill-rule="evenodd" clip-rule="evenodd" d="M68.5836 22.0238V23.6605H73.9963V26.4211H68.7929V28.4347H73.9963V31.1652H66.7441V32.9415H83.3156V31.1652H75.9945V28.4347H81.3564V26.4211H75.9945V23.6605H81.4411V22.0238H68.5836Z" fill="#0F172A"/>
<path fill-rule="evenodd" clip-rule="evenodd" d="M66 20.8474L67.1534 22.3222L75.02 16.418L82.8647 22.3618L84.0441 20.8479L75.0205 14.0508L66 20.8474Z" fill="#0F172A"/>
<path fill-rule="evenodd" clip-rule="evenodd" d="M87.9771 18.9275L89.1426 20.3742L89.9214 19.7016V23.4654H92.6353L88.0882 25.5282L88.7563 27.1088L95.3456 24.1191L99.1422 25.9416V31.2251H94.8841L93.5622 32.9599L100.838 32.9589V28.2157L101.263 27.8473L105.638 32.3814L106.925 31.048L102.666 26.6361L104.711 24.8685L103.582 23.4654H104.548V18.2337L98.6515 18.2308L100.55 16.9208V15.2451H95.079L96.0013 14.4482L94.8376 13.0001L87.9771 18.9275ZM91.6269 18.2275L93.2267 16.8458H97.9885L96.3872 18.23L91.6269 18.2275ZM97.8648 19.9176H102.442V21.7608H96.9842L97.8648 19.9176ZM92.0896 19.9176H95.8107L94.9375 21.7608H92.0896V19.9176ZM100.839 24.6743L98.3109 23.4651H103.493L100.838 25.76L100.839 24.6743Z" fill="#0F172A"/>
<path fill-rule="evenodd" clip-rule="evenodd" d="M96.3894 24.9155L88.8032 28.3563L89.4709 29.9376L97.0686 26.4911L96.4002 24.9108L96.3894 24.9155Z" fill="#0F172A"/>
<path fill-rule="evenodd" clip-rule="evenodd" d="M97.7023 27.2527L88.9741 31.2129L89.6416 32.7937L98.3695 28.8332L97.7023 27.2527Z" fill="#0F172A"/>
<path fill-rule="evenodd" clip-rule="evenodd" d="M109.738 21.0822V23.3382H115.407L110.383 32.999L126 33L122.896 27.2754H120.671L122.643 30.9174H113.817L117.665 23.3382H125.761V21.0822H109.738Z" fill="#0F172A"/>
<path fill-rule="evenodd" clip-rule="evenodd" d="M111.901 17.6421H124.107V15.3865H111.901V17.6421Z" fill="#0F172A"/>
</svg>
