<svg width="60" height="20" viewBox="0 0 60 20" fill="none" xmlns="http://www.w3.org/2000/svg">
<g id="text">
<path id="Fill 1" fill-rule="evenodd" clip-rule="evenodd" d="M2.58358 9.0238V10.6605H7.99628V13.4211H2.79295V15.4347H7.99628V18.1652H0.744141V19.9415H17.3156V18.1652H9.99454V15.4347H15.3564V13.4211H9.99454V10.6605H15.4411V9.0238H2.58358Z" fill="#0F172A"/>
<path id="Fill 2" fill-rule="evenodd" clip-rule="evenodd" d="M0 7.84741L1.15341 9.32222L9.02005 3.41804L16.8647 9.36175L18.0441 7.8479L9.02052 1.05078L0 7.84741Z" fill="#0F172A"/>
<path id="Fill 3" fill-rule="evenodd" clip-rule="evenodd" d="M21.9771 5.92753L23.1426 7.37417L23.9214 6.70163V10.4654H26.6353L22.0882 12.5282L22.7563 14.1088L29.3456 11.1191L33.1422 12.9416V18.2251H28.8841L27.5622 19.9599L34.8377 19.9589V15.2157L35.2633 14.8473L39.638 19.3814L40.9252 18.048L36.6659 13.6361L38.7111 11.8685L37.5823 10.4654H38.5478V5.23374L32.6515 5.23077L34.5501 3.92076V2.24508H29.079L30.0013 1.44825L28.8376 0.00012207L21.9771 5.92753ZM25.6269 5.22749L27.2267 3.84583H31.9885L30.3872 5.22996L25.6269 5.22749ZM31.8648 6.9176H36.4418V8.76081H30.9842L31.8648 6.9176ZM26.0896 6.9176H29.8107L28.9375 8.76081H26.0896V6.9176ZM34.839 11.6743L32.3109 10.4651H37.4928L34.8378 12.76L34.839 11.6743Z" fill="#0F172A"/>
<path id="Fill 4" fill-rule="evenodd" clip-rule="evenodd" d="M30.3894 11.9155L22.8032 15.3563L23.4709 16.9376L31.0686 13.4911L30.4002 11.9108L30.3894 11.9155Z" fill="#0F172A"/>
<path id="Fill 5" fill-rule="evenodd" clip-rule="evenodd" d="M31.7023 14.2527L22.9741 18.2129L23.6416 19.7937L32.3695 15.8332L31.7023 14.2527Z" fill="#0F172A"/>
<path id="Fill 6" fill-rule="evenodd" clip-rule="evenodd" d="M43.7383 8.08215V10.3382H49.4071L44.3831 19.999L59.9997 20L56.8958 14.2754H54.6715L56.6435 17.9174H47.8168L51.665 10.3382H59.7613V8.08215H43.7383Z" fill="#0F172A"/>
<path id="Fill 7" fill-rule="evenodd" clip-rule="evenodd" d="M45.9009 4.64205H58.1067V2.38647H45.9009V4.64205Z" fill="#0F172A"/>
</g>
</svg>
