<svg width="10" height="10" viewBox="0 0 10 10" fill="none" xmlns="http://www.w3.org/2000/svg">
<path fill-rule="evenodd" clip-rule="evenodd" d="M4.67217 4.02527L8.2428 0.454641L9.93986 0.454642L9.93986 2.1517L9.1495 2.94205L9.11466 2.93555C8.90366 2.89619 8.687 2.89851 8.47689 2.94237C7.5876 3.12802 7.01718 3.99943 7.20283 4.88873L6.36923 5.72232C6.7911 6.79888 6.56709 8.07005 5.69721 8.93992C4.52564 10.1115 2.62615 10.1115 1.45457 8.93992C0.282999 7.76835 0.282999 5.86886 1.45457 4.69728C2.32445 3.82741 3.59562 3.6034 4.67217 4.02527ZM4.33959 6.05491C3.91781 5.63313 3.23397 5.63313 2.8122 6.05491C2.39042 6.47668 2.39042 7.16052 2.8122 7.5823C3.23397 8.00408 3.91781 8.00408 4.33959 7.5823C4.76137 7.16052 4.76137 6.47668 4.33959 6.05491Z" fill="#475569"/>
</svg>
