<?xml version="1.0" standalone="no"?>
<!DOCTYPE svg PUBLIC "-//W3C//DTD SVG 20010904//EN"
 "http://www.w3.org/TR/2001/REC-SVG-20010904/DTD/svg10.dtd">
<svg version="1.0" xmlns="http://www.w3.org/2000/svg"
 width="1000.000000pt" height="1000.000000pt" viewBox="0 0 1000.000000 1000.000000"
 preserveAspectRatio="xMidYMid meet">
<metadata>
Created by potrace 1.11, written by Peter Selinger 2001-2013
</metadata>
<g transform="translate(0.000000,1000.000000) scale(0.100000,-0.100000)"
fill="#000000" stroke="none">
<path d="M4897 9944 c-1 -1 -67 -5 -147 -8 -162 -8 -209 -11 -325 -26 -149
-18 -160 -20 -185 -25 -14 -3 -41 -7 -60 -10 -19 -3 -57 -9 -85 -15 -27 -5
-61 -12 -75 -14 -114 -20 -377 -87 -440 -110 -19 -8 -37 -14 -40 -13 -16 2
-347 -118 -425 -153 -24 -11 -47 -20 -51 -20 -23 0 -383 -180 -544 -273 -110
-63 -380 -239 -404 -263 -8 -8 -17 -14 -21 -14 -3 0 -11 -5 -18 -10 -7 -6 -41
-33 -77 -60 -240 -186 -537 -461 -690 -641 -30 -35 -61 -71 -69 -79 -20 -20
-230 -287 -257 -326 -192 -273 -392 -616 -478 -822 -14 -34 -38 -87 -52 -117
-77 -170 -227 -615 -258 -769 -3 -11 -9 -41 -14 -66 -6 -25 -17 -81 -26 -125
-9 -44 -18 -91 -21 -105 -7 -35 -23 -136 -31 -195 -3 -27 -8 -57 -9 -66 -2 -9
-6 -52 -10 -95 -4 -43 -9 -86 -10 -95 -7 -37 -18 -324 -17 -449 1 -205 19
-484 38 -600 2 -14 6 -50 9 -80 4 -30 8 -62 10 -70 3 -8 7 -31 10 -50 19 -120
72 -363 107 -484 22 -77 41 -145 42 -151 14 -67 144 -413 211 -560 137 -302
276 -546 459 -810 83 -118 266 -356 305 -396 9 -9 48 -52 86 -95 596 -669
1420 -1183 2295 -1433 153 -44 311 -83 390 -97 14 -2 36 -7 50 -9 14 -3 39 -8
55 -10 17 -3 53 -10 80 -15 28 -5 70 -11 95 -14 25 -3 63 -8 85 -11 72 -9 200
-23 215 -23 8 0 78 -4 155 -8 209 -10 516 -6 670 11 17 1 63 6 104 10 41 4 83
9 94 11 11 2 45 6 76 9 31 4 63 8 71 10 8 3 31 7 50 10 163 26 338 65 515 115
127 35 321 97 360 115 17 7 41 16 54 20 13 4 40 14 60 23 20 9 41 16 46 18 35
6 395 177 510 242 489 272 918 608 1270 992 145 159 365 429 365 449 0 5 3 11
8 13 4 1 28 32 53 68 39 55 72 107 196 306 105 167 277 522 360 744 99 261
194 593 237 830 3 19 8 45 10 56 2 12 7 39 10 60 4 22 8 46 11 54 2 8 6 40 10
70 3 30 7 66 9 80 39 235 50 780 21 1045 -1 17 -6 62 -10 100 -3 39 -8 81 -10
95 -2 14 -9 63 -15 110 -11 78 -73 403 -86 442 -2 9 -7 25 -9 35 -9 46 -78
279 -113 383 -75 219 -133 359 -243 585 -535 1098 -1488 1979 -2617 2421 -297
116 -642 217 -885 258 -15 3 -35 7 -45 10 -9 2 -37 7 -62 10 -46 6 -86 13
-130 21 -14 3 -50 7 -80 10 -30 3 -72 8 -93 11 -86 13 -618 37 -630 28z"/>
</g>
</svg>
