<svg width="20" height="20" viewBox="0 0 20 20" fill="none" xmlns="http://www.w3.org/2000/svg">
<path d="M16.1918 10.8166C16.2251 10.55 16.2501 10.2833 16.2501 9.99996C16.2501 9.71663 16.2251 9.44996 16.1918 9.18329L17.9501 7.80829C18.1084 7.68329 18.1501 7.45829 18.0501 7.27496L16.3834 4.39163C16.3084 4.25829 16.1668 4.18329 16.0168 4.18329C15.9668 4.18329 15.9168 4.19163 15.8751 4.20829L13.8001 5.04163C13.3668 4.70829 12.9001 4.43329 12.3918 4.22496L12.0751 2.01663C12.0501 1.81663 11.8751 1.66663 11.6668 1.66663H8.33344C8.12511 1.66663 7.95011 1.81663 7.92511 2.01663L7.60844 4.22496C7.10011 4.43329 6.63344 4.71663 6.20011 5.04163L4.12511 4.20829C4.07511 4.19163 4.02511 4.18329 3.97511 4.18329C3.83344 4.18329 3.69178 4.25829 3.61678 4.39163L1.95011 7.27496C1.84178 7.45829 1.89178 7.68329 2.05011 7.80829L3.80844 9.18329C3.77511 9.44996 3.75011 9.72496 3.75011 9.99996C3.75011 10.275 3.77511 10.55 3.80844 10.8166L2.05011 12.1916C1.89178 12.3166 1.85011 12.5416 1.95011 12.725L3.61678 15.6083C3.69178 15.7416 3.83344 15.8166 3.98344 15.8166C4.03344 15.8166 4.08344 15.8083 4.12511 15.7916L6.20011 14.9583C6.63344 15.2916 7.10011 15.5666 7.60844 15.775L7.92511 17.9833C7.95011 18.1833 8.12511 18.3333 8.33344 18.3333H11.6668C11.8751 18.3333 12.0501 18.1833 12.0751 17.9833L12.3918 15.775C12.9001 15.5666 13.3668 15.2833 13.8001 14.9583L15.8751 15.7916C15.9251 15.8083 15.9751 15.8166 16.0251 15.8166C16.1668 15.8166 16.3084 15.7416 16.3834 15.6083L18.0501 12.725C18.1501 12.5416 18.1084 12.3166 17.9501 12.1916L16.1918 10.8166ZM14.5418 9.39163C14.5751 9.64996 14.5834 9.82496 14.5834 9.99996C14.5834 10.175 14.5668 10.3583 14.5418 10.6083L14.4251 11.55L15.1668 12.1333L16.0668 12.8333L15.4834 13.8416L14.4251 13.4166L13.5584 13.0666L12.8084 13.6333C12.4501 13.9 12.1084 14.1 11.7668 14.2416L10.8834 14.6L10.7501 15.5416L10.5834 16.6666H9.41678L9.25844 15.5416L9.12511 14.6L8.24178 14.2416C7.88344 14.0916 7.55011 13.9 7.21678 13.65L6.45844 13.0666L5.57511 13.425L4.51678 13.85L3.93344 12.8416L4.83344 12.1416L5.57511 11.5583L5.45844 10.6166C5.43344 10.3583 5.41678 10.1666 5.41678 9.99996C5.41678 9.83329 5.43344 9.64163 5.45844 9.39163L5.57511 8.44996L4.83344 7.86663L3.93344 7.16663L4.51678 6.15829L5.57511 6.58329L6.44178 6.93329L7.19178 6.36663C7.55011 6.09996 7.89178 5.89996 8.23344 5.75829L9.11678 5.39996L9.25011 4.45829L9.41678 3.33329H10.5751L10.7334 4.45829L10.8668 5.39996L11.7501 5.75829C12.1084 5.90829 12.4418 6.09996 12.7751 6.34996L13.5334 6.93329L14.4168 6.57496L15.4751 6.14996L16.0584 7.15829L15.1668 7.86663L14.4251 8.44996L14.5418 9.39163ZM10.0001 6.66663C8.15844 6.66663 6.66678 8.15829 6.66678 9.99996C6.66678 11.8416 8.15844 13.3333 10.0001 13.3333C11.8418 13.3333 13.3334 11.8416 13.3334 9.99996C13.3334 8.15829 11.8418 6.66663 10.0001 6.66663ZM10.0001 11.6666C9.08344 11.6666 8.33344 10.9166 8.33344 9.99996C8.33344 9.08329 9.08344 8.33329 10.0001 8.33329C10.9168 8.33329 11.6668 9.08329 11.6668 9.99996C11.6668 10.9166 10.9168 11.6666 10.0001 11.6666Z" fill="#475569"/>
</svg>
