<svg width="144" height="145" fill="none" xmlns="http://www.w3.org/2000/svg"><g opacity=".65"><g clip-path="url(#clip0)"><path d="M51.926 61.212l-3.683-5.918-.23 6.967-6.096 1.633 5.928 2.218-.255 6.619 3.957-5.108 5.988 2.443-3.53-5.605 4.017-4.882-6.096 1.633z" fill="url(#paint0_linear)"/></g><g clip-path="url(#clip1)"><path d="M76.084 54.739L72.4 48.82l-.23 6.967-6.097 1.633 5.928 2.218-.254 6.619 3.956-5.108 5.989 2.443-3.53-5.605 4.017-4.882-6.096 1.633z" fill="url(#paint1_linear)"/></g><g clip-path="url(#clip2)"><path d="M100.241 48.266l-3.683-5.918-.23 6.967-6.096 1.633 5.928 2.218-.255 6.619 3.957-5.108 5.988 2.443-3.53-5.605 4.017-4.882-6.096 1.633z" fill="url(#paint2_linear)"/></g><path d="M45.308 95.064c-.416 2.287-1.399 4.469-2.954 6.523l1.122 1.828c2.104-2.622 3.397-5.308 3.845-8.002l-2.013-.35zm2.137 4.831c-.448 2.694-1.54 5.255-3.28 7.663l1.115 1.807a29.798 29.798 0 001.76-2.6l2.363 8.818 1.986-.532-2.97-11.089c.472-1.203.819-2.442 1.017-3.711l-1.99-.356zm6.056-6.91l.59 2.205-4.692 1.257.509 1.9 4.693-1.258.602 2.248-5.479 1.468.515 1.921 13.096-3.51-.514-1.92-5.632 1.509-.602-2.248 4.736-1.27-.508-1.899-4.737 1.27-.59-2.205-1.987.532zm-2.612 11.906l.52 1.943 8.295-2.223 1.246 4.649c.187.699-.063 1.163-.74 1.345a33.89 33.89 0 01-2.872.629l1.012 1.858 3.1-.831c1.55-.415 2.119-1.433 1.686-3.048l-1.38-5.152 2.38-.637-.521-1.943-2.38.638-.386-1.441-2.051.55.386 1.441-8.295 2.222zm3.505 1.728l-1.34 1.459c1.478.89 2.687 1.736 3.649 2.531l1.31-1.568c-.894-.719-2.091-1.521-3.62-2.422zm13.087-8.957c.029 2.378-.349 4.374-1.121 6.031l1.912.938c.804-1.712 1.21-3.95 1.235-6.74l-2.026-.23zm2.442-8.96l1.087 4.06-5.282 1.415.538 2.008 5.195-1.391c.568 2.818.736 5.277.502 7.375-.355 2.341-1.59 4.543-3.71 6.585l1.621 1.507c2.247-2.005 3.632-4.342 4.13-7.025.413-2.474.264-5.475-.448-9.004l4.868-1.304c1.218 4.984 1.872 8.295 1.932 9.916.015 1.54-.507 2.475-1.576 2.762-.655.175-1.36.341-2.113.496l1.105 1.856 2.554-.684c1.09-.386 1.769-1.083 2.025-2.134.245-1.095.171-2.853-.242-5.269-.24-1.246-.539-2.71-.884-4.348a59.39 59.39 0 014.077 5.177l1.654-1.426a76.304 76.304 0 00-4.668-5.72l-1.254 1.084c-.307-1.321-.665-2.746-1.03-4.285L73.105 92.2l-1.088-4.06-2.096.561zm18.41-.792l1.204 4.497 6.46-1.732.293 1.092-6.985 1.871.433 1.615 6.985-1.871.333 1.244-8.97 2.404.45 1.68 8.97-2.403.322 1.2-7.006 1.878.444 1.659 7.007-1.878.17.633c.122.458-.097.775-.621.915-.786.211-1.611.361-2.464.496l.963 1.848 2.685-.72c1.44-.386 1.979-1.255 1.617-2.608l-.298-1.114 6.766-1.813-.766-2.859 2.204-.59-.45-1.681-2.205.59-.766-2.86-6.766 1.814-.293-1.091 6.461-1.732-1.205-4.496-6.46 1.731-.293-1.091 8.382-2.246-.474-1.768-8.381 2.246-.305-1.135-2.051.55.304 1.135-8.382 2.246.474 1.767 8.382-2.245.292 1.091-6.46 1.731zm13.71-.516l-4.409 1.182-.38-1.419 4.409-1.181.38 1.418zm-6.46 1.732l-4.41 1.181-.38-1.419 4.41-1.181.38 1.419zm3.192 3.706l4.78-1.28.333 1.243-4.78 1.281-.333-1.244zm5.564 1.644l.321 1.2-4.78 1.281-.322-1.2 4.781-1.28zm5.963-12.406l2.638 9.844c-.809.474-1.64.954-2.498 1.418l1.161 1.888c2.307-1.343 4.313-2.676 6.023-3.977l-.556-2.073a53.996 53.996 0 01-2.205 1.55l-2.468-9.211 2.358-.632-.538-2.008-6.876 1.842.538 2.008 2.423-.649zm4.291-4.589l.538 2.008 5.108-1.368c.082.656.115 1.303.104 1.96l-3.885 1.041 2.831 10.565 1.986-.532-2.316-8.644 6.526-1.749 2.316 8.644 2.008-.538-2.83-10.564-4.584 1.228a36.44 36.44 0 00-.126-1.955l5.086-1.363-.538-2.008-12.224 3.275zm11.929 12.127l-1.018 1.7c2.207.906 3.971 1.813 5.297 2.745l1.087-1.882c-1.507-.907-3.281-1.765-5.366-2.563zm-5.11-6.585l1.024 3.82c.392 1.813.282 3.41-.287 4.78-.636 1.293-2.148 2.634-4.493 4.01l1.609 1.464c2.42-1.444 4.028-2.95 4.834-4.57.793-1.757.933-3.853.41-6.24l-1.023-3.82-2.074.556z" fill="url(#paint3_linear)"/><circle cx="81.031" cy="81.031" r="68.777" transform="rotate(-15 81.031 81.031)" stroke="url(#paint4_linear)" stroke-width="2.501" stroke-dasharray="7.5 7.5"/><circle cx="81.032" cy="81.031" r="78.156" transform="rotate(-15 81.032 81.031)" stroke="url(#paint5_linear)" stroke-width="3.751"/></g><defs><linearGradient id="paint0_linear" x1="48.243" y1="55.294" x2="52.559" y2="71.399" gradientUnits="userSpaceOnUse"><stop stop-color="#FDBA74"/><stop offset="1" stop-color="#FB923C"/></linearGradient><linearGradient id="paint1_linear" x1="72.401" y1="48.821" x2="76.716" y2="64.926" gradientUnits="userSpaceOnUse"><stop stop-color="#FDBA74"/><stop offset="1" stop-color="#FB923C"/></linearGradient><linearGradient id="paint2_linear" x1="96.558" y1="42.348" x2="100.874" y2="58.453" gradientUnits="userSpaceOnUse"><stop stop-color="#FDBA74"/><stop offset="1" stop-color="#FB923C"/></linearGradient><linearGradient id="paint3_linear" x1="80.107" y1="70.922" x2="93.053" y2="119.238" gradientUnits="userSpaceOnUse"><stop stop-color="#FDBA74"/><stop offset="1" stop-color="#FB923C"/></linearGradient><linearGradient id="paint4_linear" x1="81.031" y1="11.004" x2="81.031" y2="151.059" gradientUnits="userSpaceOnUse"><stop stop-color="#FDBA74"/><stop offset="1" stop-color="#FB923C"/></linearGradient><linearGradient id="paint5_linear" x1="81.032" y1="1" x2="81.032" y2="161.063" gradientUnits="userSpaceOnUse"><stop stop-color="#FDBA74"/><stop offset="1" stop-color="#FB923C"/></linearGradient><clipPath id="clip0"><path fill="#fff" transform="rotate(-15 232.792 -116.748)" d="M0 0h20.008v20.008H0z"/></clipPath><clipPath id="clip1"><path fill="#fff" transform="rotate(-15 220.287 -211.732)" d="M0 0h20.008v20.008H0z"/></clipPath><clipPath id="clip2"><path fill="#fff" transform="rotate(-15 207.782 -306.716)" d="M0 0h20.008v20.008H0z"/></clipPath></defs></svg>
