<svg width="575" height="184" fill="none" xmlns="http://www.w3.org/2000/svg"><mask id="a" maskUnits="userSpaceOnUse" x="0" y="0" width="575" height="184"><path d="M0 12C0 5.373 5.373 0 12 0h551c6.627 0 12 5.373 12 12v160c0 6.627-5.373 12-12 12H12c-6.627 0-12-5.373-12-12V12z" fill="#fff"/></mask><g opacity=".65" mask="url(#a)"><path d="M481.503 118.716l-2.147-6.631-1.904 6.705-6.31.115 5.218 3.582-1.843 6.362 5.072-4.003 5.222 3.815-2.074-6.29 5.076-3.77-6.31.115z" fill="url(#paint0_linear)"/><path d="M506.509 118.26l-2.148-6.631-1.903 6.705-6.31.115 5.218 3.582-1.843 6.362 5.071-4.003 5.223 3.815-2.074-6.291 5.075-3.769-6.309.115z" fill="url(#paint1_linear)"/><path d="M531.514 117.804l-2.147-6.632-1.904 6.705-6.309.116 5.218 3.581-1.844 6.363 5.072-4.003 5.222 3.815-2.074-6.291 5.076-3.77-6.31.116z" fill="url(#paint2_linear)"/><path d="M466.917 149.973c-.956 2.119-2.436 3.999-4.44 5.618l.647 2.045c2.675-2.038 4.577-4.333 5.661-6.839l-1.868-.824zm.908 5.204c-1.084 2.506-2.761 4.729-5.031 6.646l.647 2.022a29.714 29.714 0 002.335-2.099l.166 9.128 2.056-.038-.209-11.477a17.529 17.529 0 001.882-3.357l-1.846-.825zm7.544-5.246l.041 2.282-4.857.089.036 1.966 4.857-.089.043 2.327-5.671.104.036 1.988 13.556-.247-.036-1.989-5.829.107-.043-2.327 4.903-.09-.036-1.966-4.903.09-.041-2.282-2.056.037zm-5.406 10.925l.037 2.011 8.585-.157.088 4.813c.013.722-.341 1.113-1.042 1.126a33.982 33.982 0 01-2.939-.082l.534 2.047 3.209-.059c1.604-.029 2.402-.88 2.371-2.552l-.097-5.332 2.463-.045-.037-2.01-2.463.045-.027-1.492-2.124.039.028 1.491-8.586.157zm2.984 2.522l-1.652 1.092c1.22 1.221 2.189 2.334 2.931 3.337l1.65-1.205c-.694-.914-1.663-1.981-2.929-3.224zm14.861-5.537c-.545 2.315-1.393 4.161-2.542 5.583l1.629 1.372c1.194-1.468 2.128-3.542 2.824-6.244l-1.911-.711zm4.531-8.106l.076 4.202-5.467.1.038 2.079 5.377-.098c-.129 2.872-.559 5.298-1.291 7.278-.91 2.186-2.639 4.026-5.189 5.496l1.209 1.854c2.664-1.405 4.573-3.338 5.703-5.822.997-2.301 1.576-5.25 1.737-8.846l5.038-.092c-.019 5.131-.184 8.501-.517 10.089-.356 1.499-1.088 2.28-2.195 2.301-.678.012-1.401.003-2.17-.029l.625 2.068 2.644-.048c1.15-.111 1.977-.624 2.479-1.582.502-1.004.855-2.728 1.036-5.172.067-1.267.131-2.76.19-4.433a59.427 59.427 0 012.709 6.007l1.948-.984a76.252 76.252 0 00-3.15-6.678l-1.478.75c.021-1.356.016-2.825.033-4.408l-7.14.131-.077-4.203-2.168.04zm18.057 3.671l.085 4.654 6.687-.122.021 1.13-7.23.132.031 1.672 7.229-.132.024 1.287-9.286.17.032 1.74 9.286-.17.022 1.243-7.252.132.031 1.717 7.253-.132.012.655c.008.475-.281.728-.823.738a23.992 23.992 0 01-2.511-.112l.489 2.025 2.779-.051c1.491-.027 2.224-.741 2.199-2.142l-.022-1.152 7.004-.128-.054-2.959 2.282-.042-.031-1.74-2.282.042-.054-2.96-7.004.128-.021-1.13 6.688-.122-.085-4.654-6.688.122-.02-1.13 8.675-.158-.033-1.83-8.676.158-.021-1.175-2.124.039.021 1.175-8.675.158.033 1.83 8.676-.158.02 1.13-6.687.122zm13.431 2.806l-4.564.083-.027-1.468 4.564-.084.027 1.469zm-6.688.122l-4.564.083-.027-1.468 4.564-.084.027 1.469zm2.204 4.367l4.948-.09.024 1.287-4.948.091-.024-1.288zm5.003 2.937l.023 1.243-4.948.09-.023-1.243 4.948-.09zm8.78-10.602l.185 10.19c-.899.265-1.821.53-2.765.774l.671 2.112c2.563-.748 4.831-1.557 6.804-2.407l-.039-2.146c-.808.331-1.638.662-2.514.972l-.173-9.534 2.44-.045-.038-2.078-7.117.129.038 2.079 2.508-.046zm5.271-3.418l.038 2.078 5.287-.096a13.934 13.934 0 01-.372 1.928l-4.021.073.199 10.935 2.056-.037-.163-8.947 6.755-.123.163 8.947 2.079-.038-.199-10.936-4.745.087c.124-.612.248-1.248.349-1.927l5.264-.096-.038-2.079-12.652.231zm8.652 14.646l-1.398 1.404c1.924 1.411 3.417 2.717 4.479 3.941l1.508-1.564c-1.243-1.243-2.757-2.504-4.589-3.781zm-3.371-7.623l.072 3.954c-.056 1.854-.548 3.377-1.431 4.568-.929 1.102-2.72 2.039-5.327 2.81l1.208 1.808c2.697-.817 4.621-1.892 5.794-3.269 1.193-1.514 1.834-3.514 1.903-5.957l-.072-3.953-2.147.039z" fill="url(#paint3_linear)"/><circle cx="504.969" cy="144.969" r="68.777" transform="rotate(-1.045 504.969 144.969)" stroke="url(#paint4_linear)" stroke-width="2.501" stroke-dasharray="7.5 7.5"/><circle cx="504.97" cy="144.969" r="78.156" transform="rotate(-1.045 504.97 144.969)" stroke="url(#paint5_linear)" stroke-width="3.751"/></g><defs><linearGradient id="paint0_linear" x1="479.356" y1="112.085" x2="479.66" y2="128.755" gradientUnits="userSpaceOnUse"><stop stop-color="#FDBA74"/><stop offset="1" stop-color="#FB923C"/></linearGradient><linearGradient id="paint1_linear" x1="504.361" y1="111.629" x2="504.666" y2="128.299" gradientUnits="userSpaceOnUse"><stop stop-color="#FDBA74"/><stop offset="1" stop-color="#FB923C"/></linearGradient><linearGradient id="paint2_linear" x1="529.367" y1="111.172" x2="529.671" y2="127.843" gradientUnits="userSpaceOnUse"><stop stop-color="#FDBA74"/><stop offset="1" stop-color="#FB923C"/></linearGradient><linearGradient id="paint3_linear" x1="506.51" y1="134.936" x2="507.423" y2="184.947" gradientUnits="userSpaceOnUse"><stop stop-color="#FDBA74"/><stop offset="1" stop-color="#FB923C"/></linearGradient><linearGradient id="paint4_linear" x1="504.969" y1="74.942" x2="504.969" y2="214.997" gradientUnits="userSpaceOnUse"><stop stop-color="#FDBA74"/><stop offset="1" stop-color="#FB923C"/></linearGradient><linearGradient id="paint5_linear" x1="504.97" y1="64.938" x2="504.97" y2="225.001" gradientUnits="userSpaceOnUse"><stop stop-color="#FDBA74"/><stop offset="1" stop-color="#FB923C"/></linearGradient></defs></svg>
