<svg width="24" height="24" viewBox="0 0 24 24" fill="none" xmlns="http://www.w3.org/2000/svg">
<path fill-rule="evenodd" clip-rule="evenodd" d="M12 13.7205C12.217 13.5689 12.458 13.4464 12.7183 13.3596L15.0028 12.5981H17.8017L20.0862 13.3596C21.2291 13.7406 22 14.8101 22 16.0148V19.0748C20.3238 19.4074 18.4203 19.5952 16.4023 19.5952C14.85 19.5952 13.3654 19.4841 12 19.2814C12.4097 19.2206 12.8086 19.1516 13.1954 19.0748V16.0148C13.1954 15.0845 12.7357 14.2348 12 13.7205H12Z" fill="#94A3B8"/>
<path fill-rule="evenodd" clip-rule="evenodd" d="M16.4023 4.40479C17.932 4.40479 19.172 5.64483 19.172 7.1745C19.172 7.27613 19.1664 7.37768 19.1552 7.4787L18.9765 9.09636C18.8315 10.4086 17.7226 11.4018 16.4023 11.4018C15.082 11.4018 13.9731 10.4086 13.8281 9.09636L13.6493 7.4787C13.4813 5.95828 14.5777 4.58954 16.0981 4.42154C16.1991 4.41038 16.3007 4.40479 16.4023 4.40479Z" fill="#94A3B8"/>
<path fill-rule="evenodd" clip-rule="evenodd" d="M2 19.0748V16.0148C2 14.8101 2.77089 13.7406 3.91378 13.3596L6.19829 12.5981H8.99715L11.2817 13.3596C12.4246 13.7406 13.1954 14.8101 13.1954 16.0148V19.0748C11.5193 19.4074 9.61578 19.5952 7.59772 19.5952C5.57967 19.5952 3.67618 19.4074 2 19.0748H2Z" fill="#475569"/>
<path fill-rule="evenodd" clip-rule="evenodd" d="M7.59784 4.40479C9.12751 4.40479 10.3676 5.64483 10.3676 7.1745C10.3676 7.27613 10.362 7.37768 10.3508 7.4787L10.1721 9.09636C10.027 10.4086 8.91811 11.4018 7.59784 11.4018C6.27757 11.4018 5.16863 10.4086 5.02363 9.09636L4.84488 7.4787C4.67688 5.95828 5.77322 4.58954 7.29364 4.42154C7.39466 4.41038 7.49621 4.40479 7.59784 4.40479Z" fill="#475569"/>
</svg>
