<svg width="19" height="18" viewBox="0 0 19 18" fill="none" xmlns="http://www.w3.org/2000/svg">
<path d="M17.3333 3.31663L7.825 12.8333L4.29166 9.29996L5.46666 8.12496L7.825 10.4833L16.1583 2.14996L17.3333 3.31663ZM9 15.6666C5.325 15.6666 2.33333 12.675 2.33333 8.99996C2.33333 5.32496 5.325 2.33329 9 2.33329C10.3083 2.33329 11.5333 2.71663 12.5667 3.37496L13.775 2.16663C12.4167 1.22496 10.775 0.666626 9 0.666626C4.4 0.666626 0.666664 4.39996 0.666664 8.99996C0.666664 13.6 4.4 17.3333 9 17.3333C10.4417 17.3333 11.8 16.9666 12.9833 16.3166L11.7333 15.0666C10.9 15.45 9.975 15.6666 9 15.6666ZM14.8333 11.5H12.3333V13.1666H14.8333V15.6666H16.5V13.1666H19V11.5H16.5V8.99996H14.8333V11.5Z" fill="#475569"/>
</svg>
