<svg width="20" height="20" viewBox="0 0 20 20" fill="none" xmlns="http://www.w3.org/2000/svg">
<path d="M2.5 2.5C2.5 1.94772 2.94772 1.5 3.5 1.5H11.5L17.5 7.5V17.5C17.5 18.0523 17.0523 18.5 16.5 18.5H3.5C2.94772 18.5 2.5 18.0523 2.5 17.5V2.5Z" fill="#94A3B8"/>
<path d="M11.5 1.5L17.5 7.5H12.5C11.9477 7.5 11.5 7.05228 11.5 6.5V1.5Z" fill="#475569"/>
<path d="M1 11C1 10.4477 1.44772 10 2 10H6.08579C6.351 10 6.60536 10.1054 6.79289 10.2929L7.70711 11.2071C7.89464 11.3946 8.149 11.5 8.41421 11.5H18C18.5523 11.5 19 11.9477 19 12.5V18C19 18.5523 18.5523 19 18 19H2C1.44772 19 1 18.5523 1 18V11Z" fill="#475569"/>
<path d="M5 17.67H6.092L6.65 15.438C6.764 14.994 6.884 14.472 6.992 14.004H7.016C7.136 14.46 7.25 14.994 7.37 15.438L7.928 17.67H9.056L7.67 13.2H6.386L5 17.67ZM5.942 16.644H8.102V15.816H5.942V16.644Z" fill="white"/>
<path d="M9.52494 17.67H10.5989V16.188H11.1209C12.0689 16.188 12.8849 15.72 12.8849 14.658C12.8849 13.554 12.0749 13.2 11.0969 13.2H9.52494V17.67ZM10.5989 15.342V14.052H11.0369C11.5529 14.052 11.8409 14.208 11.8409 14.658C11.8409 15.096 11.5889 15.342 11.0669 15.342H10.5989Z" fill="white"/>
<path d="M13.6441 17.67H14.7181V13.2H13.6441V17.67Z" fill="white"/>
</svg>
