<svg width="20" height="20" viewBox="0 0 20 20" fill="none" xmlns="http://www.w3.org/2000/svg">
<path fill-rule="evenodd" clip-rule="evenodd" d="M9.99984 18.3334C7.68073 18.3334 5.55732 17.8479 4.1665 16.9279V11.1428C5.55732 12.0628 7.68073 12.5483 9.99984 12.5483C12.3189 12.5483 14.4424 12.0628 15.8332 11.1428V16.9279C14.4424 17.8479 12.3189 18.3334 9.99984 18.3334Z" fill="#8CADFF"/>
<path fill-rule="evenodd" clip-rule="evenodd" d="M4.16654 3.57971C4.17695 4.62984 6.78462 5.48008 9.99984 5.48008C13.2151 5.48008 15.8227 4.62984 15.8331 3.57971L15.8332 9.64309C14.4424 10.5631 12.3189 11.0486 9.99984 11.0486C7.68073 11.0486 5.55732 10.5631 4.1665 9.64309V3.57971H4.16654Z" fill="#8CADFF"/>
<ellipse cx="9.99984" cy="3.57331" rx="5.83333" ry="1.90668" fill="#375FF3"/>
</svg>
