<svg width="32" height="32" viewBox="0 0 32 32" fill="none" xmlns="http://www.w3.org/2000/svg">
<path opacity="0.65" fill-rule="evenodd" clip-rule="evenodd" d="M15.9998 29.3334C12.2893 29.3334 8.89181 28.5566 6.6665 27.0846V17.8285C8.89181 19.3005 12.2893 20.0773 15.9998 20.0773C19.7104 20.0773 23.1079 19.3005 25.3332 17.8285V27.0846C23.1079 28.5566 19.7104 29.3334 15.9998 29.3334Z" fill="white"/>
<path opacity="0.65" fill-rule="evenodd" clip-rule="evenodd" d="M6.66655 5.72754C6.68322 7.40774 10.8555 8.76813 15.9998 8.76813C21.1442 8.76813 25.3165 7.40774 25.3331 5.72754L25.3332 15.429C23.1079 16.9009 19.7104 17.6778 15.9998 17.6778C12.2893 17.6778 8.89181 16.9009 6.6665 15.429V5.72754H6.66655Z" fill="white"/>
<ellipse cx="15.9998" cy="5.71732" rx="9.33333" ry="3.05069" fill="white"/>
</svg>
