<svg width="32" height="32" viewBox="0 0 32 32" fill="none" xmlns="http://www.w3.org/2000/svg">
<path opacity="0.65" fill-rule="evenodd" clip-rule="evenodd" d="M26.6667 8.00016H16L13.3333 5.3335H5.33333C3.86666 5.3335 2.68 6.5335 2.68 8.00016L2.66666 24.0002C2.66666 25.4668 3.86666 26.6668 5.33333 26.6668H26.6667C28.1333 26.6668 29.3333 25.4668 29.3333 24.0002V10.6668C29.3333 9.20016 28.1333 8.00016 26.6667 8.00016Z" fill="white"/>
<path fill-rule="evenodd" clip-rule="evenodd" d="M20 12C21.4667 12 22.6667 13.2 22.6667 14.6667C22.6667 16.1333 21.4667 17.3333 20 17.3333C18.5333 17.3333 17.3333 16.1333 17.3333 14.6667C17.3333 13.2 18.5333 12 20 12Z" fill="white"/>
<path fill-rule="evenodd" clip-rule="evenodd" d="M25.3333 22.6665H14.6667V21.3332C14.6667 19.5598 18.2267 18.6665 20 18.6665C21.7733 18.6665 25.3333 19.5598 25.3333 21.3332V22.6665Z" fill="white"/>
</svg>
