<svg width="20" height="20" viewBox="0 0 20 20" fill="none" xmlns="http://www.w3.org/2000/svg">
<path fill-rule="evenodd" clip-rule="evenodd" d="M16.6667 4.99992H10.0001L8.33342 3.33325H3.33341C2.41675 3.33325 1.67508 4.08325 1.67508 4.99992L1.66675 14.9999C1.66675 15.9166 2.41675 16.6666 3.33341 16.6666H16.6667C17.5834 16.6666 18.3334 15.9166 18.3334 14.9999V6.66658C18.3334 5.74992 17.5834 4.99992 16.6667 4.99992Z" fill="#94A3B8"/>
<path fill-rule="evenodd" clip-rule="evenodd" d="M12.4999 7.5C13.4166 7.5 14.1666 8.25 14.1666 9.16667C14.1666 10.0833 13.4166 10.8333 12.4999 10.8333C11.5833 10.8333 10.8333 10.0833 10.8333 9.16667C10.8333 8.25 11.5833 7.5 12.4999 7.5Z" fill="#94A3B8"/>
<path fill-rule="evenodd" clip-rule="evenodd" d="M15.8334 14.1667H9.16675V13.3334C9.16675 12.2251 11.3917 11.6667 12.5001 11.6667C13.6084 11.6667 15.8334 12.2251 15.8334 13.3334V14.1667Z" fill="#94A3B8"/>
</svg>
