<svg width="20" height="18" viewBox="0 0 20 18" fill="none" xmlns="http://www.w3.org/2000/svg">
<path fill-rule="evenodd" clip-rule="evenodd" d="M0 1.5C0 0.947716 0.447715 0.5 1 0.5H7.5L10 2.5H19C19.5523 2.5 20 2.94772 20 3.5V16.5C20 17.0523 19.5523 17.5 19 17.5H1C0.447716 17.5 0 17.0523 0 16.5V1.5ZM6 13C6 11.8954 6.89543 11 8 11H12C13.1046 11 14 11.8954 14 13V14H6V13ZM10 10C11.1046 10 12 9.10457 12 8C12 6.89543 11.1046 6 10 6C8.89543 6 8 6.89543 8 8C8 9.10457 8.89543 10 10 10Z" fill="#94A3B8"/>
</svg>
