<svg width="24" height="24" viewBox="0 0 24 24" fill="none" xmlns="http://www.w3.org/2000/svg">
<path fill-rule="evenodd" clip-rule="evenodd" d="M8.49614 2.855L10.5 4.00007L15.7059 2.39825C16.2338 2.23583 16.7934 2.53208 16.9558 3.05994C16.9851 3.15522 17 3.25434 17 3.35403V8.60007H7L7 3.72325C7 3.17096 7.44772 2.72325 8 2.72325C8.17403 2.72325 8.34504 2.76866 8.49614 2.855Z" fill="#94A3B8"/>
<path fill-rule="evenodd" clip-rule="evenodd" d="M2.00073 10H21.9993V12H2.00073V10Z" fill="#94A3B8"/>
<path fill-rule="evenodd" clip-rule="evenodd" d="M13.0321 16.5097C12.7437 16.3307 12.4071 16.2428 12.0001 16.2428C11.5943 16.2428 11.2584 16.3302 10.9707 16.5081C10.9903 16.669 11.0005 16.8328 11.0005 16.999C11.0005 19.2076 9.21006 20.998 7.00146 20.998C4.79287 20.998 3.00244 19.2076 3.00244 16.999C3.00244 14.7904 4.79287 13 7.00146 13C8.32599 13 9.50012 13.6439 10.2279 14.6358C10.7594 14.3744 11.3543 14.2428 12.0001 14.2428C12.6467 14.2428 13.2423 14.3748 13.7743 14.6368C14.502 13.6444 15.6765 13 17.0015 13C19.2101 13 21.0005 14.7904 21.0005 16.999C21.0005 19.2076 19.2101 20.998 17.0015 20.998C14.7929 20.998 13.0024 19.2076 13.0024 16.999C13.0024 16.8334 13.0125 16.6701 13.0321 16.5097ZM17.0015 18.998C18.1055 18.998 19.0005 18.1031 19.0005 16.999C19.0005 15.895 18.1055 15 17.0015 15C15.8974 15 15.0024 15.895 15.0024 16.999C15.0024 18.1031 15.8974 18.998 17.0015 18.998ZM9.00049 16.999C9.00049 18.1031 8.10549 18.998 7.00146 18.998C5.89743 18.998 5.00244 18.1031 5.00244 16.999C5.00244 15.895 5.89743 15 7.00146 15C8.10549 15 9.00049 15.895 9.00049 16.999Z" fill="#94A3B8"/>
</svg>
