<svg width="14" height="12" viewBox="0 0 14 12" fill="none" xmlns="http://www.w3.org/2000/svg">
<path fill-rule="evenodd" clip-rule="evenodd" d="M7.0001 1.60002L5.8001 0.400024L2.6001 0.400024C1.49553 0.400024 0.600098 1.29545 0.600098 2.40002L0.600098 9.60003C0.600098 10.7046 1.49553 11.6 2.6001 11.6L11.4001 11.6C12.5047 11.6 13.4001 10.7046 13.4001 9.60003L13.4001 3.60002C13.4001 2.49546 12.5047 1.60002 11.4001 1.60002L7.0001 1.60002ZM5.13736 2.00002L2.6001 2.00002C2.37918 2.00002 2.2001 2.17911 2.2001 2.40002L2.2001 9.60003C2.2001 9.82094 2.37918 10 2.6001 10L11.4001 10C11.621 10 11.8001 9.82094 11.8001 9.60003L11.8001 3.60002C11.8001 3.37911 11.621 3.20002 11.4001 3.20002L7.0001 3.20002H6.33736L5.86873 2.7314L5.13736 2.00002Z" fill="#475569"/>
</svg>
