<svg width="30" height="30" viewBox="0 0 30 30" fill="none" xmlns="http://www.w3.org/2000/svg">
<path fill-rule="evenodd" clip-rule="evenodd" d="M15 0C23.2842 0 30 6.71573 30 15C30 23.2843 23.2842 30 15 30C13.6034 30 12.2514 29.8091 10.9687 29.4521L12.2016 26.0182C12.309 25.7207 12.5995 25.5307 12.9129 25.5526L12.9491 25.5561C13.0103 25.5634 13.0703 25.5688 13.1291 25.5739L13.2711 25.588C14.2101 25.6851 15.0337 25.3757 15.5922 24.7119C16.167 24.0281 16.3717 23.0672 16.1265 22.2041L16.1056 22.1332C15.9105 21.5067 15.4644 21.0137 14.8479 20.7421C14.2014 20.4572 13.466 20.4648 12.8303 20.7633C12.0798 21.1159 11.4963 21.575 11.0963 22.1281C10.9854 22.2814 10.8176 22.3836 10.6308 22.4121C10.4449 22.4401 10.2531 22.3933 10.102 22.2794C7.24812 20.1433 7.38976 17.4987 7.88228 16.3328L7.90375 16.2833C8.29271 16.5626 8.70558 16.8083 9.13726 17.0178C10.2803 17.5726 11.5552 17.8739 12.8673 17.8739C13.7275 17.8739 14.6035 17.7445 15.4692 17.472C17.6762 16.7779 19.4805 15.2655 20.55 13.2138C21.6195 11.162 21.8263 8.81632 21.1321 6.60907C20.5145 4.64488 19.2145 2.96176 17.4722 1.86972C17.1418 1.66273 16.7069 1.76276 16.4991 2.09316C16.2923 2.42317 16.3926 2.85875 16.7225 3.06575C18.1806 3.97971 19.2686 5.38848 19.7861 7.03277C20.367 8.8805 20.1939 10.8439 19.2985 12.5613C18.4034 14.2787 16.8929 15.5444 15.0456 16.1258C11.7808 17.1509 7.46114 15.6165 6.22823 11.6959C6.11137 11.3243 5.71545 11.1163 5.3433 11.2343C5.19939 11.2796 5.08019 11.3668 4.99499 11.4781C4.94377 11.524 4.89845 11.5783 4.86115 11.6404C3.43553 14.0111 3.12992 16.9992 4.02317 19.8385C4.07616 20.0071 4.1316 20.1728 4.18944 20.3354L4.24809 20.4972L1.86856 22.2559C0.677855 20.1057 -3.05176e-05 17.632 -3.05176e-05 15C-3.05176e-05 6.71573 6.7157 0 15 0ZM7.80263 25.2442C8.06938 25.4172 8.34644 25.5727 8.63347 25.7105L8.77781 25.7779L7.57275 28.035C7.12064 27.7768 6.68326 27.4958 6.26218 27.1936L7.80263 25.2442ZM5.98526 23.6077C6.21931 23.8924 6.46689 24.157 6.72757 24.4013L6.84009 24.5047L5.30539 26.4468C4.90397 26.1065 4.52069 25.7454 4.1572 25.3653L5.98526 23.6077ZM4.73723 21.6443C4.87528 21.9267 5.02207 22.1976 5.17739 22.4568L5.2716 22.611L3.35388 24.4545C3.05189 24.083 2.76733 23.6968 2.50143 23.297L4.73723 21.6443ZM12.6065 2.92338C11.8542 3.16006 11.4362 3.96209 11.6729 4.71441C11.9096 5.46672 12.7113 5.88501 13.4637 5.64803C14.2163 5.41135 14.6343 4.60961 14.3976 3.8573C14.1609 3.10498 13.3592 2.6867 12.6065 2.92338Z" fill="#375FF3"/>
<path fill-rule="evenodd" clip-rule="evenodd" d="M25.0044 29.0328C23.7924 29.0328 22.6558 28.4294 21.8847 27.3298C21.7117 27.0824 21.7717 26.741 22.019 26.5676C22.2667 26.3946 22.6076 26.4541 22.7812 26.7017C23.5103 27.7424 24.6287 28.1621 25.7728 27.8251C25.9944 27.7599 26.206 27.6674 26.4024 27.5503C26.6626 27.3958 26.9985 27.4808 27.1526 27.7401C27.3074 27.9996 27.2226 28.3353 26.9633 28.4901C26.6879 28.6542 26.3913 28.7835 26.0817 28.8748C25.721 28.981 25.3594 29.0328 25.0044 29.0328Z" fill="#375FF3"/>
</svg>
